<?xml version="1.0" encoding="UTF-8" standalone="no"?>
<!-- Created with Inkscape (http://www.inkscape.org/) -->

<svg
   width="95.44104mm"
   height="72.973427mm"
   viewBox="0 0 95.44104 72.973427"
   version="1.1"
   id="svg650"
   inkscape:version="1.2 (dc2aedaf03, 2022-05-15)"
   sodipodi:docname="Cat walking.svg"
   xmlns:inkscape="http://www.inkscape.org/namespaces/inkscape"
   xmlns:sodipodi="http://sodipodi.sourceforge.net/DTD/sodipodi-0.dtd"
   xmlns="http://www.w3.org/2000/svg"
   xmlns:svg="http://www.w3.org/2000/svg"
   xmlns:rdf="http://www.w3.org/1999/02/22-rdf-syntax-ns#"
   xmlns:cc="http://creativecommons.org/ns#"
   xmlns:dc="http://purl.org/dc/elements/1.1/">
  <title
     id="title720">Cat walking</title>
  <sodipodi:namedview
     id="namedview652"
     pagecolor="#ffffff"
     bordercolor="#666666"
     borderopacity="1.0"
     inkscape:showpageshadow="2"
     inkscape:pageopacity="0.0"
     inkscape:pagecheckerboard="0"
     inkscape:deskcolor="#d1d1d1"
     inkscape:document-units="mm"
     showgrid="false"
     inkscape:zoom="1.9366088"
     inkscape:cx="234.68859"
     inkscape:cy="100.94966"
     inkscape:window-width="1920"
     inkscape:window-height="991"
     inkscape:window-x="-9"
     inkscape:window-y="-9"
     inkscape:window-maximized="1"
     inkscape:current-layer="layer1" />
  <defs
     id="defs647" />
  <g
     inkscape:label="Lager 1"
     inkscape:groupmode="layer"
     id="layer1"
     transform="translate(-3.0790517,-28.580168)">
    <path
       id="path575"
       style="fill:#000000;stroke-width:0.169333"
       d="m 98.403813,28.580168 c -0.10292,0 -0.187069,0.114548 -0.187069,0.254248 0,0.307253 -0.28136,0.337839 -0.383439,0.04186 -0.04409,-0.12786 -0.454399,0.157271 -1.035596,0.719852 -1.133267,1.096969 -2.296379,1.796962 -3.238045,1.948719 -4.814531,0.775892 -6.520472,1.275173 -8.04292,2.353344 -0.419098,0.296799 -1.067175,0.68879 -1.439705,0.870748 -0.817514,0.399305 -3.234585,2.828456 -4.180624,4.201811 -1.672004,2.427221 -3.011271,6.691491 -3.517098,11.199316 -0.394409,3.514893 -1.009466,6.608662 -1.911511,9.60975 -0.346155,1.151648 -0.434606,1.270889 -0.728638,0.988053 -0.239907,-0.230769 -3.503599,-0.308969 -3.579109,-0.08578 -0.108406,0.320395 0.703855,0.548049 1.995227,0.559139 0.858352,0.0074 1.173803,-0.04059 0.999939,-0.151412 -0.20972,-0.133678 -0.19488,-0.161747 0.08475,-0.161747 0.585463,0 0.821462,0.244335 0.612882,0.63407 -0.15907,0.297235 -0.139442,0.332035 0.144178,0.257865 0.180313,-0.04715 0.451586,-0.275243 0.603064,-0.506429 0.151479,-0.231179 0.31883,-0.376734 0.37207,-0.323494 0.198155,0.198154 0.927138,-1.758721 1.286743,-3.454053 0.04939,-0.232833 0.174585,-0.728175 0.278019,-1.100708 0.103436,-0.372534 0.26092,-1.134123 0.34985,-1.69292 0.08892,-0.558795 0.239957,-1.397274 0.335897,-1.862935 0.166412,-0.807771 0.270427,-1.577463 0.650089,-4.826062 0.09252,-0.791632 0.251169,-1.806204 0.35295,-2.254643 0.101738,-0.448442 0.144405,-0.881059 0.09457,-0.961699 -0.04984,-0.08064 -0.01194,-0.195324 0.08423,-0.254764 0.09626,-0.05944 0.138725,-0.166769 0.09457,-0.238229 -0.219348,-0.354911 0.893298,-3.211539 1.952853,-5.014164 0.954078,-1.62318 3.231598,-3.899048 4.584216,-4.580599 0.497037,-0.250443 1.130148,-0.616818 1.407149,-0.81442 1.01397,-0.723334 3.56173,-1.536046 5.322673,-1.698088 2.551788,-0.234815 2.953998,-0.418177 4.924764,-2.242757 1.087437,-1.006775 1.296841,-0.918853 0.716752,0.30024 -0.431791,0.907437 -1.203275,1.475633 -3.98477,2.933671 -1.379381,0.72306 -2.472995,1.350027 -2.429825,1.393197 0.04317,0.04316 0.219654,0.0028 0.391707,-0.08992 0.172052,-0.09267 0.655255,-0.280261 1.074353,-0.417029 1.647289,-0.537574 2.994772,-1.074585 3.388424,-1.350305 0.226995,-0.158996 0.494864,-0.288872 0.595829,-0.288872 0.412735,0 1.726496,-1.448081 1.843298,-2.031917 0.269396,-1.346583 0.301989,-1.862935 0.117306,-1.862935 z m -8.061524,6.576342 -1.249536,0.639238 c -1.618858,0.827763 -4.426821,3.394041 -5.305619,4.849316 -0.641385,1.062125 -1.668822,3.666309 -1.987993,5.037936 -0.09752,0.419095 -0.364636,1.562001 -0.593762,2.539896 -0.76769,3.276428 -1.627665,7.835865 -1.786454,9.471257 -0.188219,1.938501 -0.473019,3.524792 -0.716235,3.989937 -0.09763,0.186724 -0.414593,0.612336 -0.703833,0.945679 -0.289241,0.333343 -0.613771,0.752321 -0.721403,0.931209 -0.192659,0.320197 -0.199643,0.320318 -0.441317,0.0016 -0.363675,-0.479766 -0.865795,-0.234561 -0.753443,0.367937 0.187844,1.007312 0.294877,1.281044 0.797368,2.039668 0.286937,0.433195 0.562859,0.979676 0.613399,1.214397 0.111931,0.519826 0.380614,1.322474 0.59893,1.788521 0.112672,0.24053 0.02948,1.13954 -0.273885,2.963127 -0.239532,1.439903 -0.473148,2.852254 -0.519348,3.138309 -0.0462,0.286058 -0.03218,0.571397 0.03101,0.634587 0.06319,0.06319 0.134903,0.09506 0.159163,0.0708 0.05007,-0.05007 0.231666,-1.2124 0.357084,-2.284099 0.06123,-0.523243 0.16023,-0.719169 0.363285,-0.717269 0.24245,0.0023 0.245827,0.02475 0.02532,0.169499 -0.225775,0.148214 -0.225775,0.186838 0,0.348816 0.172351,0.123647 0.191891,0.208308 0.06046,0.262516 -0.20242,0.08349 -0.111604,0.74104 0.10232,0.74104 0.06758,0 0.254709,-0.628985 0.415995,-1.39733 0.16129,-0.768348 0.367827,-1.701764 0.458887,-2.074292 0.343156,-1.403961 0.376793,-2.447644 0.0894,-2.765206 -0.148837,-0.164463 -0.401022,-0.714332 -0.560689,-1.222148 -0.159669,-0.50781 -0.5091,-1.247745 -0.77618,-1.644344 -0.484629,-0.719639 -0.495547,-1.056783 -0.03411,-1.056783 0.134202,0 0.243913,-0.08069 0.243913,-0.179317 0,-0.09863 -0.08781,-0.124849 -0.195337,-0.0584 -0.122098,0.07546 -0.149397,0.04632 -0.07286,-0.07751 0.06739,-0.109045 0.181138,-0.16205 0.252698,-0.117823 0.20448,0.126376 1.296212,-1.099324 1.702738,-1.911511 0.381372,-0.761931 1.02216,-4.095329 1.02216,-5.316988 0,-0.383023 0.07152,-0.930505 0.158647,-1.216463 0.08713,-0.286012 0.277253,-1.167942 0.422713,-1.95957 0.39021,-2.123631 0.906883,-4.574222 1.106393,-5.248259 0.09634,-0.325467 0.257061,-1.049394 0.357084,-1.608687 0.263815,-1.475171 1.315907,-4.426662 1.95802,-5.493205 0.304704,-0.50611 0.909543,-1.287315 1.34462,-1.735811 0.435078,-0.448502 0.740482,-0.815454 0.678512,-0.815454 -0.106535,0 0.08292,-0.264857 0.518831,-0.725538 0.1071,-0.113183 0.472089,-0.434251 0.81132,-0.713651 0.339234,-0.2794 0.937771,-0.799691 1.329635,-1.156519 z m -64.600191,3.27732 c -0.09851,-0.05631 -0.169499,0.152943 -0.169499,0.653707 0,0.909721 0.490925,3.039091 0.700733,3.039091 0.09117,0 0.125562,0.06528 0.07648,0.144694 -0.04908,0.07941 0.02024,0.288901 0.153996,0.465604 0.133751,0.176704 0.245563,0.522141 0.248563,0.767395 0.0041,0.341767 -0.09237,0.46428 -0.412894,0.52555 -0.230014,0.04397 -0.380958,0.01949 -0.335381,-0.05426 0.04558,-0.07373 -1.09207,-0.10602 -2.528527,-0.07183 -2.922395,0.06955 -3.540369,0.252729 -4.448308,1.319299 -0.306031,0.359501 -0.760087,0.645377 -1.243851,0.782382 -0.962523,0.272592 -2.878894,1.200181 -2.878894,1.393713 0,0.08035 -0.15913,0.305374 -0.353467,0.499711 -0.364042,0.364041 -0.342911,0.993722 0.04909,1.46606 0.237665,0.286364 0.270822,0.278175 0.93431,-0.227893 0.317589,-0.242233 0.622165,-0.395861 0.676445,-0.341581 0.09365,0.09365 0.725537,-0.526558 0.725537,-0.712101 0,-0.04827 -0.121629,-0.222293 -0.270268,-0.38654 -0.219876,-0.242957 -0.34629,-0.264071 -0.677478,-0.113171 -0.223893,0.102013 -0.406693,0.264925 -0.406693,0.361735 0,0.121135 -0.05489,0.121354 -0.175183,0.001 -0.405362,-0.405359 0.447917,-1.078487 1.367358,-1.078487 0.162406,0 0.33699,-0.108669 0.38809,-0.241845 0.05131,-0.133699 0.442864,-0.294522 0.873848,-0.359152 0.592177,-0.0888 0.920804,-0.265573 1.362708,-0.731738 0.32037,-0.337955 0.583097,-0.668579 0.583944,-0.734839 0.0038,-0.307831 1.562129,-0.489153 3.783748,-0.440283 1.319168,0.02902 2.693782,-0.0095 3.054594,-0.08578 l 0.656291,-0.138493 -0.120923,0.646472 c -0.06647,0.355639 -0.178741,0.722843 -0.249081,0.815971 -0.07034,0.09313 -0.1823,0.321714 -0.24908,0.50798 -0.112401,0.313527 -0.09532,0.311021 0.227893,-0.03514 0.192019,-0.205656 0.348816,-0.485319 0.348816,-0.621151 0,-0.135834 0.06363,-0.272291 0.141593,-0.303341 0.07796,-0.03104 0.343437,-0.685195 0.589628,-1.453658 0.538874,-1.682041 1.465312,-3.41495 1.470712,-2.751253 0.0019,0.232834 0.11659,0.797005 0.255281,1.254187 0.324965,1.071034 0.323345,2.820271 -0.0036,3.602881 -0.280968,0.672444 -0.22385,0.889611 0.151929,0.577742 0.830376,-0.68915 0.986834,-2.358876 0.42788,-4.56923 -0.194691,-0.769891 -0.319679,-1.433702 -0.278019,-1.475362 0.179831,-0.179832 0.832962,1.817334 0.974618,2.98018 0.20796,1.707089 0.113069,2.647163 -0.312126,3.101103 -0.33038,0.35271 -0.707967,1.1433 -0.707967,1.48208 0,0.08707 0.114548,0.15813 0.254248,0.15813 0.1397,0 0.253731,-0.143978 0.253731,-0.320394 0,-0.290246 0.544716,-0.948484 1.239718,-1.497583 0.379608,-0.29992 0.244996,-3.132282 -0.201538,-4.238501 -0.177916,-0.440756 -0.450293,-1.157107 -0.605131,-1.592151 -0.37283,-1.047512 -0.72202,-1.346579 -1.049548,-0.898653 -0.236166,0.322976 -0.243065,0.321815 -0.339515,-0.04703 -0.12359,-0.472599 -0.398425,-0.326329 -0.398425,0.211874 0,0.221454 -0.38131,1.181485 -0.846977,2.133719 -0.465664,0.952234 -0.84646,1.83335 -0.84646,1.95802 0,0.124672 -0.153591,0.22686 -0.341581,0.22686 -0.303425,0 -0.338423,-0.09965 -0.310575,-0.888835 0.02004,-0.567911 -0.09865,-1.225607 -0.328662,-1.82056 -0.19803,-0.512233 -0.444784,-1.369277 -0.548287,-1.904794 -0.108806,-0.562954 -0.234804,-0.885236 -0.333313,-0.941544 z m -0.762227,0.89917 -0.211874,1.002006 c -0.116417,0.551045 -0.211356,1.260201 -0.211356,1.576131 0,0.414461 0.05863,0.538761 0.211356,0.447001 0.164557,-0.09884 0.164226,-0.06766 -0.0031,0.13901 -0.156189,0.1929 -0.168949,0.387472 -0.04651,0.709517 0.195663,0.514638 0.427594,0.602665 0.299723,0.113688 -0.04755,-0.1818 -0.03722,-0.353105 0.02274,-0.380855 0.05997,-0.02775 0.07086,-0.850934 0.02429,-1.828829 z m -1.594218,5.488037 c -0.145021,0.05248 -0.188945,0.253708 -0.05426,0.452169 0.08047,0.118567 0.504062,0.145402 1.201477,0.07648 1.200788,-0.118669 1.334188,-0.01942 1.035596,0.769462 l -0.187585,0.49506 0.349849,-0.374137 c 0.192351,-0.205655 0.34985,-0.478308 0.34985,-0.606165 0,-0.323601 -0.62271,-0.599317 -1.523938,-0.674377 -0.4191,-0.0349 -0.866714,-0.09558 -0.994772,-0.135393 -0.06795,-0.02112 -0.127875,-0.0206 -0.176216,-0.0031 z m -2.213819,0.624768 c -0.05572,-0.0057 -0.107077,-0.004 -0.156579,0.0041 h -5.17e-4 c -0.066,0.01091 -0.128187,0.03421 -0.19172,0.06821 -0.430896,0.230624 -0.428416,0.557599 0.0031,0.420646 0.264838,-0.08406 0.354123,-0.0085 0.437183,0.369487 0.05745,0.261402 0.13096,0.561783 0.16278,0.667659 0.03558,0.118395 -0.07551,0.157849 -0.287837,0.102319 -0.295061,-0.07716 -0.320003,-0.04346 -0.173116,0.230994 0.09845,0.183963 0.352998,0.320911 0.595829,0.320911 0.233121,0 0.387481,-0.05846 0.343131,-0.130225 -0.04435,-0.07176 0.11592,-0.364194 0.356051,-0.649573 0.240128,-0.285375 0.39812,-0.58069 0.3514,-0.65629 -0.04672,-0.0756 -0.393498,-0.298291 -0.771013,-0.495061 -0.29692,-0.15476 -0.501528,-0.236126 -0.668693,-0.253214 z m 10.448975,1.85105 -0.141077,0.381372 c -0.09886,0.267231 -0.04636,0.549394 0.176217,0.945678 0.34376,0.612035 0.24024,1.030488 -0.21239,0.856796 -0.155538,-0.05968 -0.283187,-0.03381 -0.283187,0.05788 0,0.27536 0.478473,0.58511 0.696081,0.450619 0.13232,-0.08177 0.158765,-0.05317 0.07545,0.08165 -0.07507,0.121458 0.0015,0.301319 0.185518,0.436149 0.267826,0.196206 0.33472,0.190418 0.463538,-0.03876 0.09344,-0.166233 0.07923,-0.383647 -0.03876,-0.572575 -0.10465,-0.167571 -0.146251,-0.419579 -0.0925,-0.559655 0.05375,-0.140076 -0.05187,-0.466631 -0.234611,-0.726054 -0.182743,-0.259423 -0.391051,-0.661147 -0.463021,-0.892452 z m -12.026139,0.93741 c -0.11161,0.0064 0.520835,0.264471 1.405599,0.573092 0.884762,0.308618 1.632617,0.569923 1.661397,0.580843 0.02878,0.01093 0.0067,-0.05392 -0.04909,-0.144177 -0.106646,-0.172558 -2.668768,-1.029828 -3.017903,-1.009758 z m 11.615828,0.729155 c -0.03069,0.01353 -0.05013,0.0468 -0.05013,0.09612 0,0.09863 0.07637,0.179317 0.169499,0.179317 0.09313,0 0.169498,-0.03334 0.169498,-0.07441 0,-0.04107 -0.07637,-0.122274 -0.169498,-0.179834 -0.04657,-0.02878 -0.08868,-0.03472 -0.119373,-0.02119 z m -13.018327,0.614949 c -0.173939,0.0012 1.49852,1.590496 2.088762,1.984892 0.209547,0.14002 0.380855,0.322206 0.380855,0.404626 0,0.08242 -0.818866,0.154297 -1.820044,0.160197 -1.222941,0.0072 -1.699176,0.0597 -1.451074,0.15968 0.206126,0.08307 1.066372,0.08822 1.947168,0.01189 1.206032,-0.104537 1.657848,-0.08415 1.916679,0.08578 0.465307,0.305499 0.734594,0.298264 0.328662,-0.0088 -0.310918,-0.23516 -0.298871,-0.248631 0.221692,-0.253731 0.30268,-0.003 0.548519,-0.06244 0.546219,-0.132292 -0.0044,-0.13077 -2.077424,-1.228299 -2.317171,-1.226799 -0.07377,4.63e-4 0.09474,0.188014 0.374138,0.417029 0.279374,0.229021 0.406113,0.419314 0.281636,0.422714 -0.124478,0.0033 -0.702747,-0.451475 -1.284676,-1.010275 -0.58193,-0.558795 -1.127626,-1.015433 -1.212846,-1.014925 z m 2.206584,0.29869 c -0.610864,-0.08422 0.133685,0.561523 1.252637,0.973067 0.755999,0.27806 1.096695,0.307279 0.957564,0.08217 -0.05756,-0.09313 -0.214095,-0.169499 -0.348299,-0.169499 -0.134203,0 -0.243913,-0.07637 -0.243913,-0.169499 0,-0.09313 -0.152734,-0.168982 -0.338997,-0.168982 -0.186267,0 -0.338481,-0.06357 -0.338481,-0.141076 0,-0.07751 -0.266764,-0.222936 -0.592729,-0.322978 -0.145453,-0.04464 -0.260515,-0.07117 -0.347782,-0.0832 z m -5.310787,0.337964 c -0.0092,0.0025 -0.01395,0.01043 -0.01395,0.02429 0,0.351209 0.530352,1.274463 0.906922,1.578198 0.427737,0.345015 0.356446,0.324563 0.687813,0.197404 0.332688,-0.127664 0.35169,-0.40566 0.02791,-0.40566 -0.131785,0 -0.550761,-0.35327 -0.931209,-0.785482 -0.285336,-0.324157 -0.531793,-0.553048 -0.63717,-0.60048 -0.01756,-0.0079 -0.03113,-0.01078 -0.04031,-0.0083 z m -1.6738,0.962732 c -0.168342,0.02292 -0.515427,0.122916 -0.894002,0.261999 -0.66453,0.24415 -0.754183,0.308265 -0.325045,0.232027 0.743299,-0.132048 1.426916,-0.385376 1.3224,-0.489892 -0.01092,-0.01092 -0.04724,-0.01177 -0.103353,-0.0041 z m 0.58291,0.308508 c -0.04533,-0.02471 -0.275831,0.03977 -0.717785,0.222209 -0.649083,0.267938 -3.4545697,2.052868 -3.4545697,2.197798 0,0.220484 0.4471697,0.0071 1.0283607,-0.490409 0.36247,-0.310263 1.240186,-0.847575 1.950786,-1.194242 0.830095,-0.404969 1.268756,-0.694176 1.193208,-0.735356 z m 14.697295,0.224276 c -0.07021,0.0039 -0.169251,0.0176 -0.301274,0.03566 -0.632736,0.08655 -1.402895,0.709278 -1.104842,0.893486 0.289143,0.178702 1.037865,-0.142429 1.358573,-0.582393 0.207797,-0.285065 0.258179,-0.358378 0.04754,-0.346749 z m -13.168189,0.295072 c -0.06011,-0.06011 -2.268523,0.855692 -2.413806,1.000973 -0.05358,0.05359 0.165922,0.03798 0.487825,-0.03462 0.567882,-0.128076 2.030443,-0.861885 1.925981,-0.966349 z m 7.267257,0.04547 c -0.06138,0.01177 -0.09922,0.03995 -0.09922,0.08217 0,0.08441 0.152215,0.153479 0.338481,0.153479 0.186264,0 0.338997,-0.0289 0.338997,-0.0646 0,-0.0357 -0.152733,-0.104769 -0.338997,-0.153479 -0.09313,-0.02435 -0.177879,-0.02934 -0.239261,-0.01757 z m 8.87491,0.199988 c -0.03937,0.0095 -0.08032,0.03219 -0.122473,0.06718 -0.158764,0.131759 -0.19385,0.475188 -0.12454,1.219047 0.05307,0.569585 0.117327,1.9881 0.142627,3.152262 0.03758,1.728831 0.105655,2.217368 0.371553,2.665987 0.345043,0.582153 0.714533,0.780619 0.416512,0.223759 -0.215361,-0.402416 -0.224682,-0.569305 -0.02429,-0.445451 0.08324,0.05145 0.156264,-0.07735 0.162264,-0.286287 0.006,-0.208934 0.05984,-0.993272 0.119372,-1.743046 0.07611,-0.958532 0.02563,-1.805669 -0.170532,-2.852539 -0.278977,-1.488812 -0.494938,-2.067084 -0.770496,-2.000912 z m -5.356262,0.463021 c -0.07557,-0.02523 -0.117351,0.02785 -0.162781,0.146244 -0.05861,0.152734 -0.01264,0.390654 0.10232,0.529167 0.187995,0.226522 0.844909,0.363597 0.844909,0.176217 0,-0.04177 -0.189438,-0.280205 -0.420646,-0.529684 -0.179227,-0.193387 -0.28823,-0.296717 -0.363802,-0.321944 z m -8.797396,0.08527 c -0.06131,-0.01217 -0.114249,-0.01179 -0.154512,0.0026 -0.05368,0.01914 -0.08475,0.06305 -0.08475,0.134359 0,0.07785 0.276527,0.496827 0.61495,0.931209 0.338426,0.434384 0.637075,0.790133 0.663525,0.790133 0.02646,0 0.441931,-0.197652 0.922941,-0.43925 0.639254,-0.32108 1.071171,-0.423962 1.606104,-0.381372 0.402512,0.03204 0.701699,0.0094 0.664559,-0.05064 -0.03714,-0.06009 0.06289,-0.159318 0.222725,-0.220658 0.249088,-0.09558 0.254981,-0.134131 0.04134,-0.269235 -0.367728,-0.232557 -1.05866,-0.196733 -1.74718,0.09095 -0.903845,0.377654 -1.581647,0.322115 -2.073258,-0.169499 -0.231734,-0.231734 -0.492508,-0.382071 -0.676445,-0.418579 z m 4.713408,1.858285 c -0.24884,0 -0.199569,0.692459 0.05633,0.790649 0.184174,0.07068 0.201706,0.152706 0.06511,0.317293 -0.135562,0.163337 -0.10725,0.371214 0.107487,0.784965 l 0.291972,0.56224 0.147278,-0.43925 c 0.107304,-0.319887 0.05544,-0.65365 -0.190686,-1.227832 -0.185875,-0.433624 -0.400354,-0.788065 -0.476974,-0.788065 z m -0.03307,2.201416 c -0.16607,0 -0.342516,0.599976 -0.345716,1.176672 -0.0014,0.2455 0.05807,0.348921 0.145211,0.253731 0.202689,-0.221338 0.372137,-1.430403 0.200505,-1.430403 z m -1.056783,3.277836 c -0.01824,-0.02982 -0.08148,0.07858 -0.207223,0.296623 -0.364559,0.632188 -0.598226,2.317464 -0.631486,4.558894 -0.02561,1.72605 0.08269,2.872149 0.307475,3.254065 0.04111,0.06985 0.151485,0.127124 0.245463,0.127124 0.1061,0 0.132647,-0.336838 0.06976,-0.888834 -0.11073,-0.972043 -0.125619,-4.599658 -0.02274,-5.545915 0.03544,-0.325967 0.114263,-0.897674 0.175183,-1.270207 0.05466,-0.334216 0.08181,-0.501934 0.06356,-0.53175 z m 12.786299,0.10852 c -0.843873,0 -1.917195,0.42597 -1.917195,0.760677 0,0.152698 0.213221,0.189788 0.746207,0.129708 0.532917,-0.06007 1.24821,0.06432 2.498039,0.434082 2.417203,0.715135 2.811634,0.778996 3.154846,0.513664 0.260803,-0.201618 0.260631,-0.188862 -0.0067,0.12609 -0.163183,0.192218 -0.244774,0.401182 -0.181384,0.464572 0.06339,0.06339 0.349048,0.07625 0.635103,0.02842 0.28606,-0.04783 1.358339,-0.164496 2.382801,-0.259416 1.024462,-0.09492 2.243729,-0.246436 2.709395,-0.336414 0.465665,-0.08998 1.646751,-0.237981 2.624646,-0.329178 0.977895,-0.0912 2.540295,-0.248732 3.471623,-0.34985 1.080076,-0.117255 4.839377,-0.160836 10.380245,-0.120406 4.777783,0.03487 8.719859,0.01 8.760188,-0.05529 0.149016,-0.241114 -1.141636,-0.345669 -6.101953,-0.49506 -8.341805,-0.251232 -12.561957,-0.110405 -17.69556,0.591695 -0.977895,0.133745 -2.778973,0.362978 -4.00234,0.509013 l -2.224154,0.265617 -0.820105,-0.45837 c -1.198926,-0.669353 -3.53129,-1.419552 -4.413167,-1.419552 z m -2.340942,2.355412 -0.740007,0.388607 c -0.926007,0.486285 -2.43662,2.100084 -2.992582,3.197221 -0.592985,1.170201 -0.269974,1.041049 0.387573,-0.15503 0.498321,-0.906446 1.581967,-2.065939 2.843238,-3.042191 z m -5.745903,4.870504 c -0.249306,0.03046 -1.449842,2.671794 -1.444873,3.244246 0.005,0.574207 0.02353,0.5973 0.246497,0.302824 0.132677,-0.175231 0.323199,-0.71507 0.423747,-1.19941 0.100549,-0.484338 0.336753,-1.167405 0.524515,-1.517737 0.18776,-0.350325 0.316725,-0.710191 0.286805,-0.799951 -0.0075,-0.02257 -0.02007,-0.032 -0.03669,-0.02997 z m -4.543392,2.253609 c -0.03421,-0.05683 -0.109674,0.231746 -0.221691,0.850077 -0.126543,0.6985 -0.375869,1.536452 -0.553972,1.862419 -0.178106,0.325966 -0.423693,0.993017 -0.545703,1.48208 -0.194442,0.779379 -0.188984,0.915376 0.04341,1.100708 0.145828,0.116298 0.403443,0.535398 0.572575,0.931209 0.227868,0.533279 0.403297,0.719336 0.677478,0.719336 0.203504,0 0.464902,0.11455 0.580843,0.254248 0.115941,0.1397 0.251157,0.253732 0.300757,0.253732 0.0496,0 -0.03384,-0.137283 -0.185518,-0.304891 -0.508821,-0.562242 -0.770014,-1.623567 -0.670244,-2.723865 0.05978,-0.65927 0.03066,-1.035079 -0.08061,-1.035079 -0.217034,0 -0.380338,0.40576 -0.380338,0.945162 0,0.385813 -0.166051,0.525377 -0.375688,0.315743 -0.05149,-0.05149 0.02064,-0.451378 0.160714,-0.888835 0.3725,-1.1633 0.712028,-2.909211 0.698148,-3.589445 -0.002,-0.09618 -0.0088,-0.153654 -0.02015,-0.172599 z m 3.527434,5.374866 c -0.02791,0.0011 -0.05186,0.0088 -0.07286,0.02274 -0.186807,0.123442 -0.143033,0.302342 0.229443,0.937928 0.253128,0.431929 0.592783,0.879393 0.754476,0.994254 0.161695,0.11486 0.497397,0.532809 0.746208,0.928626 0.248813,0.395809 0.52763,0.719336 0.6196,0.719336 0.09197,0 0.167432,0.105621 0.167432,0.234611 0,0.128987 0.189954,0.35891 0.422196,0.51108 0.232246,0.152177 0.403556,0.346181 0.380856,0.430981 -0.0227,0.0848 0.111392,0.271672 0.297656,0.414962 0.656394,0.505027 0.801136,0.219878 0.274402,-0.540019 -0.753288,-1.086737 -1.37511,-2.094945 -1.37511,-2.229321 0,-0.07973 -0.514435,-0.687088 -1.143083,-1.349789 -0.624066,-0.657869 -0.990618,-0.983549 -1.205611,-1.058333 -0.03584,-0.01246 -0.0677,-0.01812 -0.0956,-0.01705 z m 8.412923,0.235644 c -0.0463,0.0061 -0.07178,0.10489 -0.10387,0.271302 -0.254602,1.320459 -0.116532,1.832285 0.887285,3.290755 0.535298,0.777747 1.069419,1.392958 1.187007,1.367358 0.117594,-0.0256 0.178456,0.01265 0.134876,0.08475 -0.04358,0.0722 -0.204431,0.893357 -0.357084,1.824694 -0.152656,0.931327 -0.319084,1.902942 -0.370004,2.159042 -0.05083,0.256107 -0.05058,0.465604 0.001,0.465604 0.15017,0 0.7314,-1.38387 0.853178,-2.031917 0.06125,-0.32596 0.228917,-1.102559 0.373104,-1.725476 l 0.262516,-1.132747 -0.892452,-1.3224 c -0.490753,-0.727516 -1.138795,-1.801773 -1.440222,-2.386935 -0.322543,-0.626147 -0.458197,-0.874185 -0.535368,-0.86403 z m 27.636556,1.02061 c -0.110762,-0.01456 -0.173755,0.02747 -0.231511,0.120923 -0.11027,0.178421 -0.22085,0.186523 -0.501778,0.03617 -0.655101,-0.350597 -0.381868,0.114799 0.654741,1.115694 1.263411,1.219886 2.022736,2.637119 2.711979,5.06119 1.007744,3.544261 1.774251,5.303736 3.011702,6.91379 0.843917,1.098037 1.521371,1.483966 3.282487,1.869653 1.328717,0.29091 1.617726,0.309575 1.739429,0.112655 0.105557,-0.17082 2.157622,-0.118449 2.450496,0.06253 0.100366,0.062 0.26425,0.0624 0.364319,5.17e-4 0.324972,-0.20084 -0.596672,-0.534317 -3.087667,-1.117244 L 68.837142,89.963501 67.882678,89.004903 C 66.51723,87.633929 65.610984,85.630473 64.686491,81.939185 64.055627,79.420261 62.760639,77.314632 61.388501,76.575688 61.1403,76.442021 60.981982,76.370621 60.87122,76.356063 Z m -27.30686,0.732772 c 0.02956,-0.02956 0.434184,0.518843 0.899169,1.21853 0.464984,0.699677 0.950627,1.331015 1.079004,1.403015 0.13449,0.0754 0.164004,0.173827 0.06976,0.232027 -0.148802,0.092 -2.17299,-2.728518 -2.047937,-2.853572 z m -11.134205,0.436149 c -0.137883,-0.01074 -0.244429,0.05202 -0.244429,0.193786 0,0.110673 0.334227,0.510565 0.74259,0.888835 l 0.742591,0.687813 -1.730127,1.608171 c -0.951628,0.884367 -1.838473,1.615224 -1.970423,1.625224 -0.131951,0.01 -0.32997,0.02869 -0.440283,0.04289 -0.323611,0.0416 -2.600642,1.912923 -4.419368,3.63182 -1.451817,1.372134 -4.046317,3.300716 -4.860686,3.613216 -0.140771,0.054 -0.2563148,0.166397 -0.2563148,0.249597 0,0.21264 0.025434,0.205546 1.1280968,-0.320394 1.243733,-0.593227 2.664244,-1.421842 2.738334,-1.596802 0.03105,-0.0733 0.153227,-0.132808 0.271301,-0.132808 0.118075,0 1.022606,-0.819374 2.010213,-1.820561 2.344994,-2.377191 3.70098,-3.601161 3.872115,-3.495394 0.226712,0.14011 2.527152,-1.496199 3.570842,-2.539896 0.534413,-0.53441 0.972034,-1.004914 0.972034,-1.045414 0,-0.0405 -0.157053,-0.07338 -0.348816,-0.07338 -0.203102,0 -0.301995,-0.0755 -0.237195,-0.180351 0.129824,-0.21006 -0.386827,-0.835608 -0.68988,-0.835608 -0.113863,0 -0.301605,-0.114548 -0.417546,-0.254248 -0.125787,-0.151566 -0.295163,-0.235752 -0.433049,-0.246496 z m 2.549716,0.730188 c -0.232769,0.0134 -0.423166,0.12707 -0.42323,0.252697 -4.25e-4,0.81185 1.39731,2.397921 2.709395,3.074748 v 5.17e-4 c 0.404356,0.20854 0.657498,0.252119 0.796851,0.137459 0.112333,-0.0924 0.283645,-0.119021 0.380855,-0.05891 0.34893,0.21565 0.168655,-0.213815 -0.204122,-0.486275 -0.355467,-0.26014 -0.342739,-0.260548 0.188102,-0.0067 0.312933,0.1495 0.520767,0.193822 0.461987,0.0987 -0.05878,-0.0951 0.02781,-0.258555 0.192754,-0.363285 0.257949,-0.16383 0.240077,-0.178086 -0.128675,-0.101286 -0.297065,0.0619 -0.486847,-0.004 -0.617533,-0.212907 -0.103728,-0.1661 -0.805835,-0.71468 -1.560628,-1.219047 -0.754795,-0.50436 -1.372526,-0.966961 -1.372526,-1.028361 0,-0.0615 -0.190466,-0.100257 -0.42323,-0.08682 z m 51.224263,2.056205 0.06873,0.677478 c 0.09889,0.974477 0.415896,1.704596 1.3224,3.048393 1.097958,1.627614 3.149067,3.594567 4.881355,4.680334 1.236718,0.775147 1.561102,0.904385 2.224154,0.887285 1.228566,-0.0317 1.296763,-0.216789 0.28422,-0.770496 -0.497789,-0.27222 -1.096103,-0.667363 -1.329634,-0.877983 -0.233529,-0.210617 -0.713083,-0.594124 -1.065568,-0.852144 -0.929581,-0.680497 -3.65133,-3.526796 -4.876188,-5.09943 -0.580302,-0.74504 -1.015713,-1.240408 -0.967383,-1.100708 0.298458,0.862667 0.241994,0.981755 -0.120406,0.254248 z m -51.393762,1.280025 c -0.09313,-0.003 -0.855242,0.53742 -1.693437,1.199927 -0.838195,0.662507 -2.43826,1.803396 -3.555855,2.535246 -1.117595,0.731847 -2.184132,1.445203 -2.370398,1.585433 -0.738003,0.555637 0.54203,-0.0526 2.051554,-0.974618 0.827262,-0.505307 1.847431,-1.112945 2.266529,-1.350305 0.800282,-0.45325 3.593531,-2.987683 3.301607,-2.995683 z m 4.854484,0.412895 c -0.01001,0.005 -0.01609,0.02221 -0.01757,0.05271 -0.0059,0.12201 -0.08722,0.174905 -0.180351,0.117305 -0.09313,-0.0576 -0.171883,-0.04336 -0.175183,0.03204 -0.0033,0.0753 -0.05336,0.975411 -0.111621,1.999878 -0.158485,2.786831 -0.122078,3.842417 0.214457,6.219258 0.284683,2.010604 0.55787,2.787091 0.59738,1.697054 l 0.01705,-0.465604 0.147278,0.42323 c 0.09662,0.277487 0.114166,0.044 0.05064,-0.677478 -0.05329,-0.60536 -0.121622,-2.814821 -0.151412,-4.910295 -0.02979,-2.095494 -0.131326,-4.000496 -0.225826,-4.233333 -0.07088,-0.17465 -0.134824,-0.269765 -0.164848,-0.254765 z m -0.838192,0.327112 c -0.187669,0.008 -0.591925,0.267853 -1.137398,0.77773 -0.565741,0.528827 -7.200398,4.085651 -10.540959,5.650818 -0.395813,0.18545 -0.719852,0.398573 -0.719852,0.473873 0,0.18425 0.295585,0.174654 0.411861,-0.01344 0.05118,-0.0828 0.275874,-0.196698 0.499194,-0.252698 0.22332,-0.056 1.141468,-0.445653 2.040186,-0.86558 0.89872,-0.41993 1.741892,-0.763261 1.873787,-0.763261 0.303303,0 5.022638,-2.330693 5.927804,-2.92747 0.920721,-0.607037 1.141549,-0.806337 1.484147,-1.342037 0.320154,-0.500597 0.348898,-0.745669 0.16123,-0.737939 z m 8.144206,1.221631 c -0.269449,-0.0058 -0.504339,-0.0046 -0.684713,0.0041 -0.240499,0.0117 -0.384472,0.03711 -0.384472,0.07751 0,0.17874 0.9369,0.449988 2.272729,0.658358 0.644538,0.10055 1.216247,0.209563 1.270207,0.242363 0.142907,0.087 6.51438,0.445295 8.988082,0.505395 2.711138,0.0658 6.776082,0.255076 7.899776,0.367936 0.989452,0.0994 0.892587,-0.04709 1.666048,2.522844 0.252266,0.838197 0.572198,1.7036 0.711068,1.92288 0.168476,0.266047 0.216525,0.592411 0.14366,0.980818 -0.117733,0.62757 -2.281614,3.948132 -3.293856,5.054989 -0.340687,0.37253 -0.880173,1.058268 -1.198893,1.523938 -0.318719,0.46566 -0.74847,0.981089 -0.955497,1.145666 -0.207024,0.16458 -0.624034,0.611771 -0.926558,0.993738 l -0.550354,0.694526 0.580843,-0.12454 c 0.767092,-0.164722 0.704133,-0.10636 1.224214,-1.134292 0.44034,-0.870317 1.284626,-1.80426 3.096969,-3.425114 1.074774,-0.961217 2.713362,-3.371072 2.921269,-4.296379 0.0859,-0.382317 0.119707,-0.730846 0.07545,-0.775146 -0.04426,-0.0443 -0.106623,-0.333802 -0.138493,-0.643372 -0.09231,-0.896707 -0.54211,-3.057709 -0.747758,-3.592029 -0.103542,-0.269037 -0.163035,-0.514486 -0.132291,-0.545186 0.03075,-0.0308 0.871265,-0.0711 1.867586,-0.0894 1.924753,-0.0354 2.398429,-0.231459 0.922424,-0.381889 -2.911304,-0.29671 -3.713586,-0.345059 -12.827124,-0.773596 -3.821525,-0.17969 -7.024085,-0.427722 -8.974646,-0.694532 -0.8973,-0.122758 -2.01732,-0.2023 -2.825667,-0.219624 z m 27.102222,2.376599 c -0.02804,-0.0274 -0.04408,0.0196 -0.05013,0.139009 -0.01395,0.27544 -0.04644,0.292374 -0.174149,0.09043 -0.443824,-0.701737 -0.72392,2.707038 -0.33693,4.100525 0.206355,0.743057 0.493406,0.837896 0.513147,0.169499 l 0.01344,-0.465605 0.218592,0.49506 0.218074,0.494544 0.08475,-0.664043 c 0.09681,-0.758697 -0.130323,-3.292928 -0.363286,-4.050915 -0.05506,-0.17916 -0.09546,-0.281108 -0.123506,-0.308508 z m -29.243693,0.28577 c -0.01676,-0.0113 -0.03813,-0.0078 -0.06511,0.0072 -0.03598,0.0203 -0.08215,0.06251 -0.141593,0.121956 -0.381124,0.38113 -0.575544,2.066565 -0.583944,5.058606 -0.0041,1.443567 -0.07846,3.538987 -0.165364,4.656564 -0.100318,1.289894 -0.09921,2.052961 0.0036,2.088761 0.273202,0.0952 0.17838,0.585403 -0.263033,1.35754 -0.231709,0.40531 -0.42168,0.768345 -0.42168,0.806145 0,0.0379 0.144178,-0.021 0.319877,-0.13074 0.527158,-0.329205 1.206211,-1.521777 1.184941,-2.081004 -0.01323,-0.34793 -0.04743,-0.408896 -0.10387,-0.187069 -0.07803,0.30669 -0.09843,0.301253 -0.299206,-0.0739 -0.175385,-0.32771 -0.173358,-0.530762 0.0098,-1.090889 0.481556,-1.472377 0.766009,-4.343085 0.680579,-6.869349 -0.04567,-1.350424 -0.08675,-2.757214 -0.09095,-3.126424 -0.0039,-0.341387 -0.01378,-0.503038 -0.06408,-0.536918 z m 49.973177,1.066602 c -0.155311,0.004 -0.303869,0.01899 -0.441834,0.04599 -0.130859,0.0256 0.96165,0.83371 1.61954,1.19786 0.723207,0.400307 0.9876,0.813981 0.91829,1.437638 -0.03714,0.33421 -0.03457,0.333978 0.221175,0.0098 0.142554,-0.180777 0.259416,-0.394623 0.259416,-0.475423 0,-0.0809 0.06821,-0.105193 0.151412,-0.05374 0.252057,0.15578 0.376842,-0.722887 0.153479,-1.080554 -0.379651,-0.60791 -1.794305,-1.110038 -2.881478,-1.081588 z M 58.88013,88.62198 c 0.0082,-0.0146 0.02178,-0.01365 0.04134,0.0078 0.07318,0.0812 0.219813,0.40775 0.326078,0.725537 0.196314,0.58707 0.157869,0.879141 -0.0677,0.514181 -0.158758,-0.256884 -0.357122,-1.144847 -0.299723,-1.247469 z m -54.1352,0.289389 c -0.1115167,0.0109 -0.1694987,0.0552 -0.1694987,0.134359 0,0.0968 -0.07624,0.12916 -0.1689819,0.07183 -0.09274,-0.0573 -0.2603154,0.109667 -0.3725871,0.371037 -0.1122717,0.261357 -0.3314863,0.665306 -0.486792,0.898136 -0.1553044,0.23284 -0.3342988,0.614147 -0.3979085,0.846977 -0.1126697,0.412457 -0.1085856,0.414739 0.1545125,0.08475 0.1485317,-0.18626 0.3180715,-0.306884 0.3767212,-0.267684 0.05865,0.0392 0.3469109,-0.171872 0.640271,-0.469222 l 0.5333008,-0.540535 0.7493083,0.327628 c 0.7226086,0.31591 3.0262199,0.584354 3.4891927,0.406694 0.3532078,-0.13554 0.2610203,-0.388607 -0.1415935,-0.388607 -0.2010054,0 -1.0521348,-0.31621 -1.8913574,-0.7028 C 5.894016,89.147024 5.0794841,88.878649 4.74493,88.911369 Z m 25.147819,1.445906 c 0.0095,0.01028 0.0199,0.03482 0.03049,0.07545 0.04291,0.16476 0.0407,0.393339 -0.0057,0.507979 -0.04639,0.11464 -0.08153,-0.0203 -0.07803,-0.299723 0.0026,-0.208845 0.02443,-0.312693 0.05323,-0.283704 z m 45.64941,0.29714 c -0.16025,0.006 -0.321176,0.02409 -0.498678,0.05219 -1.021921,0.16154 -1.3343,0.357601 -0.569474,0.357601 0.290742,0 1.214583,0.30176 2.053105,0.67076 0.940474,0.41386 2.123159,0.774894 3.086633,0.942061 0.859028,0.14904 1.694194,0.341481 1.855701,0.427881 0.161505,0.0864 0.420569,0.53968 0.575675,1.006657 0.228568,0.68816 0.248022,1.005787 0.10387,1.677934 -0.09782,0.456117 -0.229072,1.446712 -0.291972,2.200899 -0.114784,1.376387 -0.0068,1.657663 0.433565,1.127063 0.111346,-0.13412 0.299961,-0.206411 0.419096,-0.160714 0.232347,0.0892 0.436149,-1.24682 0.436149,-2.860807 0,-0.590727 0.08409,-0.907125 0.27957,-1.050065 0.259576,-0.18981 0.258128,-0.285928 -0.02481,-1.331185 -0.167723,-0.619617 -0.388872,-1.195175 -0.491443,-1.278475 -0.276841,-0.22483 -2.264375,-0.801997 -3.234428,-0.939477 -0.465663,-0.066 -1.500695,-0.301976 -2.299601,-0.524516 -0.87972,-0.24504 -1.352208,-0.33547 -1.832963,-0.31781 z m -9.611816,0.151412 c -0.05502,2.7e-5 -0.112738,0.0078 -0.1726,0.02377 -0.304055,0.0813 -0.344749,0.167284 -0.225826,0.480074 0.203624,0.53558 -0.189974,1.07818 -2.06499,2.843754 -1.508044,1.420017 -1.795995,1.825807 -0.836641,1.18029 0.247206,-0.16634 0.678165,-0.414014 0.957564,-0.550354 2.166656,-1.057307 3.456657,-2.823915 2.75177,-3.768762 -0.06842,-0.0919 -0.15423,-0.154299 -0.252698,-0.185519 -0.04923,-0.0156 -0.101559,-0.02328 -0.156579,-0.02325 z m 10.188008,0.10852 c 0.186265,-0.008 0.453031,0.0596 0.592729,0.149862 0.296696,0.19174 0.09073,0.19174 -0.507979,0 -0.348753,-0.11166 -0.363746,-0.138062 -0.08475,-0.149862 z M 86.50118,91.47607 c -0.225707,0.0346 -0.452206,0.430491 -0.523482,1.064018 -0.05013,0.445607 -0.280206,1.915007 -0.51108,3.265434 -0.230874,1.350424 -0.466096,2.826323 -0.522966,3.279903 -0.09308,0.742347 -0.0767,0.80266 0.166915,0.60048 0.148849,-0.12354 0.384128,-0.2416 0.522966,-0.262 0.13884,-0.0204 0.272739,-0.06168 0.297139,-0.09198 0.02441,-0.0303 0.284202,-1.314739 0.577226,-2.854606 0.562443,-2.955701 0.638525,-3.926885 0.364836,-4.646745 -0.101149,-0.266037 -0.236128,-0.37529 -0.371554,-0.3545 z M 5.2244873,91.925655 c -0.1307997,0.007 -0.2520174,0.03815 -0.3813721,0.08785 -0.5285232,0.20281 -0.2503371,0.53592 0.7792806,0.93276 0.5760625,0.222027 1.2808936,0.496622 1.5663127,0.609782 0.4560765,0.180787 1.2322079,0.153723 1.436088,-0.05013 0.09412,-0.0941 0.1332065,-0.07081 -1.4805297,-0.884183 -1.048338,-0.52847 -1.5273827,-0.718152 -1.9197795,-0.696082 z m 7.2471027,0.155546 c -0.223015,-10e-4 -2.06686,1.147239 -2.307869,1.437639 -0.331687,0.399647 0.0826,0.316126 0.807186,-0.162781 0.835964,-0.55252 1.6852,-1.273858 1.500683,-1.274858 z m 17.503841,0.845427 c -0.09313,0 -0.164113,0.210001 -0.157613,0.466121 0.01055,0.41264 0.02866,0.426707 0.157613,0.126607 0.198748,-0.462507 0.198748,-0.592728 0,-0.592728 z m -0.314192,2.344043 c -0.116227,0.02383 -0.189231,0.369284 -0.22686,1.04283 l -0.05168,0.931209 -1.329635,0.05013 c -1.465187,0.0548 -2.004594,0.294286 -2.404504,1.067636 -0.248937,0.481387 -0.330235,1.766264 -0.142627,2.255154 0.105946,0.2761 0.515038,0.3449 0.982885,0.16537 0.146781,-0.0563 0.232193,-0.15858 0.189653,-0.22738 -0.147042,-0.23792 0.263485,-1.354522 0.679545,-1.848979 0.324666,-0.38585 0.586883,-0.509972 1.178739,-0.557072 0.571317,-0.0454 0.761194,-6.7e-4 0.761194,0.1788 0,0.46332 0.671738,-0.349899 0.856796,-1.037146 0.143366,-0.532427 0.121859,-0.810598 -0.111105,-1.420585 -0.132449,-0.34682 -0.241477,-0.544022 -0.329695,-0.590662 -0.01838,-0.0097 -0.03611,-0.01271 -0.05271,-0.0093 z m 22.50922,1.642793 c -0.12618,0.007 -0.243484,0.04721 -0.365352,0.121957 -0.356903,0.21902 -2.017965,2.683556 -2.017965,2.994129 0,0.51591 0.920628,-0.177218 1.767334,-1.330665 0.52728,-0.718297 0.685804,-0.82734 1.20251,-0.82734 0.327388,0 0.714305,-0.0988 0.859896,-0.219624 0.238825,-0.19821 0.23601,-0.241006 -0.02945,-0.435116 -0.16183,-0.1183 -0.352667,-0.179075 -0.424264,-0.134875 -0.0716,0.0443 -0.32988,0.0049 -0.573608,-0.08785 -0.158115,-0.0601 -0.292916,-0.08722 -0.419096,-0.08062 z m -25.56123,1.102775 c 0.03716,-0.003 0.07405,0.0023 0.11007,0.01705 0.07831,0.0321 -0.03212,0.362828 -0.245463,0.735355 l -0.387573,0.677478 -0.0031,-0.529683 c -0.0024,-0.450187 0.265926,-0.879115 0.526067,-0.900204 z m 54.692785,0.403077 c -0.473358,0.0782 -1.731325,0.831341 -2.149739,1.328601 -0.389975,0.463463 -0.559189,1.437793 -0.296106,1.701703 0.135921,0.13629 0.203572,0.13741 0.677994,0.0103 0.31186,-0.0836 0.353482,-0.18553 0.274402,-0.67283 -0.07704,-0.47473 -0.0085,-0.6612 0.394291,-1.072803 0.268141,-0.27399 0.697314,-0.577694 0.953431,-0.674894 0.478189,-0.18153 0.595497,-0.423908 0.295589,-0.609265 -0.03088,-0.0191 -0.08224,-0.02154 -0.149862,-0.01034 z M 25.15092,98.822909 c -0.02893,-0.03 -0.0506,0.0752 -0.05323,0.284737 -0.0034,0.279357 0.03164,0.413846 0.07803,0.299206 0.04641,-0.11465 0.04913,-0.343229 0.0062,-0.507979 -0.01073,-0.0412 -0.02135,-0.06596 -0.03101,-0.07596 z m 4.179073,0.539501 c -0.912499,9.3e-4 -2.212608,0.86506 -2.228288,1.48105 -0.0099,0.39072 0.476321,0.21648 0.84646,-0.30334 0.325208,-0.45671 0.452291,-0.51074 1.124479,-0.47594 0.500243,0.0259 0.807611,-0.0407 0.903821,-0.196374 0.223495,-0.36162 0.0385,-0.506066 -0.646472,-0.505396 z m 22.91488,1.11156 c -0.456949,-0.002 -0.797851,0.009 -0.891418,0.0398 -0.366245,0.11986 -0.231902,0.31662 0.33848,0.49506 0.302682,0.0947 0.778935,0.14914 1.058334,0.12144 0.279396,-0.0277 1.100351,-0.1038 1.824178,-0.1695 0.723826,-0.0657 1.352574,-0.17799 1.396814,-0.24959 0.06254,-0.10116 -2.355533,-0.23058 -3.726388,-0.2372 z m -21.177519,0.0801 c -0.923707,0.0102 -2.09721,0.25287 -2.324922,0.48059 v 5.2e-4 c -0.251927,0.25154 0.351745,0.24996 1.670182,-0.004 1.226524,-0.23652 1.5703,-0.48707 0.65474,-0.47697 z"
       sodipodi:nodetypes="cssssssssssscssssssssssscsccsssssssscsssssccssssssscssssssssscssssscsssssssssssssssssssccccssscscsssssssssssscsssscscccsssssssccssssssssssssssssssssccccscssssccccscccssscscscssssssssssscsssssscsssscccssscsssssscsssssscccsccscsssssssssssssssssssssssssssscssscssssssssssscssscsssscssssssscssssscsssssssscccssssccsssssssssssssscssssssssccscccsscsssccscssscscssssssssssssssscscssssssscssssssssscscsscccsssssssscssccccsssssccssscccscsssssscsssssssscsccccccscccsscccsssssscsscccsscsscsssssscccsssssssssssssscscsscccsssssscccssssssscsscssscsccccsssccccscsscssscsscccssscscccccsscsscssscssccssssccsccscsssssssccsssssscsssssccsssccccsssssssscccscssccsscscssccccssccscsssssccssssccscsssccscsccsscsccscsssccssscccsssccscccscsssscssssssscsssssssssssssssssssssss" />
  </g>
  <metadata
     id="metadata714">
    <rdf:RDF>
      <cc:License
         rdf:about="http://creativecommons.org/publicdomain/zero/1.0/">
        <cc:permits
           rdf:resource="http://creativecommons.org/ns#Reproduction" />
        <cc:permits
           rdf:resource="http://creativecommons.org/ns#Distribution" />
        <cc:permits
           rdf:resource="http://creativecommons.org/ns#DerivativeWorks" />
      </cc:License>
      <cc:Work
         rdf:about="">
        <cc:license
           rdf:resource="http://creativecommons.org/publicdomain/zero/1.0/" />
        <dc:title>Cat walking</dc:title>
      </cc:Work>
    </rdf:RDF>
  </metadata>
</svg>
