<?xml version="1.0" encoding="UTF-8" standalone="no"?>
<!-- Created with Inkscape (http://www.inkscape.org/) -->

<svg
   width="1500"
   height="500"
   viewBox="0 0 1500 500"
   version="1.1"
   id="svg5"
   sodipodi:docname="dachshund.svg"
   inkscape:version="1.2.2 (b0a8486541, 2022-12-01)"
   xmlns:inkscape="http://www.inkscape.org/namespaces/inkscape"
   xmlns:sodipodi="http://sodipodi.sourceforge.net/DTD/sodipodi-0.dtd"
   xmlns:xlink="http://www.w3.org/1999/xlink"
   xmlns="http://www.w3.org/2000/svg"
   xmlns:svg="http://www.w3.org/2000/svg">
  <sodipodi:namedview
     id="namedview7"
     pagecolor="#505050"
     bordercolor="#eeeeee"
     borderopacity="1"
     inkscape:showpageshadow="0"
     inkscape:pageopacity="0"
     inkscape:pagecheckerboard="0"
     inkscape:deskcolor="#505050"
     inkscape:document-units="px"
     showgrid="false"
     inkscape:zoom="0.73651372"
     inkscape:cx="862.16996"
     inkscape:cy="3.3943699"
     inkscape:current-layer="layer4" />
  <defs
     id="defs2">
    <inkscape:perspective
       sodipodi:type="inkscape:persp3d"
       inkscape:vp_x="0 : 250 : 1"
       inkscape:vp_y="0 : 1000 : 0"
       inkscape:vp_z="1500 : 250 : 1"
       inkscape:persp3d-origin="750 : 166.66667 : 1"
       id="perspective4875" />
    <linearGradient
       inkscape:collect="always"
       id="linearGradient2830">
      <stop
         style="stop-color:#be4e00;stop-opacity:0.75"
         offset="0"
         id="stop2826" />
      <stop
         style="stop-color:#cb5700;stop-opacity:0;"
         offset="1"
         id="stop2828" />
    </linearGradient>
    <linearGradient
       inkscape:collect="always"
       id="linearGradient1168">
      <stop
         style="stop-color:#be4e00;stop-opacity:1;"
         offset="0"
         id="stop1164" />
      <stop
         style="stop-color:#cb5700;stop-opacity:0;"
         offset="1"
         id="stop1166" />
    </linearGradient>
    <inkscape:path-effect
       effect="envelope"
       id="path-effect607"
       is_visible="true"
       lpeversion="1"
       yy="true"
       xx="true"
       bendpath1="m 1152.4908,407.2133 c 31.5378,-7.6491 65.0957,-8.15594 101.1036,0"
       bendpath2="m 1253.5944,407.2133 v 17.11557"
       bendpath3="m 1152.4908,424.32887 c 37.0411,-22.42374 87.4855,-18.54606 101.1036,0"
       bendpath4="m 1152.4908,407.2133 v 17.11557"
       bendpath1-nodetypes="cc"
       bendpath3-nodetypes="cc" />
    <inkscape:path-effect
       effect="envelope"
       id="path-effect597"
       is_visible="true"
       lpeversion="1"
       yy="true"
       xx="true"
       bendpath1="m 1152.4908,407.2133 c 31.5378,-7.6491 65.0957,-8.15594 101.1036,0"
       bendpath2="m 1253.5944,407.2133 v 17.11557"
       bendpath3="m 1152.4908,424.32887 c 37.0411,-22.42374 87.4855,-18.54606 101.1036,0"
       bendpath4="m 1152.4908,407.2133 v 17.11557"
       bendpath1-nodetypes="cc"
       bendpath3-nodetypes="cc" />
    <filter
       style="color-interpolation-filters:sRGB;"
       inkscape:label="Feather"
       id="filter1011"
       x="-0.19945244"
       y="-0.076322747"
       width="1.3989049"
       height="1.1526455">
      <feGaussianBlur
         stdDeviation="3.75755"
         result="blur"
         id="feGaussianBlur1003" />
      <feComposite
         in="SourceGraphic"
         in2="blur"
         operator="atop"
         result="composite1"
         id="feComposite1005" />
      <feComposite
         in2="composite1"
         operator="in"
         result="composite2"
         id="feComposite1007" />
      <feComposite
         in2="composite2"
         operator="in"
         result="composite3"
         id="feComposite1009" />
    </filter>
    <filter
       style="color-interpolation-filters:sRGB;"
       inkscape:label="Feather"
       id="filter1091"
       x="-0.25864406"
       y="-0.45590554"
       width="1.5172881"
       height="1.9118111">
      <feGaussianBlur
         stdDeviation="3.60054"
         result="blur"
         id="feGaussianBlur1083" />
      <feComposite
         in="SourceGraphic"
         in2="blur"
         operator="atop"
         result="composite1"
         id="feComposite1085" />
      <feComposite
         in2="composite1"
         operator="in"
         result="composite2"
         id="feComposite1087" />
      <feComposite
         in2="composite2"
         operator="in"
         result="fbSourceGraphic"
         id="feComposite1089" />
      <feColorMatrix
         result="fbSourceGraphicAlpha"
         in="fbSourceGraphic"
         values="0 0 0 -1 0 0 0 0 -1 0 0 0 0 -1 0 0 0 0 1 0"
         id="feColorMatrix1115" />
      <feGaussianBlur
         id="feGaussianBlur1117"
         stdDeviation="5.9726"
         result="blur"
         in="fbSourceGraphic" />
      <feComposite
         in2="blur"
         id="feComposite1119"
         in="fbSourceGraphic"
         operator="atop"
         result="composite1" />
      <feComposite
         in2="composite1"
         id="feComposite1121"
         operator="in"
         result="composite2" />
      <feComposite
         in2="composite2"
         id="feComposite1123"
         operator="in"
         result="composite3" />
    </filter>
    <linearGradient
       inkscape:collect="always"
       xlink:href="#linearGradient1168"
       id="linearGradient1099"
       x1="1041.2065"
       y1="495.32318"
       x2="1000.2509"
       y2="425.06766"
       gradientUnits="userSpaceOnUse" />
    <linearGradient
       inkscape:collect="always"
       xlink:href="#linearGradient1168"
       id="linearGradient1152"
       x1="518.9541"
       y1="520.49756"
       x2="452.77316"
       y2="401.61639"
       gradientUnits="userSpaceOnUse" />
    <linearGradient
       inkscape:collect="always"
       xlink:href="#linearGradient2830"
       id="linearGradient1170"
       x1="1410.4801"
       y1="169.0983"
       x2="1227.8674"
       y2="137.66162"
       gradientUnits="userSpaceOnUse"
       gradientTransform="matrix(1,0,0,0.93198273,0,11.601016)" />
    <linearGradient
       inkscape:collect="always"
       xlink:href="#linearGradient1168"
       id="linearGradient1963"
       x1="619.19458"
       y1="327.33475"
       x2="671.81354"
       y2="222.99333"
       gradientUnits="userSpaceOnUse" />
    <filter
       style="color-interpolation-filters:sRGB;"
       inkscape:label="Feather"
       id="filter3262"
       x="-0.00014165564"
       y="-0.00033550133"
       width="1.0002833"
       height="1.000671">
      <feGaussianBlur
         stdDeviation="0.01"
         result="blur"
         id="feGaussianBlur3254" />
      <feComposite
         in="SourceGraphic"
         in2="blur"
         operator="atop"
         result="composite1"
         id="feComposite3256" />
      <feComposite
         in2="composite1"
         operator="in"
         result="composite2"
         id="feComposite3258" />
      <feComposite
         in2="composite2"
         operator="in"
         result="composite3"
         id="feComposite3260" />
    </filter>
    <linearGradient
       inkscape:collect="always"
       xlink:href="#linearGradient1168"
       id="linearGradient4715"
       gradientUnits="userSpaceOnUse"
       x1="518.9541"
       y1="520.49756"
       x2="452.77316"
       y2="401.61639"
       gradientTransform="translate(29.503414,-33.118994)" />
    <linearGradient
       inkscape:collect="always"
       xlink:href="#linearGradient1168"
       id="linearGradient4732"
       gradientUnits="userSpaceOnUse"
       x1="1041.2065"
       y1="495.32318"
       x2="1000.2509"
       y2="425.06766"
       gradientTransform="translate(13.761682,-15.725119)" />
  </defs>
  <g
     inkscape:label="Dachshund"
     inkscape:groupmode="layer"
     id="layer1">
    <g
       id="g1933"
       inkscape:label="Outline"
       style="stroke:none">
      <path
         id="path4721"
         style="fill:#060606;fill-opacity:1;stroke:#000000;stroke-width:3;stroke-dasharray:none;stroke-opacity:1"
         d="m 973.72286,332.50347 c -1.87407,25.61282 -5.22781,104.37517 11.23943,123.78043 25.14031,22.67789 143.53851,12.9975 48.80051,-15.06411 -10.219,-21.68035 -15.7573,-25.14634 -15.8186,-32.69497 -0.072,-8.81051 5.5494,-12.81959 22.8391,-84.37528 -14.3458,-71.62171 -39.0535,-88.44633 -67.06044,8.35393 z"
         sodipodi:nodetypes="cccscc"
         inkscape:label="Outline" />
      <path
         id="path4730"
         style="opacity:0.75;fill:url(#linearGradient4732);fill-opacity:1;stroke-width:1.6487"
         d="m 1015.451,407.9743 -40.2574,4.63064 c 0,0 -0.92071,23.20677 10.36803,43.38477 9.64117,10.33799 44.02897,13.00836 44.79577,13.10548 21.5057,1.64736 41.2753,-4.08596 39.4375,-8.19726 1.0247,-3.80429 -12.6272,-12.96051 -37.1628,-18.74352 2.1964,0.9008 -17.1811,-34.18011 -17.1811,-34.18011 z"
         sodipodi:nodetypes="ccccccc"
         inkscape:label="FrontFoot" />
      <path
         id="rect1454"
         style="opacity:1;fill:#060606;stroke:#000000;stroke-width:3.061"
         d="m 1138.8917,138.45767 c 5.8727,-16.49754 24.2225,38.29651 154.1925,14.38507 7.8524,7.85236 12.1946,6.8789 0.3543,15.91746 -9.039,8.22562 -140.3301,11.49185 -154.5468,3.0122 -7.8524,-7.85236 -7.8524,-25.46237 0,-33.31473 z"
         sodipodi:nodetypes="ccccc"
         inkscape:label="LowerJaw" />
      <path
         id="path3409"
         style="fill:#060606;fill-opacity:1;stroke:#000000;stroke-width:3;stroke-dasharray:none;stroke-opacity:1"
         d="m 465.9528,260.22532 c 15.0799,25.8357 21.0017,28.6773 20.88282,51.5547 -27.61675,11.5036 -66.5347,53.4869 -59.24821,81.84131 2.86664,11.1551 63.13047,37.6713 87.48333,56.5952 18.67144,14.5091 53.33168,2.4597 56.8761,-7.9074 1.8165,-49.2426 -87.60158,-37.5577 -71.07802,-73.65401 11.59776,-16.3486 23.50757,-21.8257 42.03125,-34.3301 21.66256,-14.6233 40.88718,-25.1688 56.88472,-77.4007 -10.71092,-82.47459 -75.7472,-81.28966 -133.83199,3.301 z"
         sodipodi:nodetypes="ccssccscc"
         inkscape:label="Outline" />
      <path
         id="path4713"
         style="opacity:0.7;mix-blend-mode:normal;fill:url(#linearGradient4715);fill-opacity:1;stroke:none;stroke-width:1.661"
         inkscape:label="BackFoot"
         d="m 570.19585,434.95208 c 5.65483,12.73325 -17.24032,21.50507 -36.52029,21.50507 -3.45588,0.59844 -10.24665,0.90627 -15.65988,-3.83485 -10.55717,-9.24639 -26.74589,-18.50919 -39.54813,-25.21247 -10.20258,-5.34208 -46.32836,-38.70641 -46.4119,-43.16288 0,-14.84121 51.62504,-22.9786 70.89571,-22.3797 3.67635,-0.22277 -14.97313,13.64829 0.42029,26.70715 4.35826,3.17651 9.51401,6.32515 16.1865,8.53735 2.77314,0.91941 5.49548,2.65278 8.63306,3.72784 31.25957,10.7107 40.03137,23.3923 42.00464,34.11249 z"
         sodipodi:nodetypes="ccsscccssc" />
      <path
         id="rect483"
         style="fill:#060606;fill-opacity:1;stroke:#000000;stroke-width:3;stroke-dasharray:none;stroke-opacity:1"
         d="m 1128.317,20.953417 c -39.3555,0.828069 -79.3438,24.95212 -81.0179,69.843803 -11.904,24.09896 -20.0748,34.22264 -55.59955,27.73437 -114.41568,-15.85438 -183.38612,-0.51425 -233.17983,2.89663 -135.71958,22.30463 -169.33093,-5.12977 -258.08536,-3.02658 -87.21804,6.5942 -188.62516,80.20072 -262.86988,181.69035 -36.76183,41.40502 -153.392572,97.10547 -153.392572,97.10547 0,0 116.032452,-27.07815 160.841792,-56.75391 47.50601,-31.46168 92.07782,-112.61334 142.16797,-123.73828 0.34344,48.82301 8.62484,44.26471 48.5957,76.92969 15.0799,25.83564 21.0017,28.67729 20.88282,51.55468 -27.61675,11.50357 -66.5347,53.48689 -59.24821,81.84125 2.86664,11.15514 63.13047,37.67136 87.48333,56.59526 18.67144,14.50905 53.33168,2.45967 56.8761,-7.90743 1.8165,-49.24258 -87.60158,-37.55774 -71.07802,-73.65399 11.59776,-16.34864 23.50757,-21.82568 42.03125,-34.33007 21.66256,-14.62329 40.88718,-25.16881 56.88472,-77.40075 142.74975,-12.68183 147.24727,64.61086 390.87548,58.61364 -1.87407,25.61282 -5.22781,104.37517 11.23943,123.78043 25.14026,22.67789 143.53853,12.9975 48.80053,-15.06411 -10.219,-21.68035 -15.7573,-25.14634 -15.8186,-32.69497 -0.072,-8.81051 5.5494,-12.81959 22.8391,-84.37528 51.1065,-3.46149 49.2579,-71.23079 21.5662,-135.81196 7.3564,-11.77069 12.0302,-13.28803 22.0059,-17.47878 26.5994,32.28246 56.052,52.40748 88.9413,52.40748 39.2887,0 39.617,-14.25871 40.9318,-79.99309 30.8917,1.27232 70.7501,13.20098 96.9564,11.16808 91.0262,-13.56296 21.4713,-70.00944 -27.7826,-77.74621 -21.7401,-5.00705 -28.7715,-6.944059 -43.3965,-8.287114 -20.6947,-43.84776 -60.2309,-64.702785 -98.4508,-63.898609 z"
         sodipodi:nodetypes="cccccccscccssccsccccscccsccccc"
         inkscape:label="Outline" />
      <path
         style="fill:none;stroke:#000000;stroke-width:3;stroke-dasharray:none;fill-opacity:1;stroke-opacity:1"
         d="m 510.05818,134.31792 c 79.99006,0.10857 96.66018,27.17664 59.32256,156.09769"
         id="path713"
         sodipodi:nodetypes="cc"
         inkscape:label="BackLegLine" />
      <rect
         style="opacity:1;fill:#2b1100;fill-opacity:1;stroke:#000000;stroke-width:0.197411;stroke-dasharray:none;stroke-opacity:1"
         id="rect4891"
         width="33.008736"
         height="122.4719"
         x="877.84674"
         y="619.59259"
         transform="matrix(0.85773805,-0.514087,0.4119373,0.91121219,0,0)"
         ry="14.425964"
         rx="7.7383676"
         inkscape:label="Collar" />
      <path
         style="opacity:1;fill:#060606;fill-opacity:1;stroke:#000000;stroke-width:3.061;stroke-dasharray:none;stroke-opacity:1"
         d="m 1201.0378,159.17095 c 0,0 -25.8621,-109.924223 -42.4984,-123.68799 -16.6364,-13.763767 -64.8677,0.865658 -85.2764,24.656943 -32.2854,55.044757 -5.2313,134.743307 33.9005,162.073807 17.404,12.10265 39.9224,14.0201 39.9224,14.0201 0,0 35.7334,5.8225 45.6112,-9.80438 9.8779,-15.62688 8.3407,-67.25848 8.3407,-67.25848 z"
         id="path1273"
         sodipodi:nodetypes="cccccsc"
         inkscape:label="EarLine" />
    </g>
    <g
       inkscape:groupmode="layer"
       id="layer2"
       inkscape:label="Shading">
      <path
         id="path398"
         style="opacity:0.7;fill:#803300;stroke-width:1.661;filter:url(#filter1011)"
         d="m 1052.6004,225.26453 c 24.9042,49.56282 30.6999,105.17813 -21.87,112.22853 -15.2915,-2.60037 9.184,2.96276 18.5358,-26.61918 9.4897,-42.42154 -10.1012,-112.34758 3.3342,-85.60935 z"
         sodipodi:nodetypes="sccs"
         inkscape:label="Chest" />
      <path
         id="path184"
         style="opacity:0.75;fill:url(#linearGradient1099);stroke-width:1.6487;fill-opacity:1"
         d="m 1001.6893,423.69942 -40.25739,4.63064 c 0,0 -0.92071,23.20677 10.36803,43.38477 9.64118,10.33799 44.02896,13.00836 44.79576,13.10548 21.5057,1.64736 41.2753,-4.08596 39.4375,-8.19726 1.0247,-3.80429 -12.6272,-12.96051 -37.1628,-18.74352 2.1964,0.9008 -17.1811,-34.18011 -17.1811,-34.18011 z"
         sodipodi:nodetypes="ccccccc"
         inkscape:label="FrontFoot" />
      <path
         id="path1141"
         style="opacity:0.7;mix-blend-mode:normal;fill:url(#linearGradient1152);fill-opacity:1;stroke-width:1.661"
         inkscape:label="BackFoot"
         d="m 540.69243,468.07108 c 5.65483,12.73325 -17.24032,21.50507 -36.52029,21.50507 -3.45588,0.59844 -10.24665,0.90627 -15.65988,-3.83485 -10.55717,-9.24639 -26.74589,-18.50919 -39.54813,-25.21247 -10.20258,-5.34208 -46.32836,-38.70641 -46.4119,-43.16288 0,-14.84121 51.62504,-22.9786 70.89571,-22.3797 3.67635,-0.22277 -14.97313,13.64829 0.42029,26.70715 4.35826,3.17651 9.51401,6.32515 16.1865,8.53735 2.77314,0.91941 5.49548,2.65278 8.63306,3.72784 31.25957,10.7107 40.03137,23.3923 42.00464,34.11249 z"
         sodipodi:nodetypes="ccsscccssc" />
      <path
         id="path1160"
         style="opacity:0.75;fill:url(#linearGradient1170);fill-opacity:1;stroke-width:1.64117"
         d="m 1324.5545,122.89148 c 10.1183,6.2522 22.3647,21.56151 11.2184,35.00396 -17.6766,10.25306 -18.9694,7.57805 -31.4986,10.75434 -7.07,2.39149 -14.0663,2.1424 -21.3688,1.3689 -38.0372,-4.61649 -35.8935,-5.23009 -52.3635,-7.49468 -14.3908,-22.75111 31.2124,-7.52392 31.2124,-26.93613 0,-19.41221 -6.3237,-17.81517 -0.855,-26.21256 9.723,-0.99315 16.7002,-15.144899 63.6551,13.51617 z"
         inkscape:label="Nose"
         sodipodi:nodetypes="cccccccc" />
      <path
         id="path1954"
         style="opacity:0.75;fill:url(#linearGradient1963);fill-opacity:1;stroke-width:1.7;filter:url(#filter3262)"
         d="m 732.0431,267.61809 c 9.02702,7.17937 13.3229,37.57073 -5.83155,42.21419 -17.91556,5.78807 -4.70312,0.0553 -75.07533,-16.9725 -18.43812,-2.15612 -38.92539,-7.23472 -80.8579,-3.25019 0.91673,-3.65293 2.36992,-9.65482 4.79904,-16.35274 3.43059,-16.13209 5.68973,-32.77477 52.64534,-32.77477 46.95561,0 79.68676,7.71486 104.3204,27.13601 z"
         sodipodi:nodetypes="ccccccc"
         inkscape:label="Belly" />
      <g
         inkscape:groupmode="layer"
         id="layer5"
         inkscape:label="NoseHairs">
        <path
           style="opacity:1;fill:none;fill-opacity:1;stroke:#000000;stroke-width:0.3;stroke-dasharray:none;stroke-opacity:1"
           d="m 1325.2689,152.35405 c -3.1712,11.69612 -0.9659,3.32452 -3.4088,13.09472 -0.3444,1.37729 -0.7053,2.69326 -0.9738,4.08902 -0.212,1.10212 -0.3892,2.19132 -0.3892,3.30979 0,0.20558 0.026,0.55437 0.224,0.55437"
           id="path2824" />
        <path
           style="opacity:1;fill:none;fill-opacity:1;stroke:#000000;stroke-width:0.3;stroke-dasharray:none;stroke-opacity:1"
           d="m 1323.7148,145.52561 c -0.9283,2.51488 -2.4878,4.72945 -3.561,7.17395 -1.3017,2.96481 -1.8093,7.43614 -1.5576,10.70946 0.1042,1.3556 0.587,2.64854 0.7788,3.99172 0.06,0.42357 -0.01,0.84484 0.097,1.26528 0.097,0.38944 0.361,0.8243 0.361,1.15501"
           id="path2822" />
        <path
           style="opacity:1;fill:none;fill-opacity:1;stroke:#000000;stroke-width:0.3;stroke-dasharray:none;stroke-opacity:1"
           d="m 1318.5235,149.27128 c -1.8081,2.29849 -3.9161,4.38999 -5.4243,6.89547 -1.1462,1.90389 -0.9232,3.05255 -1.1685,4.77052 -0.2633,1.84431 -0.4621,3.77325 -0.2918,5.64662 0.042,0.45925 0.2179,0.82175 0.2918,1.26571 0.053,0.31665 0.1982,2.04408 0.4567,2.04408"
           id="path2820" />
        <path
           style="opacity:1;fill:none;fill-opacity:1;stroke:#000000;stroke-width:0.3;stroke-dasharray:none;stroke-opacity:1"
           d="m 1317.3015,156.70988 c -2.2409,2.26956 -4.1893,4.12397 -6.0453,6.94692 -0.4066,0.61834 -0.4004,1.42499 -0.5842,2.14181 -0.4857,1.8934 -0.6815,3.70399 -0.6815,5.64661 0,0.37257 -0.061,0.80136 0,1.16842 0.1275,0.76609 0.5137,1.48368 0.6815,2.2391 0.043,0.19272 0.031,0.39828 0.097,0.58421 0.1562,0.43764 0.3585,0.85955 0.5843,1.26571 0.1826,0.32871 0.3891,0.41596 0.3891,0.77794"
           id="path2818" />
        <path
           style="opacity:1;fill:none;fill-opacity:1;stroke:#000000;stroke-width:0.3;stroke-dasharray:none;stroke-opacity:1"
           d="m 1309.8759,159.03503 c -1.3319,2.30267 -3.003,4.44006 -3.9957,6.90801 -0.685,1.70313 -0.6943,4.92497 -0.5842,7.00962 0.1747,3.30568 0.012,-0.91425 0.1951,1.4603 0,0.0583 -0.048,2.38371 0,2.4337 0.022,0.0225 0.071,-0.0213 0.093,0 0.1147,0.10742 0.2128,0.7995 0.3217,0.69058"
           id="path2816" />
        <path
           style="opacity:1;fill:none;fill-opacity:1;stroke:#000000;stroke-width:0.3;stroke-dasharray:none;stroke-opacity:1"
           d="m 1312.3895,150.36402 c -10.1665,11.2959 -9.0727,6.33767 -10.7103,16.45727 -0.097,0.59971 -0.055,2.01977 0.097,2.62872 0.1593,0.63699 0,0.0166 0.1907,0.19459 0.1986,0.18949 0.2544,0.61759 0.3676,0.84237 0.041,0.0815 0.1468,0.11504 0.1937,0.19329 0.2243,0.37441 0.271,0.75519 0.3883,1.16626 0.045,0.15813 0.195,0.337 0.195,0.48691"
           id="path2814" />
        <path
           style="opacity:1;fill:none;fill-opacity:1;stroke:#000000;stroke-width:0.3;stroke-dasharray:none;stroke-opacity:1"
           d="m 1306.5903,147.66785 c -0.9736,0.71408 -1.9793,1.38625 -2.9206,2.14224 -4.0951,3.28872 -2.597,2.20782 -5.7439,5.3543 -0.3375,0.3374 -1.0174,0.85086 -1.363,1.26571 -0.6,0.72011 -1.1409,1.60157 -1.5581,2.43412 -0.116,0.23158 0.033,0.52021 0,0.77707 -0.083,0.63655 -0.4713,1.8159 -0.5842,2.2391 -1.0077,3.77902 0.2279,-1.23723 -0.6819,2.9232 -0.3306,1.51153 -0.7252,2.97402 -0.7875,4.53226 -0.022,0.55119 0,1.10326 0,1.6549 0,0.0973 -0.094,0.31546 0,0.29188 0.1403,-0.035 0.2586,-0.12944 0.3879,-0.19416"
           id="path2812" />
        <path
           style="opacity:1;fill:none;fill-opacity:1;stroke:#000000;stroke-width:0.3;stroke-dasharray:none;stroke-opacity:1"
           d="m 1314.0189,143.15591 c -1.1139,0.42776 -2.337,0.43702 -3.5048,0.68151 -2.7571,0.57723 -7.0305,1.21611 -9.3473,3.0179 -0.2898,0.22538 -0.5072,0.53183 -0.7788,0.7788 -0.4428,0.40255 -0.9071,0.78077 -1.363,1.16841 -0.8566,0.72837 -1.8642,1.2291 -2.726,1.94722 -0.7757,0.64632 -1.3901,1.46779 -2.1418,2.1418 -0.5661,0.50757 -1.1718,0.96916 -1.7522,1.46031 -1.136,0.96126 -2.1419,2.10478 -3.0184,3.31022 -0.054,0.075 -0.825,1.01513 -0.876,1.16841 -0.07,0.21082 0.2064,0.0519 0.2473,0.0113"
           id="path2810" />
        <ellipse
           style="opacity:1;fill:#060606;fill-opacity:1;stroke:none;stroke-width:3.061;stroke-dasharray:none;stroke-opacity:1"
           id="path2636"
           cx="1314.1892"
           cy="143.43384"
           rx="0.67457801"
           ry="0.73058796" />
        <ellipse
           style="opacity:1;fill:#060606;fill-opacity:1;stroke:none;stroke-width:3.061;stroke-dasharray:none;stroke-opacity:1"
           id="ellipse2650"
           cx="1325.2637"
           cy="152.28874"
           rx="0.67457801"
           ry="0.73058796" />
        <ellipse
           style="opacity:1;fill:#060606;fill-opacity:1;stroke:none;stroke-width:3.061;stroke-dasharray:none;stroke-opacity:1"
           id="ellipse2648"
           cx="1317.0391"
           cy="156.72063"
           rx="0.67457801"
           ry="0.73058796" />
        <ellipse
           style="opacity:1;fill:#060606;fill-opacity:1;stroke:none;stroke-width:3.061;stroke-dasharray:none;stroke-opacity:1"
           id="ellipse2646"
           cx="1309.9861"
           cy="158.88333"
           rx="0.67457801"
           ry="0.73058796" />
        <ellipse
           style="opacity:1;fill:#060606;fill-opacity:1;stroke:none;stroke-width:3.061;stroke-dasharray:none;stroke-opacity:1"
           id="ellipse2644"
           cx="1306.6417"
           cy="148.24754"
           rx="0.67457801"
           ry="0.73058796" />
        <ellipse
           style="opacity:1;fill:#060606;fill-opacity:1;stroke:none;stroke-width:3.061;stroke-dasharray:none;stroke-opacity:1"
           id="ellipse2642"
           cx="1323.7349"
           cy="145.45998"
           rx="0.67457801"
           ry="0.73058796" />
        <ellipse
           style="opacity:1;fill:#060606;fill-opacity:1;stroke:none;stroke-width:3.061;stroke-dasharray:none;stroke-opacity:1"
           id="ellipse2640"
           cx="1312.2223"
           cy="150.25038"
           rx="0.67457801"
           ry="0.73058796" />
        <ellipse
           style="opacity:1;fill:#060606;fill-opacity:1;stroke:none;stroke-width:3.061;stroke-dasharray:none;stroke-opacity:1"
           id="ellipse2638"
           cx="1318.774"
           cy="148.85893"
           rx="0.67457801"
           ry="0.73058796" />
      </g>
    </g>
    <g
       inkscape:groupmode="layer"
       id="layer3"
       inkscape:label="Features">
      <path
         id="path1173"
         style="opacity:1;fill:#000000;stroke-width:1.14829"
         inkscape:label="Nose"
         d="m 1342.117,143.28895 c -0.2694,2.36099 -2.8782,4.36872 -4.0945,4.07713 -9.1484,-0.97318 -21.5917,-9.40748 -20.4914,-17.30922 -0,-3.71142 2.5516,-10.48252 4.5666,-10.73314 9.1484,0.9732 21.1197,16.06353 20.0193,23.96523 z"
         sodipodi:nodetypes="ccccc" />
      <g
         inkscape:groupmode="layer"
         id="layer4"
         inkscape:label="Eye">
        <path
           id="path1966"
           style="opacity:0.75;fill:#f9f9f9;stroke-width:1.19549"
           inkscape:label="Eye"
           d="m 1206.0924,82.790494 c -6.5754,5.948449 -17.2241,-0.339942 -17.8866,-4.713424 -0.692,-4.568307 5.8211,-5.243939 11.9265,-4.922159 4.9525,0.261028 6.4812,3.044351 6.4812,3.044351 -1.4837,1.354603 2.2927,1.338819 -0.5211,6.591232 z"
           sodipodi:nodetypes="csscc" />
        <path
           id="path2443"
           style="opacity:1;fill:#2b1100;stroke-width:0.831349"
           d="m 1206.5875,83.902298 c -2.9015,2.418791 -7.3659,2.89835 -11.4417,0.515852 -4.0759,-2.382485 -4.5963,-6.682095 -1.6949,-9.100887 2.9013,-2.418791 7.2502,-3.682205 11.3261,-1.299708 4.0758,2.382486 4.7118,7.46595 1.8105,9.884743 z"
           sodipodi:nodetypes="ccccc"
           inkscape:label="EyeBrown" />
        <path
           id="path2502"
           style="opacity:1;stroke-width:0.669885"
           inkscape:label="EyePupil"
           d="m 1209.3659,79.284594 c 0,2.31946 -1.3627,4.023062 -3.8629,4.023054 -2.5002,8e-6 -4.5704,-2.099264 -4.5704,-4.418724 0,-2.319459 1.237,-3.36756 3.7372,-3.367552 2.5002,-8e-6 4.6961,1.443763 4.6961,3.763222 z"
           sodipodi:nodetypes="sssss" />
        <ellipse
           style="opacity:1;fill:#ffffff;fill-opacity:1;stroke:none;stroke-width:0.0393994;stroke-dasharray:none;stroke-opacity:1"
           id="path5978"
           cx="-875.0802"
           cy="1396.2889"
           rx="1.1018726"
           ry="0.38393813"
           transform="matrix(-0.06485261,-0.99789485,0.8218832,-0.56965604,0,0)" />
      </g>
    </g>
    <g
       id="g4727"
       inkscape:label="Outline"
       style="stroke:none"
       transform="translate(296.35063,657.54972)" />
    <ellipse
       style="opacity:1;fill:#ffffff;fill-opacity:1;stroke:none;stroke-width:0.39514;stroke-dasharray:none;stroke-opacity:1"
       id="path6032"
       cx="1204.2863"
       cy="79.866936"
       rx="0.34690705"
       ry="0.39762023" />
    <path
       id="path6196"
       style="opacity:1;fill:#666666;fill-opacity:1;stroke:none;stroke-width:0.134766;stroke-dasharray:none;stroke-opacity:1"
       d="m 1082.6158,208.69452 c 5.7784,10.23885 0.2461,14.31257 -4.9649,17.02192 -4.8645,2.5098 -11.8404,3.94221 -15.3678,-5.33193 -0.185,1.54336 0.01,3.01433 0.5701,4.31385 2.1674,5.02187 9.1824,6.36564 15.6684,3.00133 6.4854,-3.36443 9.9853,-10.16233 7.8174,-15.18359 -0.7154,-1.65703 -2.0037,-2.97798 -3.7232,-3.82158 z"
       sodipodi:nodetypes="ccccccc" />
    <path
       id="path6625"
       style="opacity:1;fill:#000000;fill-opacity:1;stroke:none;stroke-width:0.0898541;stroke-dasharray:none;stroke-opacity:1"
       d="m 1069.3843,456.53791 c 4.0259,1.7046 6.1936,5.67473 4.8417,8.86737 -0.033,0.0769 -0.075,0.14938 -0.1151,0.22294 0.3464,-2.85374 -1.8632,-5.93132 -5.3091,-7.39461 -3.793,-1.60582 -8.7473,1.79749 -10.5543,1.66227 0.9877,-5.57584 7.6597,-4.77826 11.137,-3.35789 z"
       sodipodi:nodetypes="ccccccc" />
    <path
       id="path6630"
       style="opacity:1;fill:#000000;fill-opacity:1;stroke:none;stroke-width:0.0898541;stroke-dasharray:none;stroke-opacity:1"
       d="m 1065.6989,459.97604 c 4.0259,1.7046 6.1936,5.67473 4.8417,8.86737 -0.033,0.0769 -0.075,0.14938 -0.1151,0.22294 0.3464,-2.85374 -1.8632,-5.93132 -5.3091,-7.39461 -3.793,-1.60582 -8.7473,1.79749 -10.5543,1.66227 0.9877,-5.57584 7.6597,-4.77826 11.137,-3.35789 z"
       sodipodi:nodetypes="ccccccc" />
    <path
       id="path6632"
       style="opacity:1;fill:#000000;fill-opacity:1;stroke:none;stroke-width:0.0898541;stroke-dasharray:none;stroke-opacity:1"
       d="m 1058.103,462.31237 c 4.0259,1.7046 6.1936,5.67473 4.8417,8.86737 -0.033,0.0769 -0.075,0.14938 -0.1151,0.22294 0.3464,-2.85374 -1.8632,-5.93132 -5.3091,-7.39461 -3.793,-1.60582 -8.7473,1.79749 -10.5543,1.66227 0.9877,-5.57584 7.6597,-4.77826 11.137,-3.35789 z"
       sodipodi:nodetypes="ccccccc" />
    <path
       id="path6634"
       style="opacity:1;fill:#000000;fill-opacity:1;stroke:none;stroke-width:0.0898541;stroke-dasharray:none;stroke-opacity:1"
       d="m 1054.6708,472.28752 c 4.0259,1.7046 6.1936,5.67473 4.8417,8.86737 -0.033,0.0769 -0.075,0.14938 -0.1151,0.22294 0.3464,-2.85374 -1.8632,-5.93132 -5.3091,-7.39461 -3.793,-1.60582 -8.7473,1.79749 -10.5543,1.66227 0.9877,-5.57584 7.6597,-4.77826 11.137,-3.35789 z"
       sodipodi:nodetypes="ccccccc" />
    <path
       id="path6636"
       style="opacity:1;fill:#000000;fill-opacity:1;stroke:none;stroke-width:0.0898541;stroke-dasharray:none;stroke-opacity:1"
       d="m 1050.6152,476.33747 c 4.0259,1.7046 6.1936,5.67473 4.8417,8.86737 -0.033,0.0769 -0.075,0.14938 -0.1151,0.22294 0.3464,-2.85374 -1.8632,-5.93132 -5.3091,-7.39461 -3.793,-1.60582 -8.7473,1.79749 -10.5543,1.66227 0.9877,-5.57584 7.6597,-4.77826 11.137,-3.35789 z"
       sodipodi:nodetypes="ccccccc" />
    <path
       id="path6638"
       style="opacity:1;fill:#000000;fill-opacity:1;stroke:none;stroke-width:0.0898541;stroke-dasharray:none;stroke-opacity:1"
       d="m 1042.6399,478.61737 c 4.0259,1.7046 6.1936,5.67473 4.8417,8.86737 -0.033,0.0769 -0.075,0.14938 -0.1151,0.22294 0.3464,-2.85374 -1.8632,-5.93132 -5.3091,-7.39461 -3.793,-1.60582 -8.7473,1.79749 -10.5543,1.66227 0.9877,-5.57584 7.6597,-4.77826 11.137,-3.35789 z"
       sodipodi:nodetypes="ccccccc" />
    <path
       id="path6640"
       style="opacity:1;fill:#000000;fill-opacity:1;stroke:none;stroke-width:0.0898541;stroke-dasharray:none;stroke-opacity:1"
       d="m 571.7667,436.71355 c 4.0259,1.7046 6.1936,5.67473 4.8417,8.86737 -0.033,0.0769 -0.075,0.14938 -0.1151,0.22294 0.3464,-2.85374 -1.8632,-5.93132 -5.3091,-7.39461 -3.793,-1.60582 -8.7473,1.79749 -10.5543,1.66227 0.9877,-5.57584 7.6597,-4.77826 11.137,-3.35789 z"
       sodipodi:nodetypes="ccccccc" />
    <path
       id="path6642"
       style="opacity:1;fill:#000000;fill-opacity:1;stroke:none;stroke-width:0.0898541;stroke-dasharray:none;stroke-opacity:1"
       d="m 565.86156,442.8272 c 4.0259,1.7046 6.1936,5.67473 4.8417,8.86737 -0.033,0.0769 -0.075,0.14938 -0.1151,0.22294 0.3464,-2.85374 -1.8632,-5.93132 -5.3091,-7.39461 -3.793,-1.60582 -8.7473,1.79749 -10.5543,1.66227 0.9877,-5.57584 7.6597,-4.77826 11.137,-3.35789 z"
       sodipodi:nodetypes="ccccccc" />
    <path
       id="path6644"
       style="opacity:1;fill:#000000;fill-opacity:1;stroke:none;stroke-width:0.0898541;stroke-dasharray:none;stroke-opacity:1"
       d="m 556.08447,447.01795 c 4.0259,1.7046 6.1936,5.67473 4.8417,8.86737 -0.033,0.0769 -0.075,0.14938 -0.1151,0.22294 0.3464,-2.85374 -1.8632,-5.93132 -5.3091,-7.39461 -3.793,-1.60582 -8.7473,1.79749 -10.5543,1.66227 0.9877,-5.57584 7.6597,-4.77826 11.137,-3.35789 z"
       sodipodi:nodetypes="ccccccc" />
    <path
       id="path6646"
       style="opacity:1;fill:#000000;fill-opacity:1;stroke:none;stroke-width:0.0898541;stroke-dasharray:none;stroke-opacity:1"
       d="m 540.74303,471.52167 c 4.0259,1.7046 6.1936,5.67473 4.8417,8.86737 -0.033,0.0769 -0.075,0.14938 -0.1151,0.22294 0.3464,-2.85374 -1.8632,-5.93132 -5.3091,-7.39461 -3.793,-1.60582 -8.7473,1.79749 -10.5543,1.66227 0.9877,-5.57584 7.6597,-4.77826 11.137,-3.35789 z"
       sodipodi:nodetypes="ccccccc" />
    <path
       id="path6648"
       style="opacity:1;fill:#000000;fill-opacity:1;stroke:none;stroke-width:0.0898541;stroke-dasharray:none;stroke-opacity:1"
       d="m 534.19754,477.18374 c 4.0259,1.7046 6.1936,5.67473 4.8417,8.86737 -0.033,0.0769 -0.075,0.14938 -0.1151,0.22294 0.3464,-2.85374 -1.8632,-5.93132 -5.3091,-7.39461 -3.793,-1.60582 -8.7473,1.79749 -10.5543,1.66227 0.9877,-5.57584 7.6597,-4.77826 11.137,-3.35789 z"
       sodipodi:nodetypes="ccccccc" />
    <path
       id="path6650"
       style="opacity:1;fill:#000000;fill-opacity:1;stroke:none;stroke-width:0.0898541;stroke-dasharray:none;stroke-opacity:1"
       d="m 525.18808,480.67796 c 4.0259,1.7046 6.1936,5.67473 4.8417,8.86737 -0.033,0.0769 -0.075,0.14938 -0.1151,0.22294 0.3464,-2.85374 -1.8632,-5.93132 -5.3091,-7.39461 -3.793,-1.60582 -8.7473,1.79749 -10.5543,1.66227 0.9877,-5.57584 7.6597,-4.77826 11.137,-3.35789 z"
       sodipodi:nodetypes="ccccccc" />
  </g>
</svg>
