<?xml version="1.0" encoding="UTF-8" ?>
<!DOCTYPE svg PUBLIC "-//W3C//DTD SVG 1.1//EN" "http://www.w3.org/Graphics/SVG/1.1/DTD/svg11.dtd">
<svg width="286pt" height="248pt" viewBox="0 0 286 248" version="1.1" xmlns="http://www.w3.org/2000/svg">
<g id="#070707ff">
<path fill="#070707" opacity="1.00" d=" M 0.00 0.00 L 0.30 0.00 C 0.23 0.06 0.08 0.19 0.00 0.25 L 0.00 0.00 Z" />
<path fill="#070707" opacity="1.00" d=" M 85.44 50.83 C 85.80 50.57 86.53 50.04 86.89 49.78 C 87.12 50.07 87.60 50.65 87.83 50.93 L 87.71 51.72 L 86.89 52.11 L 85.78 52.13 C 85.70 51.81 85.53 51.16 85.44 50.83 Z" />
<path fill="#070707" opacity="1.00" d=" M 142.00 92.80 C 144.42 92.76 145.22 94.78 145.10 96.79 L 146.73 97.18 C 146.77 97.74 146.84 98.85 146.88 99.41 C 144.86 98.28 143.74 101.70 141.87 99.90 C 139.95 99.64 137.72 100.39 136.31 98.68 C 136.83 96.58 139.15 96.45 140.88 95.96 C 141.06 96.17 141.42 96.60 141.60 96.81 C 141.41 96.11 141.02 94.70 140.82 93.99 L 143.27 95.26 L 142.00 92.80 Z" />
<path fill="#070707" opacity="1.00" d=" M 178.15 103.08 L 179.17 102.70 L 180.17 103.05 C 180.34 104.43 179.73 105.01 178.32 104.77 L 177.87 103.98 L 178.15 103.08 Z" />
<path fill="#070707" opacity="1.00" d=" M 214.37 151.23 C 214.27 149.29 214.32 147.24 215.77 145.76 C 217.35 145.61 219.15 145.53 220.32 146.85 C 220.93 148.41 219.66 149.93 219.19 151.38 C 217.64 152.10 215.95 151.51 214.37 151.23 Z" />
<path fill="#070707" opacity="1.00" d=" M 208.15 162.57 C 209.44 162.61 210.75 162.56 212.01 162.89 C 211.85 163.50 211.55 164.73 211.39 165.35 C 209.39 166.76 207.41 164.69 208.15 162.57 Z" />
<path fill="#070707" opacity="1.00" d=" M 65.82 230.91 C 66.76 230.38 67.72 230.37 68.70 230.88 L 68.45 231.70 C 67.94 231.73 66.92 231.79 66.41 231.82 L 65.82 230.91 Z" />
<path fill="#070707" opacity="1.00" d=" M 64.26 232.24 C 64.65 231.91 65.43 231.24 65.82 230.91 C 65.82 231.49 65.83 232.64 65.83 233.21 C 65.69 233.46 65.42 233.97 65.28 234.22 C 64.98 233.97 64.39 233.47 64.09 233.22 L 64.26 232.24 Z" />
</g>
<g id="#ffffffff">
<path fill="#ffffff" opacity="1.00" d=" M 41.03 31.13 L 41.70 31.14 L 41.70 31.81 L 41.03 31.80 L 41.03 31.13 Z" />
<path fill="#ffffff" opacity="1.00" d=" M 78.74 39.34 C 79.83 38.24 80.86 37.08 81.98 36.01 C 81.66 36.60 81.01 37.78 80.68 38.37 C 83.60 42.00 82.75 47.20 85.44 50.83 C 85.53 51.16 85.70 51.81 85.78 52.13 C 85.60 54.13 85.46 56.14 85.43 58.15 C 85.81 58.25 86.56 58.46 86.93 58.56 C 85.02 58.02 84.22 59.98 83.02 61.03 C 81.70 61.51 80.41 62.06 79.09 62.56 C 78.94 60.55 78.94 58.54 79.04 56.53 C 79.69 55.35 79.82 53.99 80.04 52.69 C 79.56 52.64 78.59 52.55 78.11 52.51 C 78.63 52.41 79.67 52.22 80.18 52.13 C 78.96 50.34 77.58 48.67 76.16 47.04 C 74.90 47.40 73.99 48.17 73.43 49.34 C 72.68 49.06 71.94 48.75 71.20 48.45 C 74.66 49.25 74.80 45.04 74.93 42.66 C 75.65 43.51 73.99 46.62 76.06 45.43 C 77.24 43.54 77.94 41.41 78.74 39.34 Z" />
</g>
<g id="#202020ff">
<path fill="#202020" opacity="1.00" d=" M 40.80 11.78 C 45.67 12.02 50.55 11.47 55.41 11.90 C 57.81 12.95 60.20 14.05 62.86 14.18 C 63.99 15.45 64.39 17.17 65.30 18.59 C 65.99 18.66 67.37 18.79 68.06 18.86 C 69.44 18.63 69.62 20.57 70.81 20.79 C 74.75 21.29 79.15 23.61 80.46 27.57 C 78.58 27.88 79.78 29.52 79.94 30.72 C 78.63 31.30 77.09 31.49 76.07 32.59 C 76.77 32.76 78.17 33.12 78.87 33.29 C 78.90 33.62 78.96 34.29 78.98 34.63 C 77.43 34.47 75.87 34.57 74.75 35.81 C 73.15 37.41 70.86 37.33 68.79 37.69 C 67.58 38.89 66.39 40.24 64.50 39.99 C 64.45 37.46 64.50 34.94 64.32 32.41 C 64.90 31.75 65.48 31.09 66.06 30.44 C 65.53 30.30 64.46 30.02 63.92 29.88 C 63.26 27.56 64.99 25.59 65.03 23.34 C 64.52 23.18 63.52 22.85 63.02 22.69 C 61.49 22.10 59.97 21.47 58.59 20.58 C 59.73 18.65 63.76 19.70 63.04 16.86 C 58.76 14.66 53.85 13.22 49.01 13.93 C 45.73 13.91 41.84 12.53 39.18 15.16 C 35.44 17.47 32.05 20.38 29.46 23.95 C 29.23 25.24 29.22 26.57 28.92 27.85 C 27.25 30.13 24.75 31.61 22.19 32.71 C 21.95 32.69 21.46 32.67 21.21 32.65 C 20.90 32.38 20.28 31.83 19.96 31.56 C 21.80 30.08 24.43 30.00 26.00 28.12 C 28.04 26.94 27.31 24.40 27.66 22.46 C 31.57 18.39 35.78 14.44 40.80 11.78 M 64.37 20.40 C 64.30 20.70 64.14 21.32 64.06 21.62 C 66.73 21.66 65.90 24.28 66.11 26.09 C 68.21 25.14 68.05 21.97 68.01 19.95 C 66.78 20.00 65.57 20.15 64.37 20.40 M 69.09 24.40 C 67.66 24.95 67.89 26.80 67.66 28.01 C 67.69 30.98 64.88 33.11 64.97 36.07 C 66.64 35.13 67.61 33.32 68.66 31.77 C 69.07 29.19 69.72 26.65 69.98 24.06 L 69.09 24.40 M 65.24 27.25 L 65.25 27.76 L 65.76 27.76 L 65.76 27.24 L 65.24 27.25 Z" />
</g>
<g id="#fdfdfdff">
<path fill="#fdfdfd" opacity="1.00" d=" M 39.18 15.16 C 41.84 12.53 45.73 13.91 49.01 13.93 C 53.85 13.22 58.76 14.66 63.04 16.86 C 61.02 16.89 59.00 16.88 56.98 16.86 C 55.75 16.74 54.57 16.90 53.44 17.35 C 53.33 18.81 53.36 20.28 53.42 21.75 C 54.52 21.29 55.58 20.71 56.71 20.33 C 58.08 21.22 59.42 22.16 60.72 23.16 C 61.70 25.68 60.99 28.45 60.23 30.93 C 56.88 30.80 54.07 32.63 51.78 34.89 C 50.82 34.83 49.88 34.65 48.97 34.32 L 48.75 33.12 C 48.19 30.55 49.36 28.14 51.85 27.21 C 53.20 26.37 53.25 25.45 51.99 24.46 C 50.70 24.32 49.39 24.15 48.10 24.35 C 46.84 25.09 45.95 26.29 44.90 27.28 C 44.01 25.23 41.82 25.32 39.97 25.82 C 39.66 26.46 39.03 27.73 38.71 28.37 C 38.67 28.49 38.57 28.72 38.52 28.83 C 36.69 28.85 34.78 28.52 33.02 29.17 C 30.49 30.18 28.99 33.12 26.11 33.34 C 25.13 33.18 23.17 32.86 22.19 32.71 C 24.75 31.61 27.25 30.13 28.92 27.85 C 29.22 26.57 29.23 25.24 29.46 23.95 C 32.05 20.38 35.44 17.47 39.18 15.16 M 36.47 20.47 C 35.35 22.15 36.44 23.97 38.40 23.32 C 38.35 21.95 38.06 20.57 36.47 20.47 Z" />
<path fill="#fdfdfd" opacity="1.00" d=" M 30.71 34.65 C 32.87 33.12 35.63 33.10 38.15 32.83 C 40.11 34.54 42.61 35.02 45.13 35.15 C 45.57 36.68 45.95 38.23 46.52 39.72 C 47.96 40.00 49.44 40.12 50.89 40.35 C 49.52 42.25 47.56 43.55 45.85 45.09 C 47.33 47.44 49.84 44.53 51.77 44.12 C 49.24 48.33 47.19 53.93 41.99 55.34 C 39.68 55.95 40.37 52.19 38.73 51.52 C 36.34 50.70 33.82 50.21 31.28 50.24 C 30.55 53.19 32.72 55.48 35.04 56.86 C 30.97 55.93 26.86 57.24 22.77 56.79 C 19.38 55.18 15.58 54.45 12.26 52.86 C 12.06 50.87 11.96 48.88 11.83 46.88 C 12.50 46.73 13.85 46.42 14.52 46.26 C 15.15 43.12 13.60 40.36 12.25 37.66 C 14.08 35.58 16.99 34.21 19.59 33.12 C 20.43 33.35 22.10 33.81 22.94 34.04 C 22.77 35.01 22.59 35.98 22.39 36.95 C 21.13 37.20 19.88 37.51 18.65 37.88 C 17.50 40.13 19.24 42.18 20.65 43.78 C 20.58 43.93 20.43 44.22 20.35 44.36 C 19.99 45.26 18.29 47.34 19.94 47.82 C 20.96 47.56 21.74 46.94 22.28 45.96 C 22.75 45.94 23.71 45.91 24.18 45.89 C 25.25 42.98 19.60 44.78 21.75 42.31 C 22.49 40.95 22.98 39.47 23.57 38.05 C 25.17 39.21 26.50 41.39 28.78 40.81 C 30.17 39.05 30.21 36.74 30.71 34.65 M 20.23 50.19 L 19.90 51.00 L 20.24 51.81 L 21.07 52.18 L 21.90 51.87 L 22.24 51.01 L 21.90 50.15 L 21.06 49.83 L 20.23 50.19 Z" />
<path fill="#fdfdfd" opacity="1.00" d=" M 42.39 32.93 L 43.11 32.53 L 43.74 33.00 L 43.64 33.84 L 42.95 34.23 L 42.32 33.76 L 42.39 32.93 Z" />
<path fill="#fdfdfd" opacity="1.00" d=" M 216.00 115.46 C 216.82 113.82 215.65 110.74 218.34 110.70 C 219.46 112.79 219.58 115.22 220.54 117.37 C 221.35 119.60 222.71 121.64 223.19 123.98 C 223.41 131.74 222.96 139.53 223.40 147.29 C 221.86 146.15 220.34 144.98 218.90 143.71 C 218.98 141.47 219.09 139.22 218.88 136.98 C 218.54 134.25 216.63 131.83 217.06 128.99 C 217.61 126.67 218.77 124.42 218.19 121.97 C 217.67 120.11 218.59 117.40 216.85 116.13 L 216.00 115.46 Z" />
</g>
<g id="#a2a2a2ff">
<path fill="#a2a2a2" opacity="1.00" d=" M 53.44 17.35 C 54.57 16.90 55.75 16.74 56.98 16.86 C 56.31 17.44 55.64 18.03 54.99 18.63 C 56.39 18.92 57.86 19.19 58.59 20.58 C 59.97 21.47 61.49 22.10 63.02 22.69 C 62.80 25.32 62.76 27.97 62.91 30.60 C 60.29 33.37 60.42 37.26 59.87 40.78 C 58.35 43.59 55.87 46.72 57.33 50.07 C 55.28 49.34 55.12 47.03 54.64 45.24 C 53.73 41.79 55.51 38.14 57.91 35.72 C 59.23 34.45 59.68 32.61 60.23 30.93 C 60.99 28.45 61.70 25.68 60.72 23.16 C 59.42 22.16 58.08 21.22 56.71 20.33 C 55.58 20.71 54.52 21.29 53.42 21.75 C 53.36 20.28 53.33 18.81 53.44 17.35 Z" />
<path fill="#a2a2a2" opacity="1.00" d=" M 6.17 45.09 C 7.59 46.64 8.33 48.56 8.82 50.58 C 9.30 50.58 10.27 50.58 10.75 50.58 C 10.87 49.27 9.80 48.35 9.19 47.30 C 9.85 47.20 11.17 46.99 11.83 46.88 C 11.96 48.88 12.06 50.87 12.26 52.86 C 11.07 51.34 9.59 50.79 7.83 51.23 C 8.87 52.77 10.01 54.25 10.83 55.93 C 9.44 54.63 7.94 53.44 6.67 52.01 C 6.48 49.71 6.49 47.38 6.17 45.09 Z" />
</g>
<g id="#626262ff">
<path fill="#626262" opacity="1.00" d=" M 56.98 16.86 C 59.00 16.88 61.02 16.89 63.04 16.86 C 63.76 19.70 59.73 18.65 58.59 20.58 C 57.86 19.19 56.39 18.92 54.99 18.63 C 55.64 18.03 56.31 17.44 56.98 16.86 Z" />
<path fill="#626262" opacity="1.00" d=" M 47.20 71.26 L 47.72 71.26 L 47.72 71.78 L 47.20 71.78 L 47.20 71.26 Z" />
</g>
<g id="#373737ff">
<path fill="#373737" opacity="1.00" d=" M 36.47 20.47 C 38.06 20.57 38.35 21.95 38.40 23.32 C 36.44 23.97 35.35 22.15 36.47 20.47 Z" />
<path fill="#373737" opacity="1.00" d=" M 7.83 51.23 C 9.59 50.79 11.07 51.34 12.26 52.86 C 15.58 54.45 19.38 55.18 22.77 56.79 C 25.03 58.62 27.86 59.31 30.61 60.04 C 30.99 60.48 31.75 61.37 32.13 61.81 C 35.47 62.10 37.02 58.29 39.63 56.84 C 42.34 56.35 45.13 56.49 47.87 56.56 C 51.83 58.12 54.89 54.03 58.75 53.87 C 59.07 54.00 59.70 54.28 60.01 54.41 C 59.74 54.79 59.20 55.53 58.93 55.90 C 55.83 56.51 53.38 58.73 50.19 59.01 L 49.60 59.76 C 48.39 59.98 47.71 59.36 47.57 57.91 C 47.01 58.12 45.89 58.54 45.32 58.75 C 44.40 59.18 43.95 59.94 43.97 61.03 C 44.79 61.58 45.62 62.12 46.46 62.66 C 46.27 62.97 45.89 63.58 45.71 63.89 C 43.55 63.15 42.71 60.85 41.10 59.44 C 38.52 59.43 37.26 62.48 34.95 63.36 C 33.44 63.40 31.61 64.01 30.31 62.97 C 28.20 61.25 25.28 61.64 22.86 60.63 C 18.78 59.36 13.21 60.29 10.83 55.93 C 10.01 54.25 8.87 52.77 7.83 51.23 M 13.01 55.12 C 14.67 57.11 17.54 58.39 20.10 57.77 C 18.22 56.04 15.42 55.72 13.01 55.12 Z" />
<path fill="#373737" opacity="1.00" d=" M 169.62 115.60 C 172.72 114.12 174.71 111.20 177.20 108.94 C 177.29 109.77 177.36 110.60 177.40 111.43 C 175.27 114.27 172.48 116.66 169.06 117.76 C 165.51 119.72 161.86 121.64 158.98 124.54 C 158.44 124.48 157.36 124.36 156.82 124.29 C 160.17 120.25 165.13 118.11 169.62 115.60 Z" />
<path fill="#373737" opacity="1.00" d=" M 187.06 116.04 L 187.74 115.92 C 188.06 116.24 188.71 116.89 189.03 117.21 L 188.93 117.87 L 188.28 118.00 C 187.95 117.68 187.27 117.04 186.94 116.71 L 187.06 116.04 Z" />
</g>
<g id="#5c5c5cff">
<path fill="#5c5c5c" opacity="1.00" d=" M 64.37 20.40 C 65.57 20.15 66.78 20.00 68.01 19.95 C 68.05 21.97 68.21 25.14 66.11 26.09 C 65.90 24.28 66.73 21.66 64.06 21.62 C 64.14 21.32 64.30 20.70 64.37 20.40 Z" />
</g>
<g id="#595959ff">
<path fill="#595959" opacity="1.00" d=" M 63.02 22.69 C 63.52 22.85 64.52 23.18 65.03 23.34 C 64.99 25.59 63.26 27.56 63.92 29.88 C 64.46 30.02 65.53 30.30 66.06 30.44 C 65.48 31.09 64.90 31.75 64.32 32.41 C 63.97 31.96 63.26 31.05 62.91 30.60 C 62.76 27.97 62.80 25.32 63.02 22.69 Z" />
</g>
<g id="#d3d3d3ff">
<path fill="#d3d3d3" opacity="1.00" d=" M 44.90 27.28 C 45.95 26.29 46.84 25.09 48.10 24.35 C 49.39 24.15 50.70 24.32 51.99 24.46 C 51.55 24.64 50.68 24.99 50.24 25.16 L 49.92 25.95 L 50.24 26.66 C 50.64 26.80 51.45 27.08 51.85 27.21 C 49.36 28.14 48.19 30.55 48.75 33.12 C 47.23 31.32 45.34 29.73 44.90 27.28 Z" />
<path fill="#d3d3d3" opacity="1.00" d=" M 26.11 33.34 C 28.99 33.12 30.49 30.18 33.02 29.17 C 34.78 28.52 36.69 28.85 38.52 28.83 C 38.38 30.16 38.26 31.50 38.15 32.83 C 35.63 33.10 32.87 33.12 30.71 34.65 C 30.21 36.74 30.17 39.05 28.78 40.81 C 26.50 41.39 25.17 39.21 23.57 38.05 C 22.98 39.47 22.49 40.95 21.75 42.31 C 21.47 42.68 20.93 43.41 20.65 43.78 C 19.24 42.18 17.50 40.13 18.65 37.88 C 19.13 38.86 19.64 39.82 20.18 40.76 C 22.29 40.57 22.28 38.64 22.39 36.95 C 22.59 35.98 22.77 35.01 22.94 34.04 C 22.10 33.81 20.43 33.35 19.59 33.12 C 20.00 33.00 20.81 32.77 21.21 32.65 C 21.46 32.67 21.95 32.69 22.19 32.71 C 23.17 32.86 25.13 33.18 26.11 33.34 M 24.21 34.43 C 22.96 35.86 25.71 37.12 26.61 35.87 C 27.46 34.51 25.11 33.43 24.21 34.43 Z" />
<path fill="#d3d3d3" opacity="1.00" d=" M 77.36 71.11 L 78.02 71.14 L 77.99 71.80 L 77.33 71.78 L 77.36 71.11 Z" />
<path fill="#d3d3d3" opacity="1.00" d=" M 115.15 112.22 L 115.82 112.23 L 115.81 112.90 L 115.14 112.89 L 115.15 112.22 Z" />
</g>
<g id="#080808ff">
<path fill="#080808" opacity="1.00" d=" M 69.09 24.40 L 69.98 24.06 C 69.72 26.65 69.07 29.19 68.66 31.77 C 67.61 33.32 66.64 35.13 64.97 36.07 C 64.88 33.11 67.69 30.98 67.66 28.01 C 67.89 26.80 67.66 24.95 69.09 24.40 Z" />
<path fill="#080808" opacity="1.00" d=" M 79.94 30.72 C 79.78 29.52 78.58 27.88 80.46 27.57 C 82.41 31.52 83.09 35.94 83.56 40.27 C 84.44 43.53 86.89 46.27 86.89 49.78 C 86.53 50.04 85.80 50.57 85.44 50.83 C 82.75 47.20 83.60 42.00 80.68 38.37 C 81.01 37.78 81.66 36.60 81.98 36.01 C 80.86 37.08 79.83 38.24 78.74 39.34 C 76.30 38.43 75.06 40.55 74.93 42.66 C 74.80 45.04 74.66 49.25 71.20 48.45 C 71.94 48.75 72.68 49.06 73.43 49.34 C 73.99 48.17 74.90 47.40 76.16 47.04 C 77.58 48.67 78.96 50.34 80.18 52.13 C 79.67 52.22 78.63 52.41 78.11 52.51 C 78.59 52.55 79.56 52.64 80.04 52.69 C 79.82 53.99 79.69 55.35 79.04 56.53 C 78.52 56.59 77.47 56.71 76.95 56.76 C 77.05 58.65 79.14 61.54 76.19 62.10 C 75.65 61.82 74.59 61.26 74.06 60.98 C 74.82 58.31 73.02 56.28 71.83 54.11 C 72.42 54.58 73.62 55.53 74.22 56.00 C 74.20 54.71 74.71 53.66 75.76 52.85 C 74.53 52.64 73.29 52.50 72.07 52.26 C 71.88 51.75 71.49 50.74 71.29 50.23 C 70.75 51.54 70.51 53.04 69.53 54.13 C 67.99 54.33 66.43 54.41 64.88 54.50 C 66.03 54.20 67.13 53.76 68.21 53.28 C 66.61 53.27 65.01 53.51 63.58 54.25 C 62.38 53.81 61.65 52.48 60.67 51.67 C 59.84 49.81 58.97 47.94 58.48 45.95 C 59.13 44.15 61.42 42.92 59.87 40.78 C 60.42 37.26 60.29 33.37 62.91 30.60 C 63.26 31.05 63.97 31.96 64.32 32.41 C 64.50 34.94 64.45 37.46 64.50 39.99 C 66.39 40.24 67.58 38.89 68.79 37.69 C 70.86 37.33 73.15 37.41 74.75 35.81 C 75.87 34.57 77.43 34.47 78.98 34.63 C 80.44 35.35 82.33 32.20 80.30 32.24 C 79.94 32.50 79.23 33.03 78.87 33.29 C 78.17 33.12 76.77 32.76 76.07 32.59 C 77.09 31.49 78.63 31.30 79.94 30.72 M 75.22 57.26 L 75.22 57.81 L 75.77 57.81 L 75.77 57.26 L 75.22 57.26 Z" />
<path fill="#080808" opacity="1.00" d=" M 69.92 65.94 C 71.01 64.69 71.86 63.02 73.70 62.82 C 74.02 63.24 74.65 64.09 74.96 64.51 C 76.15 65.38 79.33 64.71 78.15 67.20 C 82.09 65.11 78.39 68.20 77.98 69.36 C 78.48 70.51 79.06 71.63 79.55 72.79 C 78.61 73.40 77.65 73.99 76.68 74.56 C 76.36 74.31 75.72 73.81 75.41 73.56 C 73.96 75.17 71.86 72.70 69.97 73.16 C 70.87 74.20 71.84 75.18 72.71 76.25 C 70.60 77.11 67.80 76.11 66.36 74.50 C 69.29 74.92 66.62 72.33 67.97 72.00 C 69.29 71.35 70.66 71.22 72.08 71.62 C 70.26 70.63 68.23 69.70 67.30 67.72 C 67.63 66.83 67.57 65.93 67.41 65.02 C 68.24 65.34 69.08 65.65 69.92 65.94 M 75.10 70.15 L 74.72 70.93 L 75.10 71.69 L 75.87 71.69 L 76.26 70.93 L 75.88 70.15 L 75.10 70.15 M 77.36 71.11 L 77.33 71.78 L 77.99 71.80 L 78.02 71.14 L 77.36 71.11 Z" />
<path fill="#080808" opacity="1.00" d=" M 162.22 101.36 C 163.40 101.91 164.56 102.67 165.92 102.09 C 165.41 103.48 166.07 104.75 166.48 106.06 C 165.62 106.15 165.17 107.49 164.23 107.51 C 162.89 106.65 161.13 106.17 160.40 104.62 C 160.82 103.44 161.23 102.19 162.22 101.36 Z" />
<path fill="#080808" opacity="1.00" d=" M 230.25 173.22 C 230.69 173.16 231.58 173.06 232.03 173.00 C 232.26 175.69 228.84 176.47 227.62 178.51 C 227.61 178.12 227.57 177.33 227.55 176.94 C 229.57 176.70 229.76 174.78 230.25 173.22 Z" />
</g>
<g id="#6c6c6cff">
<path fill="#6c6c6c" opacity="1.00" d=" M 39.97 25.82 C 41.82 25.32 44.01 25.23 44.90 27.28 C 45.34 29.73 47.23 31.32 48.75 33.12 L 48.97 34.32 C 49.19 35.70 49.40 37.09 49.62 38.48 C 47.78 38.55 47.14 36.60 46.34 35.31 C 48.06 33.73 44.78 34.59 45.28 33.16 C 45.74 31.58 43.99 30.79 43.09 29.86 C 41.94 28.65 40.25 28.60 38.71 28.37 C 39.03 27.73 39.66 26.46 39.97 25.82 Z" />
<path fill="#6c6c6c" opacity="1.00" d=" M 150.80 130.96 C 155.15 130.28 159.57 129.80 163.96 130.34 C 162.41 130.62 160.85 130.85 159.34 131.27 C 158.91 132.14 158.54 133.03 158.24 133.95 C 160.45 133.69 162.63 133.20 164.82 132.78 C 165.41 132.97 166.58 133.34 167.17 133.53 C 164.86 134.20 162.46 134.34 160.12 134.77 C 155.68 135.51 151.54 137.53 147.02 137.79 C 143.88 137.92 141.15 140.18 138.02 139.87 C 137.73 139.56 137.16 138.94 136.88 138.63 C 138.68 137.34 140.77 136.53 142.87 135.88 C 147.72 135.73 152.76 135.14 156.96 132.52 C 154.86 132.34 152.75 132.29 150.66 132.09 L 150.80 130.96 Z" />
</g>
<g id="#bbbbbbff">
<path fill="#bbbbbb" opacity="1.00" d=" M 50.24 25.16 C 50.68 24.99 51.55 24.64 51.99 24.46 C 53.25 25.45 53.20 26.37 51.85 27.21 C 51.45 27.08 50.64 26.80 50.24 26.66 L 49.92 25.95 L 50.24 25.16 Z" />
</g>
<g id="#5d5d5dff">
<path fill="#5d5d5d" opacity="1.00" d=" M 65.24 27.25 L 65.76 27.24 L 65.76 27.76 L 65.25 27.76 L 65.24 27.25 Z" />
<path fill="#5d5d5d" opacity="1.00" d=" M 69.44 145.72 C 69.81 145.54 70.54 145.18 70.91 145.00 C 72.88 146.96 72.34 150.01 73.80 152.23 C 74.88 153.92 75.74 155.73 76.16 157.71 C 75.82 157.99 75.13 158.56 74.79 158.84 L 74.04 158.98 C 72.23 154.69 69.31 150.56 69.44 145.72 Z" />
<path fill="#5d5d5d" opacity="1.00" d=" M 71.08 176.09 C 72.42 174.45 75.20 177.22 72.93 178.08 C 72.46 178.02 71.52 177.88 71.05 177.82 L 70.69 176.96 L 71.08 176.09 Z" />
</g>
<g id="#141414ff">
<path fill="#141414" opacity="1.00" d=" M 38.52 28.83 C 38.57 28.72 38.67 28.49 38.71 28.37 C 40.25 28.60 41.94 28.65 43.09 29.86 C 43.99 30.79 45.74 31.58 45.28 33.16 C 44.78 34.59 48.06 33.73 46.34 35.31 L 45.13 35.15 C 42.61 35.02 40.11 34.54 38.15 32.83 C 38.26 31.50 38.38 30.16 38.52 28.83 M 41.03 31.13 L 41.03 31.80 L 41.70 31.81 L 41.70 31.14 L 41.03 31.13 M 42.39 32.93 L 42.32 33.76 L 42.95 34.23 L 43.64 33.84 L 43.74 33.00 L 43.11 32.53 L 42.39 32.93 Z" />
<path fill="#141414" opacity="1.00" d=" M 163.96 130.34 C 167.45 130.55 170.77 131.94 174.32 131.36 C 176.90 131.87 179.33 132.99 181.51 134.44 C 182.83 135.65 183.51 137.38 184.52 138.84 C 186.54 141.33 189.38 143.08 191.33 145.68 C 194.96 149.18 196.97 153.85 199.36 158.20 C 202.27 162.43 206.13 165.90 209.30 169.94 C 210.96 171.79 212.92 173.44 213.85 175.82 C 217.34 177.81 221.40 178.73 224.59 181.29 C 227.46 183.57 230.29 186.04 232.48 189.00 C 233.16 191.47 236.31 191.67 237.11 194.02 C 238.10 196.82 240.71 198.46 242.22 200.91 C 242.60 203.64 242.39 206.45 243.29 209.11 C 243.81 212.42 245.98 215.61 245.01 219.03 C 244.75 222.55 240.30 223.51 239.65 226.87 C 239.99 229.27 242.66 231.86 245.12 230.43 C 245.41 229.93 246.01 228.92 246.30 228.42 C 247.92 229.19 247.66 232.20 250.00 231.56 C 251.58 231.79 252.02 229.80 253.01 228.95 C 253.57 228.25 254.12 227.56 254.68 226.87 C 254.75 227.40 254.88 228.45 254.94 228.97 C 254.54 230.25 253.74 231.66 252.50 232.25 C 249.40 232.99 246.18 232.52 243.03 232.62 C 240.60 232.81 239.53 230.07 237.38 229.51 C 235.52 223.67 244.71 221.91 243.43 216.05 C 241.99 211.44 240.79 206.72 240.57 201.88 C 239.45 199.92 237.30 198.69 236.36 196.58 C 235.62 195.44 235.54 193.65 233.90 193.37 C 233.78 195.42 234.32 197.45 234.34 199.50 C 234.11 201.51 232.39 202.81 231.09 204.17 C 226.69 205.11 222.32 203.68 217.97 203.14 C 217.45 201.65 215.38 200.73 216.28 198.86 C 217.64 197.32 219.80 196.59 220.81 194.70 C 222.49 191.57 222.03 187.60 220.40 184.55 C 219.57 183.40 219.36 182.01 219.11 180.66 C 217.17 179.40 214.97 178.64 212.98 177.48 C 211.56 175.75 210.52 173.73 208.95 172.12 C 206.47 169.86 204.77 166.87 201.99 164.92 C 200.78 162.64 199.12 160.63 197.00 159.16 C 193.45 158.14 190.11 156.62 186.70 155.24 C 184.92 153.76 183.20 152.04 182.20 149.92 C 181.29 147.92 179.44 146.56 178.44 144.62 C 176.84 141.36 174.52 138.54 172.33 135.68 C 170.79 134.59 169.06 133.74 167.17 133.53 C 166.58 133.34 165.41 132.97 164.82 132.78 C 164.61 132.17 164.18 130.95 163.96 130.34 M 171.77 132.71 C 172.35 134.24 174.08 134.79 175.03 136.05 C 177.92 139.53 179.42 144.31 183.15 146.98 C 183.79 148.82 184.07 151.03 185.77 152.25 C 188.81 154.43 192.27 156.08 195.95 156.80 C 194.48 150.26 189.10 145.89 184.44 141.54 C 182.51 139.95 181.70 137.46 179.99 135.70 C 177.20 134.78 174.89 132.53 171.77 132.71 M 221.35 181.60 L 221.43 182.65 C 223.64 186.13 223.43 190.40 223.09 194.33 C 222.10 196.67 219.77 197.94 218.26 199.89 C 220.09 202.94 224.11 202.11 227.09 202.94 C 229.71 203.52 231.62 201.40 232.67 199.26 C 232.41 196.08 231.47 193.02 230.88 189.90 C 227.92 186.95 225.32 183.25 221.35 181.60 Z" />
<path fill="#141414" opacity="1.00" d=" M 74.79 158.84 C 75.13 158.56 75.82 157.99 76.16 157.71 C 76.51 158.79 76.82 159.89 77.11 161.00 C 76.96 161.49 76.67 162.49 76.52 162.99 C 75.91 161.62 75.35 160.23 74.79 158.84 Z" />
</g>
<g id="#d5d5d5ff">
<path fill="#d5d5d5" opacity="1.00" d=" M 51.78 34.89 C 54.07 32.63 56.88 30.80 60.23 30.93 C 59.68 32.61 59.23 34.45 57.91 35.72 C 55.51 38.14 53.73 41.79 54.64 45.24 C 55.12 47.03 55.28 49.34 57.33 50.07 C 58.41 50.66 59.55 51.14 60.67 51.67 C 61.65 52.48 62.38 53.81 63.58 54.25 C 65.01 53.51 66.61 53.27 68.21 53.28 C 67.13 53.76 66.03 54.20 64.88 54.50 C 63.26 54.46 61.63 54.46 60.01 54.41 C 59.70 54.28 59.07 54.00 58.75 53.87 C 56.25 52.99 53.67 51.56 50.97 51.86 C 48.54 51.94 48.80 54.96 47.87 56.56 C 45.13 56.49 42.34 56.35 39.63 56.84 C 37.02 58.29 35.47 62.10 32.13 61.81 C 31.75 61.37 30.99 60.48 30.61 60.04 C 32.40 59.76 36.49 59.82 35.04 56.86 C 32.72 55.48 30.55 53.19 31.28 50.24 C 33.82 50.21 36.34 50.70 38.73 51.52 C 40.37 52.19 39.68 55.95 41.99 55.34 C 47.19 53.93 49.24 48.33 51.77 44.12 C 49.84 44.53 47.33 47.44 45.85 45.09 C 47.56 43.55 49.52 42.25 50.89 40.35 C 49.44 40.12 47.96 40.00 46.52 39.72 C 45.95 38.23 45.57 36.68 45.13 35.15 L 46.34 35.31 C 47.14 36.60 47.78 38.55 49.62 38.48 C 51.95 38.88 54.78 37.93 54.74 35.17 C 54.00 35.10 52.52 34.96 51.78 34.89 M 32.22 51.28 C 31.10 52.65 33.64 54.10 34.55 52.81 C 35.44 51.47 33.18 50.24 32.22 51.28 Z" />
</g>
<g id="#060606ff">
<path fill="#060606" opacity="1.00" d=" M 14.64 33.52 C 16.18 32.37 17.95 31.30 19.96 31.56 C 20.28 31.83 20.90 32.38 21.21 32.65 C 20.81 32.77 20.00 33.00 19.59 33.12 C 16.99 34.21 14.08 35.58 12.25 37.66 C 13.60 40.36 15.15 43.12 14.52 46.26 C 13.85 46.42 12.50 46.73 11.83 46.88 C 11.17 46.99 9.85 47.20 9.19 47.30 C 9.80 48.35 10.87 49.27 10.75 50.58 C 10.27 50.58 9.30 50.58 8.82 50.58 C 8.33 48.56 7.59 46.64 6.17 45.09 C 5.93 43.63 5.89 42.16 6.07 40.68 C 8.30 40.09 10.01 41.38 11.96 41.98 C 11.25 39.48 8.35 40.64 7.21 38.77 C 9.27 36.48 12.20 35.33 14.64 33.52 Z" />
<path fill="#060606" opacity="1.00" d=" M 160.78 93.86 C 161.96 93.93 166.08 90.54 164.10 93.71 C 165.58 94.32 165.08 97.06 163.75 97.64 C 161.61 99.53 159.24 94.99 160.78 93.86 Z" />
<path fill="#060606" opacity="1.00" d=" M 68.05 102.03 C 69.53 102.09 70.27 100.96 70.98 99.87 C 71.21 100.51 71.35 101.18 71.40 101.86 C 71.93 102.03 72.99 102.36 73.51 102.52 C 73.76 103.80 74.28 105.26 72.60 105.73 C 70.87 105.57 69.13 105.64 67.41 105.54 C 65.57 104.91 66.31 102.03 68.05 102.03 Z" />
<path fill="#060606" opacity="1.00" d=" M 127.16 101.99 C 128.86 101.56 130.06 102.93 131.20 103.90 C 130.56 99.30 134.76 105.46 134.22 101.52 L 134.73 101.61 L 135.32 103.00 C 135.83 103.19 136.86 103.57 137.37 103.77 C 136.43 105.91 135.04 108.84 132.43 108.95 L 132.61 107.14 C 132.14 107.56 131.19 108.39 130.72 108.81 C 129.18 108.18 127.45 107.50 128.40 105.42 C 127.86 105.46 126.79 105.53 126.26 105.56 C 126.33 104.32 126.52 103.08 127.16 101.99 Z" />
<path fill="#060606" opacity="1.00" d=" M 113.42 113.72 C 112.81 111.80 111.33 108.11 113.95 107.26 C 114.41 107.81 115.33 108.93 115.80 109.49 C 116.40 109.57 117.61 109.73 118.21 109.81 C 119.05 110.92 118.50 112.71 117.17 113.23 C 116.12 114.03 115.93 115.39 115.26 116.44 C 114.24 117.40 112.83 116.07 111.93 115.62 L 112.48 114.95 C 112.71 114.64 113.18 114.02 113.42 113.72 M 115.15 112.22 L 115.14 112.89 L 115.81 112.90 L 115.82 112.23 L 115.15 112.22 Z" />
<path fill="#060606" opacity="1.00" d=" M 58.23 117.45 C 58.33 117.75 58.53 118.36 58.62 118.67 C 58.18 119.89 58.25 121.48 57.14 122.34 C 55.58 122.52 54.01 122.52 52.46 122.30 C 51.98 120.66 52.20 118.93 52.44 117.27 C 54.34 117.25 56.73 119.29 58.23 117.45 Z" />
<path fill="#060606" opacity="1.00" d=" M 74.42 137.11 C 77.51 137.53 79.93 140.67 78.67 143.74 C 76.49 144.78 74.17 144.49 72.43 142.80 C 73.08 140.89 73.73 138.99 74.42 137.11 Z" />
</g>
<g id="#3e3e3eff">
<path fill="#3e3e3e" opacity="1.00" d=" M 80.30 32.24 C 82.33 32.20 80.44 35.35 78.98 34.63 C 78.96 34.29 78.90 33.62 78.87 33.29 C 79.23 33.03 79.94 32.50 80.30 32.24 Z" />
<path fill="#3e3e3e" opacity="1.00" d=" M 84.18 180.15 L 85.03 179.80 L 85.88 180.12 L 86.21 180.97 L 85.86 181.81 L 85.03 182.14 L 84.20 181.79 L 83.85 180.97 L 84.18 180.15 Z" />
</g>
<g id="#a4a4a4ff">
<path fill="#a4a4a4" opacity="1.00" d=" M 24.21 34.43 C 25.11 33.43 27.46 34.51 26.61 35.87 C 25.71 37.12 22.96 35.86 24.21 34.43 Z" />
</g>
<g id="#c3c3c3ff">
<path fill="#c3c3c3" opacity="1.00" d=" M 48.97 34.32 C 49.88 34.65 50.82 34.83 51.78 34.89 C 52.52 34.96 54.00 35.10 54.74 35.17 C 54.78 37.93 51.95 38.88 49.62 38.48 C 49.40 37.09 49.19 35.70 48.97 34.32 Z" />
</g>
<g id="#8d8d8dff">
<path fill="#8d8d8d" opacity="1.00" d=" M 18.65 37.88 C 19.88 37.51 21.13 37.20 22.39 36.95 C 22.28 38.64 22.29 40.57 20.18 40.76 C 19.64 39.82 19.13 38.86 18.65 37.88 Z" />
<path fill="#8d8d8d" opacity="1.00" d=" M 100.44 130.57 C 101.68 130.38 102.94 130.40 104.18 130.52 C 103.95 133.19 101.30 134.50 100.69 136.97 C 100.18 140.68 99.95 144.46 98.70 148.03 C 97.41 142.33 96.69 135.52 100.44 130.57 Z" />
<path fill="#8d8d8d" opacity="1.00" d=" M 59.81 225.82 C 59.51 224.66 60.56 223.82 61.12 222.95 C 62.85 226.07 65.17 222.44 67.54 222.48 C 67.42 224.09 67.29 225.71 67.17 227.33 C 67.89 227.34 69.33 227.38 70.06 227.39 C 68.96 228.04 67.84 229.06 66.47 228.80 C 65.68 227.86 65.22 226.63 64.16 225.94 C 62.71 225.89 61.26 225.85 59.81 225.82 Z" />
</g>
<g id="#4b4b4bff">
<path fill="#4b4b4b" opacity="1.00" d=" M 74.93 42.66 C 75.06 40.55 76.30 38.43 78.74 39.34 C 77.94 41.41 77.24 43.54 76.06 45.43 C 73.99 46.62 75.65 43.51 74.93 42.66 Z" />
</g>
<g id="#525252ff">
<path fill="#525252" opacity="1.00" d=" M 57.33 50.07 C 55.87 46.72 58.35 43.59 59.87 40.78 C 61.42 42.92 59.13 44.15 58.48 45.95 C 58.97 47.94 59.84 49.81 60.67 51.67 C 59.55 51.14 58.41 50.66 57.33 50.07 Z" />
</g>
<g id="#0c0c0cff">
<path fill="#0c0c0c" opacity="1.00" d=" M 20.65 43.78 C 20.93 43.41 21.47 42.68 21.75 42.31 C 19.60 44.78 25.25 42.98 24.18 45.89 C 23.71 45.91 22.75 45.94 22.28 45.96 C 22.02 45.55 21.50 44.74 21.24 44.34 L 20.35 44.36 C 20.43 44.22 20.58 43.93 20.65 43.78 Z" />
<path fill="#0c0c0c" opacity="1.00" d=" M 71.12 161.14 C 74.58 160.37 75.67 164.42 75.96 167.07 C 73.17 167.45 71.09 164.96 69.36 163.15 C 69.80 162.65 70.68 161.64 71.12 161.14 Z" />
</g>
<g id="#c8c8c8ff">
<path fill="#c8c8c8" opacity="1.00" d=" M 20.35 44.36 L 21.24 44.34 C 21.50 44.74 22.02 45.55 22.28 45.96 C 21.74 46.94 20.96 47.56 19.94 47.82 C 18.29 47.34 19.99 45.26 20.35 44.36 Z" />
<path fill="#c8c8c8" opacity="1.00" d=" M 13.01 55.12 C 15.42 55.72 18.22 56.04 20.10 57.77 C 17.54 58.39 14.67 57.11 13.01 55.12 Z" />
<path fill="#c8c8c8" opacity="1.00" d=" M 58.33 85.39 C 58.88 86.41 58.19 87.81 58.23 88.95 C 57.60 92.20 58.47 95.54 57.86 98.77 C 56.94 99.76 55.90 100.63 54.84 101.47 C 52.88 101.00 51.22 101.77 50.00 103.34 C 50.04 101.29 50.01 99.25 50.04 97.20 C 51.98 97.89 55.06 99.91 56.33 97.26 C 56.48 94.30 56.62 91.26 55.45 88.47 C 56.51 87.54 57.65 86.67 58.33 85.39 Z" />
<path fill="#c8c8c8" opacity="1.00" d=" M 86.12 111.39 L 86.88 111.39 L 87.27 112.13 L 86.90 112.91 L 86.12 112.92 L 85.74 112.14 L 86.12 111.39 Z" />
</g>
<g id="#2d2d2dff">
<path fill="#2d2d2d" opacity="1.00" d=" M 20.23 50.19 L 21.06 49.83 L 21.90 50.15 L 22.24 51.01 L 21.90 51.87 L 21.07 52.18 L 20.24 51.81 L 19.90 51.00 L 20.23 50.19 Z" />
</g>
<g id="#fcfcfcff">
<path fill="#fcfcfc" opacity="1.00" d=" M 71.29 50.23 C 71.49 50.74 71.88 51.75 72.07 52.26 C 73.29 52.50 74.53 52.64 75.76 52.85 C 74.71 53.66 74.20 54.71 74.22 56.00 C 73.62 55.53 72.42 54.58 71.83 54.11 C 73.02 56.28 74.82 58.31 74.06 60.98 C 73.97 61.44 73.79 62.36 73.70 62.82 C 71.86 63.02 71.01 64.69 69.92 65.94 C 69.08 65.65 68.24 65.34 67.41 65.02 C 67.57 65.93 67.63 66.83 67.30 67.72 C 68.23 69.70 70.26 70.63 72.08 71.62 C 70.66 71.22 69.29 71.35 67.97 72.00 C 66.62 72.33 69.29 74.92 66.36 74.50 C 67.80 76.11 70.60 77.11 72.71 76.25 C 71.84 75.18 70.87 74.20 69.97 73.16 C 71.86 72.70 73.96 75.17 75.41 73.56 C 75.72 73.81 76.36 74.31 76.68 74.56 C 75.97 78.04 77.43 81.52 76.92 85.02 C 76.81 87.73 74.74 89.73 73.04 91.62 C 71.67 92.59 71.66 93.51 73.01 94.38 C 71.76 95.95 69.20 97.77 70.98 99.87 C 70.27 100.96 69.53 102.09 68.05 102.03 C 66.31 102.03 65.57 104.91 67.41 105.54 C 69.13 105.64 70.87 105.57 72.60 105.73 C 74.28 105.26 73.76 103.80 73.51 102.52 C 76.87 99.63 78.50 95.49 80.84 91.85 C 82.05 90.39 81.35 88.45 81.69 86.75 C 81.91 85.51 84.21 85.71 83.59 84.17 C 83.72 83.43 84.00 81.96 84.14 81.23 C 84.52 81.57 85.27 82.25 85.65 82.59 C 85.67 81.90 85.71 80.52 85.73 79.83 C 86.18 80.04 87.10 80.47 87.56 80.68 C 87.61 80.26 87.72 79.41 87.77 78.99 C 88.29 79.16 89.34 79.50 89.86 79.66 C 89.33 77.13 88.83 74.58 88.32 72.04 C 88.11 70.96 87.93 69.80 87.19 68.93 C 86.03 67.88 84.35 67.49 83.50 66.10 C 85.98 67.28 88.56 65.79 91.07 66.44 C 93.06 67.86 94.80 69.73 97.35 70.13 C 97.30 71.35 97.25 72.57 97.21 73.79 C 98.49 74.84 100.11 75.22 101.72 75.46 C 102.63 76.48 103.42 77.60 104.20 78.72 C 103.56 78.44 102.28 77.88 101.63 77.60 C 101.61 78.21 101.56 79.44 101.54 80.05 C 101.40 79.55 101.10 78.53 100.96 78.02 C 100.22 78.84 99.62 79.74 99.14 80.73 C 101.19 83.89 105.35 82.54 108.02 81.05 C 108.29 82.86 106.40 84.83 108.00 86.56 C 108.51 86.21 109.54 85.51 110.05 85.17 C 110.19 86.27 110.37 87.37 110.60 88.46 C 111.61 88.73 112.63 88.80 113.67 88.65 C 114.43 85.80 115.19 82.73 114.69 79.78 C 113.24 79.14 111.71 79.85 110.23 79.91 C 109.51 78.65 109.24 76.50 107.23 76.75 C 107.45 77.32 107.89 78.46 108.11 79.03 C 107.00 76.96 104.33 81.25 105.00 78.26 C 107.84 78.79 105.80 75.38 106.14 73.90 C 110.20 74.29 113.91 76.13 117.47 77.98 C 117.72 79.49 115.85 80.77 115.56 82.27 C 116.13 82.36 117.26 82.55 117.83 82.64 C 117.62 82.99 117.18 83.69 116.97 84.04 C 119.77 84.49 122.78 83.97 125.17 82.41 C 125.37 81.79 125.78 80.55 125.98 79.93 C 127.69 79.63 129.44 79.57 131.18 79.53 C 136.23 79.82 141.22 80.78 146.11 82.05 C 149.43 82.61 152.86 82.29 156.12 83.26 C 162.40 84.23 168.89 82.66 175.11 84.31 C 178.08 85.10 181.11 85.64 184.14 86.19 C 184.06 87.64 183.91 89.17 185.41 89.97 C 186.74 89.75 187.68 88.71 188.90 88.24 C 193.09 88.30 196.76 90.39 200.06 92.78 C 203.61 94.03 207.38 92.78 210.95 92.21 C 215.67 92.19 220.43 91.77 224.90 90.12 C 234.04 88.04 243.26 85.10 250.89 79.47 C 253.57 77.78 256.53 76.55 258.98 74.50 C 262.35 71.66 266.97 72.59 271.01 72.64 C 269.79 74.30 267.89 75.30 265.91 75.76 C 263.36 76.40 261.03 77.68 258.80 79.03 C 255.75 80.63 253.98 83.75 251.48 86.02 C 248.81 84.44 245.96 86.77 243.48 87.72 C 240.78 89.52 237.63 90.31 234.66 91.49 C 232.36 92.31 230.82 94.25 228.89 95.61 C 226.89 95.99 224.85 95.98 222.84 96.18 C 219.39 96.71 215.54 96.48 212.53 98.47 C 212.58 99.24 212.63 100.01 212.69 100.78 C 210.21 100.86 207.76 100.46 205.29 100.51 C 204.16 100.90 203.98 102.34 204.81 103.12 C 206.41 104.39 208.27 105.29 209.94 106.48 C 209.85 109.97 209.57 113.48 210.08 116.96 C 210.65 118.57 209.36 119.57 208.33 120.51 C 206.50 122.77 207.50 125.43 209.06 127.48 C 209.52 127.62 210.42 127.91 210.88 128.06 C 210.46 133.02 211.30 137.98 211.02 142.95 C 210.66 147.02 212.43 150.79 213.53 154.60 C 214.48 157.45 214.97 160.60 217.18 162.81 C 218.54 164.16 218.85 166.29 220.23 167.56 C 221.61 167.37 222.96 166.94 224.35 166.75 C 225.67 167.85 227.20 168.00 228.84 167.39 C 230.23 168.87 231.10 170.88 232.89 171.96 C 236.32 174.15 239.18 177.10 242.57 179.34 C 244.98 180.83 247.22 182.60 249.36 184.46 C 250.21 189.91 250.50 195.43 251.52 200.85 C 251.39 203.41 253.26 205.42 253.39 207.91 C 253.68 211.02 255.22 213.88 255.28 217.03 C 255.20 220.34 256.59 223.83 254.68 226.87 C 254.12 227.56 253.57 228.25 253.01 228.95 C 252.03 229.29 251.04 229.61 250.04 229.88 C 249.53 228.68 249.79 226.80 248.02 226.65 C 247.21 226.99 246.64 227.58 246.30 228.42 C 246.01 228.92 245.41 229.93 245.12 230.43 C 242.66 231.86 239.99 229.27 239.65 226.87 C 240.30 223.51 244.75 222.55 245.01 219.03 C 245.98 215.61 243.81 212.42 243.29 209.11 C 242.39 206.45 242.60 203.64 242.22 200.91 C 240.71 198.46 238.10 196.82 237.11 194.02 C 236.31 191.67 233.16 191.47 232.48 189.00 C 230.29 186.04 227.46 183.57 224.59 181.29 C 221.40 178.73 217.34 177.81 213.85 175.82 C 212.92 173.44 210.96 171.79 209.30 169.94 C 206.13 165.90 202.27 162.43 199.36 158.20 C 196.97 153.85 194.96 149.18 191.33 145.68 C 189.38 143.08 186.54 141.33 184.52 138.84 C 185.11 137.71 185.73 136.59 186.39 135.49 C 187.42 136.22 188.25 138.69 189.77 137.70 C 190.00 136.23 189.42 134.81 189.08 133.40 C 189.35 133.04 189.90 132.32 190.17 131.96 L 189.83 131.16 C 189.37 131.10 188.45 130.99 187.99 130.94 C 186.46 129.52 184.67 128.34 183.44 126.64 C 182.76 123.34 183.16 119.67 181.23 116.74 C 180.59 115.51 179.47 114.43 179.57 112.95 C 178.85 109.52 182.79 106.20 180.17 103.05 L 179.17 102.70 L 178.15 103.08 L 177.87 103.98 L 178.32 104.77 C 178.56 105.18 179.03 105.99 179.27 106.39 C 178.65 107.30 177.91 108.11 177.20 108.94 C 174.71 111.20 172.72 114.12 169.62 115.60 C 165.13 118.11 160.17 120.25 156.82 124.29 C 155.21 125.57 156.82 127.65 157.03 129.22 C 154.26 129.64 150.72 128.51 148.80 131.14 C 144.95 131.78 141.09 132.45 137.21 132.75 C 136.36 132.03 135.80 131.05 135.22 130.13 C 135.03 129.17 134.79 128.23 134.52 127.30 C 132.14 125.97 132.28 123.10 131.16 120.96 C 129.86 119.85 128.46 118.85 126.99 117.97 C 125.89 118.13 122.31 120.90 127.06 118.95 C 125.18 120.57 126.39 123.28 124.89 125.01 C 124.33 125.38 123.22 126.12 122.66 126.50 C 121.94 127.38 120.46 128.38 121.18 129.66 C 122.40 130.43 123.83 130.73 125.24 131.00 L 126.23 131.46 C 126.29 131.86 126.42 132.67 126.48 133.07 C 123.24 133.59 130.15 135.73 126.94 136.11 C 123.20 137.24 119.72 139.10 115.96 140.16 C 114.28 140.72 112.56 139.75 111.37 138.63 C 110.65 136.81 110.40 134.70 108.74 133.41 C 110.26 132.31 112.25 132.98 113.83 132.04 C 113.86 130.65 113.82 129.27 113.73 127.89 C 112.88 126.76 111.27 127.49 110.10 127.32 C 109.42 126.41 108.79 125.46 108.12 124.55 C 107.23 125.31 106.39 126.12 105.60 126.98 C 106.09 127.75 106.66 128.47 107.13 129.25 C 106.99 130.38 106.77 131.50 106.65 132.63 C 105.86 131.84 105.78 130.08 104.18 130.52 C 102.94 130.40 101.68 130.38 100.44 130.57 C 96.69 135.52 97.41 142.33 98.70 148.03 C 99.01 151.02 98.31 153.99 98.27 156.99 C 95.84 163.41 95.89 170.39 94.05 176.97 C 92.90 181.07 94.46 185.54 92.58 189.51 C 91.39 192.16 92.04 195.09 91.64 197.88 C 90.12 203.76 89.04 209.88 89.71 215.95 C 85.59 220.25 85.48 226.66 82.90 231.78 C 81.03 234.78 77.26 235.52 74.19 236.68 C 74.46 234.89 74.94 233.16 75.61 231.47 C 73.43 231.93 72.59 234.04 72.21 235.97 C 70.39 236.06 68.05 236.58 67.92 233.98 C 67.41 234.44 66.41 235.38 65.91 235.85 L 65.54 235.78 C 65.48 235.39 65.35 234.61 65.28 234.22 C 65.42 233.97 65.69 233.46 65.83 233.21 C 65.83 232.64 65.82 231.49 65.82 230.91 L 66.41 231.82 C 66.24 234.07 69.71 234.04 68.45 231.70 L 68.70 230.88 C 70.38 228.71 72.90 227.58 75.05 225.99 C 76.52 223.13 77.42 220.00 78.33 216.93 C 78.68 211.57 78.08 206.17 78.67 200.82 C 79.39 197.76 79.21 194.60 79.12 191.48 C 79.50 187.60 79.66 183.64 78.95 179.78 C 79.12 173.44 78.06 167.23 77.11 161.00 C 76.82 159.89 76.51 158.79 76.16 157.71 C 75.74 155.73 74.88 153.92 73.80 152.23 C 72.34 150.01 72.88 146.96 70.91 145.00 C 69.42 143.17 67.81 140.98 65.15 141.42 C 65.05 139.65 65.15 137.87 64.96 136.11 C 63.27 134.82 61.26 134.02 59.58 132.73 C 59.02 131.02 58.14 128.99 59.25 127.31 C 60.22 125.70 59.98 123.79 59.60 122.04 C 59.36 121.20 58.87 119.51 58.62 118.67 C 58.53 118.36 58.33 117.75 58.23 117.45 C 56.65 116.24 54.94 114.96 52.93 114.61 C 51.09 115.81 50.47 118.08 49.13 119.74 C 48.05 116.24 49.29 112.74 49.96 109.32 C 51.62 110.05 52.08 111.86 53.00 113.24 C 55.37 113.94 57.26 111.37 56.83 109.16 C 56.19 106.59 55.36 104.07 54.84 101.47 C 55.90 100.63 56.94 99.76 57.86 98.77 C 58.47 95.54 57.60 92.20 58.23 88.95 C 58.19 87.81 58.88 86.41 58.33 85.39 L 57.42 84.63 C 55.63 83.04 53.90 81.38 52.39 79.51 C 52.53 79.07 52.80 78.19 52.94 77.76 C 53.77 77.60 54.61 77.48 55.45 77.40 C 56.27 78.72 56.42 81.11 58.43 81.13 C 58.12 78.93 57.79 76.73 57.71 74.51 C 58.38 69.36 58.92 64.17 58.98 58.97 C 58.96 58.20 58.94 56.67 58.93 55.90 C 59.20 55.53 59.74 54.79 60.01 54.41 C 61.63 54.46 63.26 54.46 64.88 54.50 C 66.43 54.41 67.99 54.33 69.53 54.13 C 70.51 53.04 70.75 51.54 71.29 50.23 M 67.14 81.14 L 66.82 82.00 L 67.15 82.84 L 67.97 83.17 L 68.79 82.81 L 69.15 81.98 L 68.82 81.15 L 67.99 80.81 L 67.14 81.14 M 88.41 84.47 C 87.05 85.96 87.06 88.23 85.86 89.86 C 83.87 92.77 82.55 96.04 81.05 99.21 C 80.33 100.75 78.96 101.91 78.41 103.53 C 78.82 103.57 79.64 103.64 80.05 103.67 C 82.52 100.14 83.74 95.91 86.16 92.34 C 87.86 89.80 88.99 86.93 89.94 84.04 C 89.56 84.14 88.79 84.36 88.41 84.47 M 152.52 84.26 C 152.22 85.76 151.61 86.39 150.23 85.50 C 150.90 86.49 150.34 89.22 152.22 88.59 C 152.86 87.53 153.93 86.93 154.42 88.45 C 156.28 90.50 159.27 87.01 157.15 85.39 C 155.54 85.32 154.09 84.07 152.52 84.26 M 142.18 86.19 C 140.55 87.43 140.99 90.28 142.21 91.68 C 143.08 90.89 144.18 90.53 145.25 90.12 C 145.92 88.94 145.29 87.56 144.73 86.48 C 143.81 86.83 143.02 86.96 142.18 86.19 M 176.64 85.23 C 175.14 86.03 174.52 88.54 176.87 88.63 L 175.03 88.73 L 175.48 90.08 C 178.01 92.60 179.09 88.71 179.89 87.12 L 179.32 85.81 C 178.65 85.66 177.31 85.38 176.64 85.23 M 156.16 92.14 L 155.81 93.01 L 156.13 93.85 L 156.94 94.16 L 157.76 93.78 L 158.14 92.96 L 157.85 92.13 L 157.01 91.79 L 156.16 92.14 M 160.78 93.86 C 159.24 94.99 161.61 99.53 163.75 97.64 C 165.08 97.06 165.58 94.32 164.10 93.71 C 166.08 90.54 161.96 93.93 160.78 93.86 M 142.00 92.80 L 143.27 95.26 L 140.82 93.99 C 141.02 94.70 141.41 96.11 141.60 96.81 C 141.42 96.60 141.06 96.17 140.88 95.96 C 139.15 96.45 136.83 96.58 136.31 98.68 C 137.72 100.39 139.95 99.64 141.87 99.90 C 143.74 101.70 144.86 98.28 146.88 99.41 C 146.84 98.85 146.77 97.74 146.73 97.18 L 145.10 96.79 C 145.22 94.78 144.42 92.76 142.00 92.80 M 110.21 100.13 C 109.20 100.78 107.63 100.83 107.07 101.99 C 108.36 104.89 109.79 108.53 107.43 111.31 C 105.82 114.17 102.93 118.66 105.96 121.42 C 108.11 120.03 109.85 118.08 110.56 115.58 C 110.90 115.59 111.58 115.61 111.93 115.62 C 112.83 116.07 114.24 117.40 115.26 116.44 C 115.93 115.39 116.12 114.03 117.17 113.23 C 118.50 112.71 119.05 110.92 118.21 109.81 C 117.17 108.56 116.02 107.39 115.33 105.88 C 116.04 105.12 115.15 103.84 116.04 103.24 C 117.83 102.08 118.15 98.58 116.01 97.62 C 113.90 97.94 112.17 99.38 110.21 100.13 M 144.85 99.85 C 143.20 101.75 146.65 104.42 147.77 101.84 C 146.56 101.58 146.15 99.93 144.85 99.85 M 162.22 101.36 C 161.23 102.19 160.82 103.44 160.40 104.62 C 161.13 106.17 162.89 106.65 164.23 107.51 C 165.17 107.49 165.62 106.15 166.48 106.06 C 166.07 104.75 165.41 103.48 165.92 102.09 C 164.56 102.67 163.40 101.91 162.22 101.36 M 88.68 102.18 C 88.02 103.38 87.57 104.73 86.61 105.73 C 85.21 104.79 84.11 104.97 83.32 106.26 C 83.28 108.41 83.29 110.64 82.45 112.67 C 82.85 112.81 83.65 113.09 84.05 113.23 C 83.74 114.42 81.51 114.19 82.39 115.97 C 82.03 117.42 84.11 117.44 84.60 116.41 C 84.98 116.75 85.74 117.44 86.12 117.78 C 85.34 117.76 83.78 117.73 83.00 117.72 C 83.22 120.01 83.25 124.10 86.39 124.22 C 86.36 124.89 86.31 126.24 86.28 126.92 C 87.49 128.04 89.11 126.97 90.49 127.46 C 93.25 128.61 88.80 125.08 91.86 125.24 C 90.45 123.79 86.42 122.38 90.09 120.14 C 85.40 121.29 89.22 119.61 90.05 119.21 C 89.84 118.73 89.43 117.76 89.22 117.28 L 90.74 117.65 C 90.56 115.12 90.13 112.58 90.60 110.06 C 90.88 108.98 88.02 106.95 90.69 107.55 C 90.65 106.08 91.25 104.78 91.80 103.47 C 90.78 102.99 89.74 102.54 88.68 102.18 M 127.16 101.99 C 126.52 103.08 126.33 104.32 126.26 105.56 C 126.79 105.53 127.86 105.46 128.40 105.42 C 127.45 107.50 129.18 108.18 130.72 108.81 C 131.19 108.39 132.14 107.56 132.61 107.14 L 132.43 108.95 C 135.04 108.84 136.43 105.91 137.37 103.77 C 136.86 103.57 135.83 103.19 135.32 103.00 L 134.73 101.61 L 134.22 101.52 C 134.76 105.46 130.56 99.30 131.20 103.90 C 130.06 102.93 128.86 101.56 127.16 101.99 M 62.41 103.40 C 61.18 104.16 61.49 105.77 61.09 106.96 C 60.44 106.86 59.14 106.66 58.49 106.56 C 58.44 107.29 58.34 108.75 58.28 109.48 C 59.34 109.97 60.37 110.58 61.52 110.86 C 62.81 110.28 64.15 109.58 64.50 108.09 C 65.42 106.89 63.87 105.72 64.48 104.46 C 64.61 103.43 63.13 103.35 62.41 103.40 M 137.97 105.03 C 136.85 105.84 136.39 108.41 138.04 108.80 C 140.48 108.97 139.26 104.56 137.97 105.03 M 154.20 105.04 L 154.04 105.69 C 154.36 105.97 154.99 106.54 155.31 106.82 C 157.26 106.81 155.47 103.85 154.20 105.04 M 198.49 105.49 C 196.92 108.18 200.27 113.28 203.48 111.41 C 205.02 108.53 201.90 103.51 198.49 105.49 M 67.21 109.16 L 66.86 109.98 L 67.21 110.74 C 67.62 110.74 68.43 110.74 68.84 110.74 L 69.26 109.95 L 68.93 109.10 L 68.07 108.77 L 67.21 109.16 M 134.53 108.60 L 134.34 109.82 L 135.97 110.11 L 136.09 110.94 C 135.18 110.75 133.38 110.37 132.48 110.19 C 131.29 111.34 131.21 112.52 132.24 113.74 C 133.15 114.67 131.88 115.65 131.62 116.55 C 132.10 116.45 133.07 116.24 133.55 116.13 C 133.19 120.16 135.23 115.57 136.81 116.08 C 136.23 117.16 134.87 120.86 138.01 117.68 C 140.07 117.98 140.73 114.46 139.77 113.06 C 139.61 111.97 139.29 110.93 138.81 109.93 C 138.38 110.22 137.52 110.79 137.09 111.07 C 137.48 108.75 136.63 107.93 134.53 108.60 M 161.26 109.46 C 159.95 110.13 158.46 110.54 157.00 110.11 C 158.79 111.98 155.06 111.80 156.11 113.73 C 157.30 114.02 158.51 114.27 159.72 114.46 C 160.80 113.90 162.21 111.28 162.62 113.83 C 161.84 112.57 162.24 110.27 161.26 109.46 M 143.24 115.23 L 142.86 116.05 L 143.15 116.87 L 143.99 117.19 L 144.85 116.85 L 145.20 115.98 L 144.88 115.14 L 144.06 114.85 L 143.24 115.23 M 187.06 116.04 L 186.94 116.71 C 187.27 117.04 187.95 117.68 188.28 118.00 L 188.93 117.87 L 189.03 117.21 C 188.71 116.89 188.06 116.24 187.74 115.92 L 187.06 116.04 M 194.38 119.18 C 192.68 119.79 193.75 121.90 192.25 122.59 C 193.38 123.39 194.41 125.38 196.04 124.62 C 199.36 124.09 197.30 118.68 194.38 119.18 M 201.65 134.96 C 201.65 135.46 201.65 136.45 201.65 136.95 C 201.50 136.53 201.18 135.71 201.02 135.29 C 198.31 136.23 200.63 139.32 200.78 141.12 C 201.85 141.66 204.42 144.32 204.76 141.66 C 207.36 141.91 204.52 139.54 205.58 138.42 C 204.30 137.83 206.27 136.51 205.25 136.15 C 204.16 135.40 202.96 135.00 201.65 134.96 M 74.42 137.11 C 73.73 138.99 73.08 140.89 72.43 142.80 C 74.17 144.49 76.49 144.78 78.67 143.74 C 79.93 140.67 77.51 137.53 74.42 137.11 M 79.25 154.52 C 77.64 155.41 77.82 155.76 79.79 155.58 C 78.54 156.93 77.05 159.62 79.32 160.81 C 79.88 161.75 82.42 160.97 81.25 159.86 C 80.39 158.27 83.82 158.50 84.64 157.87 C 84.30 157.23 83.61 155.95 83.27 155.31 C 81.87 155.35 80.59 154.72 79.25 154.52 M 208.15 162.57 C 207.41 164.69 209.39 166.76 211.39 165.35 C 211.55 164.73 211.85 163.50 212.01 162.89 C 210.75 162.56 209.44 162.61 208.15 162.57 M 224.47 169.36 C 223.92 170.51 226.02 171.83 226.94 170.88 C 228.21 169.26 225.50 168.21 224.47 169.36 M 230.25 173.22 C 229.76 174.78 229.57 176.70 227.55 176.94 C 227.57 177.33 227.61 178.12 227.62 178.51 C 228.84 176.47 232.26 175.69 232.03 173.00 C 231.58 173.06 230.69 173.16 230.25 173.22 M 91.10 175.17 C 90.42 176.30 93.19 178.24 93.11 176.32 C 92.77 176.00 92.07 175.36 91.72 175.04 L 91.10 175.17 M 237.06 178.02 C 236.76 179.47 236.72 180.96 236.73 182.45 C 237.28 182.53 238.38 182.70 238.93 182.79 C 238.00 181.84 235.40 178.61 239.02 179.86 C 239.02 179.37 239.01 178.40 239.01 177.91 C 238.52 177.94 237.55 177.99 237.06 178.02 M 84.18 180.15 L 83.85 180.97 L 84.20 181.79 L 85.03 182.14 L 85.86 181.81 L 86.21 180.97 L 85.88 180.12 L 85.03 179.80 L 84.18 180.15 M 233.28 181.24 C 232.95 181.50 232.31 182.04 231.99 182.30 C 232.06 184.77 235.77 181.43 233.28 181.24 M 90.20 184.16 L 89.86 184.99 L 90.19 185.81 L 91.01 186.16 L 91.84 185.82 L 92.20 184.98 L 91.88 184.13 L 91.04 183.81 L 90.20 184.16 M 238.43 184.35 C 238.33 185.05 238.13 186.43 238.02 187.12 C 238.68 186.97 239.99 186.65 240.65 186.50 C 240.62 185.22 239.64 184.45 238.43 184.35 M 85.30 187.16 C 85.01 187.45 84.41 188.02 84.11 188.31 C 84.31 190.81 87.81 187.42 85.30 187.16 M 240.15 192.20 L 239.81 193.02 L 240.14 193.87 L 241.01 194.19 L 241.89 193.85 L 242.22 193.06 C 241.91 192.77 241.30 192.19 240.99 191.90 L 240.15 192.20 M 85.14 194.15 L 84.81 195.00 L 85.14 195.85 L 85.99 196.19 L 86.83 195.85 L 87.15 195.02 L 86.79 194.19 L 85.96 193.84 L 85.14 194.15 Z" />
</g>
<g id="#a8a8a8ff">
<path fill="#a8a8a8" opacity="1.00" d=" M 32.22 51.28 C 33.18 50.24 35.44 51.47 34.55 52.81 C 33.64 54.10 31.10 52.65 32.22 51.28 Z" />
</g>
<g id="#b0b0b0ff">
<path fill="#b0b0b0" opacity="1.00" d=" M 47.87 56.56 C 48.80 54.96 48.54 51.94 50.97 51.86 C 53.67 51.56 56.25 52.99 58.75 53.87 C 54.89 54.03 51.83 58.12 47.87 56.56 Z" />
</g>
<g id="#0b0b0bff">
<path fill="#0b0b0b" opacity="1.00" d=" M 85.78 52.13 L 86.89 52.11 C 90.01 53.56 87.88 57.87 89.60 60.36 C 90.36 61.68 89.33 64.08 91.11 64.67 C 93.51 65.31 94.72 67.83 97.16 68.32 C 100.73 69.86 104.11 72.28 108.08 72.60 C 113.92 72.48 118.06 78.22 124.00 77.73 C 128.39 77.41 132.72 78.20 137.10 78.31 C 142.70 79.62 148.27 80.85 154.02 81.21 C 160.58 82.70 167.37 81.13 173.96 82.36 C 181.48 83.50 188.55 86.42 195.99 87.90 C 198.11 88.93 199.96 90.44 202.02 91.58 C 204.35 91.83 206.76 91.80 208.91 90.74 C 214.65 91.11 220.31 89.89 225.71 88.01 C 233.14 86.73 240.28 83.84 246.80 80.08 C 249.56 77.40 253.46 76.45 256.43 74.06 C 258.41 72.74 260.43 71.11 262.94 71.08 C 266.81 71.05 270.76 70.72 274.55 71.67 C 275.59 72.05 275.73 73.23 275.51 74.18 C 271.77 75.71 267.79 76.52 264.02 77.94 C 260.11 81.75 255.46 84.73 251.46 88.47 C 247.90 90.40 244.42 92.47 240.93 94.53 C 237.25 96.06 233.46 97.46 230.04 99.54 C 225.88 101.34 221.31 101.48 216.86 101.81 C 215.09 102.58 214.95 104.97 215.37 106.60 C 217.73 107.87 220.34 109.28 221.25 111.99 C 221.05 116.67 225.10 120.33 224.75 125.01 C 224.72 131.67 224.61 138.34 224.77 145.00 C 225.73 147.97 225.67 151.15 226.78 154.07 C 228.01 157.45 226.80 161.59 229.18 164.55 C 231.21 167.11 232.77 170.22 235.88 171.63 C 239.08 174.65 242.56 177.42 246.49 179.46 C 247.46 181.56 249.96 181.84 251.37 183.41 C 251.40 187.95 251.48 192.61 252.92 196.97 L 251.20 196.72 C 251.64 196.91 252.53 197.27 252.98 197.45 C 253.24 201.43 254.83 205.10 255.20 209.08 C 256.25 212.28 256.98 215.60 256.87 218.99 C 256.80 220.77 258.36 222.34 257.68 224.14 C 257.08 225.89 256.53 227.87 254.94 228.97 C 254.88 228.45 254.75 227.40 254.68 226.87 C 256.59 223.83 255.20 220.34 255.28 217.03 C 255.22 213.88 253.68 211.02 253.39 207.91 C 253.26 205.42 251.39 203.41 251.52 200.85 C 250.50 195.43 250.21 189.91 249.36 184.46 C 247.22 182.60 244.98 180.83 242.57 179.34 C 239.18 177.10 236.32 174.15 232.89 171.96 C 231.10 170.88 230.23 168.87 228.84 167.39 C 225.18 163.18 226.22 157.25 224.66 152.25 C 224.46 150.54 224.23 148.82 223.40 147.29 C 222.96 139.53 223.41 131.74 223.19 123.98 C 222.71 121.64 221.35 119.60 220.54 117.37 C 219.58 115.22 219.46 112.79 218.34 110.70 C 218.04 110.48 217.44 110.03 217.15 109.81 C 215.56 108.53 213.90 107.34 212.40 105.96 C 212.74 105.30 213.06 104.63 213.37 103.96 C 213.78 102.87 214.22 101.80 214.68 100.74 C 216.47 99.53 218.74 100.08 220.73 99.51 C 223.96 98.51 227.55 99.12 230.60 97.49 C 233.22 96.07 235.80 94.58 238.55 93.43 C 242.46 91.69 246.05 89.12 250.32 88.27 C 250.61 87.71 251.19 86.59 251.48 86.02 C 253.98 83.75 255.75 80.63 258.80 79.03 C 261.03 77.68 263.36 76.40 265.91 75.76 C 267.89 75.30 269.79 74.30 271.01 72.64 C 266.97 72.59 262.35 71.66 258.98 74.50 C 256.53 76.55 253.57 77.78 250.89 79.47 C 243.26 85.10 234.04 88.04 224.90 90.12 C 220.43 91.77 215.67 92.19 210.95 92.21 C 207.38 92.78 203.61 94.03 200.06 92.78 C 196.76 90.39 193.09 88.30 188.90 88.24 C 187.68 88.71 186.74 89.75 185.41 89.97 C 183.91 89.17 184.06 87.64 184.14 86.19 C 181.11 85.64 178.08 85.10 175.11 84.31 C 168.89 82.66 162.40 84.23 156.12 83.26 C 152.86 82.29 149.43 82.61 146.11 82.05 C 141.22 80.78 136.23 79.82 131.18 79.53 C 128.98 79.18 126.69 78.36 124.50 79.14 C 124.24 79.77 123.72 81.03 123.46 81.66 C 121.94 83.00 119.68 82.48 117.83 82.64 C 117.26 82.55 116.13 82.36 115.56 82.27 C 115.85 80.77 117.72 79.49 117.47 77.98 C 113.91 76.13 110.20 74.29 106.14 73.90 C 105.80 75.38 107.84 78.79 105.00 78.26 C 104.33 81.25 107.00 76.96 108.11 79.03 C 107.89 78.46 107.45 77.32 107.23 76.75 C 109.24 76.50 109.51 78.65 110.23 79.91 C 111.71 79.85 113.24 79.14 114.69 79.78 C 114.49 80.55 114.09 82.09 113.89 82.87 C 112.80 83.90 111.30 84.35 110.05 85.17 C 109.54 85.51 108.51 86.21 108.00 86.56 C 106.40 84.83 108.29 82.86 108.02 81.05 C 105.35 82.54 101.19 83.89 99.14 80.73 C 99.62 79.74 100.22 78.84 100.96 78.02 C 101.10 78.53 101.40 79.55 101.54 80.05 C 101.56 79.44 101.61 78.21 101.63 77.60 C 102.28 77.88 103.56 78.44 104.20 78.72 C 103.42 77.60 102.63 76.48 101.72 75.46 C 100.11 75.22 98.49 74.84 97.21 73.79 C 97.25 72.57 97.30 71.35 97.35 70.13 C 94.80 69.73 93.06 67.86 91.07 66.44 C 88.56 65.79 85.98 67.28 83.50 66.10 C 82.91 64.48 83.14 62.71 83.02 61.03 C 84.22 59.98 85.02 58.02 86.93 58.56 C 86.56 58.46 85.81 58.25 85.43 58.15 C 85.46 56.14 85.60 54.13 85.78 52.13 M 86.13 61.11 L 85.83 61.92 C 86.14 62.23 86.75 62.85 87.06 63.16 L 87.88 62.87 L 88.18 62.05 L 87.79 61.21 L 86.95 60.81 L 86.13 61.11 M 101.38 72.10 C 101.00 73.45 101.52 74.04 102.93 73.86 C 103.29 72.53 102.77 71.94 101.38 72.10 Z" />
</g>
<g id="#d9d9d9ff">
<path fill="#d9d9d9" opacity="1.00" d=" M 50.19 59.01 C 53.38 58.73 55.83 56.51 58.93 55.90 C 58.94 56.67 58.96 58.20 58.98 58.97 C 57.82 59.46 56.63 59.87 55.53 60.47 C 53.11 62.61 52.95 66.12 53.14 69.12 C 55.34 70.35 56.17 72.68 57.71 74.51 C 57.79 76.73 58.12 78.93 58.43 81.13 C 56.42 81.11 56.27 78.72 55.45 77.40 C 54.61 77.48 53.77 77.60 52.94 77.76 L 53.09 77.26 C 53.56 75.12 54.64 72.97 54.30 70.74 C 53.63 70.56 52.30 70.19 51.64 70.00 C 49.28 67.00 51.97 62.69 49.60 59.76 L 50.19 59.01 Z" />
</g>
<g id="#7e7e7eff">
<path fill="#7e7e7e" opacity="1.00" d=" M 22.77 56.79 C 26.86 57.24 30.97 55.93 35.04 56.86 C 36.49 59.82 32.40 59.76 30.61 60.04 C 27.86 59.31 25.03 58.62 22.77 56.79 Z" />
<path fill="#7e7e7e" opacity="1.00" d=" M 110.59 113.16 C 110.79 110.21 111.01 104.85 115.33 105.88 C 116.02 107.39 117.17 108.56 118.21 109.81 C 117.61 109.73 116.40 109.57 115.80 109.49 C 115.33 108.93 114.41 107.81 113.95 107.26 C 111.33 108.11 112.81 111.80 113.42 113.72 C 113.18 114.02 112.71 114.64 112.48 114.95 C 112.01 114.51 111.06 113.61 110.59 113.16 Z" />
</g>
<g id="#686868ff">
<path fill="#686868" opacity="1.00" d=" M 75.22 57.26 L 75.77 57.26 L 75.77 57.81 L 75.22 57.81 L 75.22 57.26 Z" />
</g>
<g id="#efefefff">
<path fill="#efefef" opacity="1.00" d=" M 76.95 56.76 C 77.47 56.71 78.52 56.59 79.04 56.53 C 78.94 58.54 78.94 60.55 79.09 62.56 C 80.41 62.06 81.70 61.51 83.02 61.03 C 83.14 62.71 82.91 64.48 83.50 66.10 C 84.35 67.49 86.03 67.88 87.19 68.93 C 87.93 69.80 88.11 70.96 88.32 72.04 C 85.62 72.31 84.21 74.93 81.91 76.03 C 80.22 76.37 81.15 78.34 81.85 79.16 C 83.33 80.27 80.31 81.82 81.90 82.89 C 82.32 83.21 83.16 83.85 83.59 84.17 C 84.21 85.71 81.91 85.51 81.69 86.75 C 81.35 88.45 82.05 90.39 80.84 91.85 C 78.50 95.49 76.87 99.63 73.51 102.52 C 72.99 102.36 71.93 102.03 71.40 101.86 C 71.35 101.18 71.21 100.51 70.98 99.87 C 69.20 97.77 71.76 95.95 73.01 94.38 C 74.43 93.47 74.44 92.55 73.04 91.62 C 74.74 89.73 76.81 87.73 76.92 85.02 C 77.43 81.52 75.97 78.04 76.68 74.56 C 77.65 73.99 78.61 73.40 79.55 72.79 C 79.06 71.63 78.48 70.51 77.98 69.36 C 78.39 68.20 82.09 65.11 78.15 67.20 C 79.33 64.71 76.15 65.38 74.96 64.51 C 74.65 64.09 74.02 63.24 73.70 62.82 C 73.79 62.36 73.97 61.44 74.06 60.98 C 74.59 61.26 75.65 61.82 76.19 62.10 C 79.14 61.54 77.05 58.65 76.95 56.76 Z" />
<path fill="#efefef" opacity="1.00" d=" M 180.17 103.05 C 182.79 106.20 178.85 109.52 179.57 112.95 C 179.47 114.43 180.59 115.51 181.23 116.74 C 183.16 119.67 182.76 123.34 183.44 126.64 C 184.67 128.34 186.46 129.52 187.99 130.94 C 188.26 131.55 188.80 132.79 189.08 133.40 C 189.42 134.81 190.00 136.23 189.77 137.70 C 188.25 138.69 187.42 136.22 186.39 135.49 C 185.73 136.59 185.11 137.71 184.52 138.84 C 183.51 137.38 182.83 135.65 181.51 134.44 C 179.33 132.99 176.90 131.87 174.32 131.36 C 173.88 130.93 172.99 130.07 172.55 129.64 C 167.41 128.91 162.20 129.24 157.03 129.22 C 156.82 127.65 155.21 125.57 156.82 124.29 C 157.36 124.36 158.44 124.48 158.98 124.54 C 161.86 121.64 165.51 119.72 169.06 117.76 C 172.48 116.66 175.27 114.27 177.40 111.43 C 177.36 110.60 177.29 109.77 177.20 108.94 C 177.91 108.11 178.65 107.30 179.27 106.39 C 179.03 105.99 178.56 105.18 178.32 104.77 C 179.73 105.01 180.34 104.43 180.17 103.05 Z" />
<path fill="#efefef" opacity="1.00" d=" M 216.85 116.13 C 218.59 117.40 217.67 120.11 218.19 121.97 C 218.77 124.42 217.61 126.67 217.06 128.99 C 216.63 131.83 218.54 134.25 218.88 136.98 C 219.09 139.22 218.98 141.47 218.90 143.71 C 217.73 144.19 216.40 144.54 215.77 145.76 C 214.32 147.24 214.27 149.29 214.37 151.23 C 214.39 151.82 214.42 152.99 214.44 153.58 C 215.96 153.59 217.61 153.83 219.04 153.20 C 220.06 152.33 220.56 151.04 221.37 150.00 C 222.84 148.44 223.75 151.50 224.66 152.25 C 226.22 157.25 225.18 163.18 228.84 167.39 C 227.20 168.00 225.67 167.85 224.35 166.75 C 222.96 166.94 221.61 167.37 220.23 167.56 C 218.85 166.29 218.54 164.16 217.18 162.81 C 214.97 160.60 214.48 157.45 213.53 154.60 C 212.43 150.79 210.66 147.02 211.02 142.95 C 211.30 137.98 210.46 133.02 210.88 128.06 C 212.17 128.21 213.47 128.42 214.78 128.48 C 215.22 127.77 215.59 127.02 215.91 126.25 C 217.35 123.08 216.85 119.50 216.85 116.13 Z" />
</g>
<g id="#1a1a1aff">
<path fill="#1a1a1a" opacity="1.00" d=" M 45.32 58.75 C 45.89 58.54 47.01 58.12 47.57 57.91 C 47.71 59.36 48.39 59.98 49.60 59.76 C 51.97 62.69 49.28 67.00 51.64 70.00 C 52.30 70.19 53.63 70.56 54.30 70.74 C 54.64 72.97 53.56 75.12 53.09 77.26 C 50.48 77.87 48.89 75.60 47.13 74.16 C 46.82 75.33 46.71 76.53 46.80 77.74 C 46.60 82.30 47.78 86.61 48.94 90.96 C 50.14 90.77 51.32 90.53 52.49 90.24 C 51.82 87.12 50.05 84.44 48.04 82.03 C 48.41 81.50 49.15 80.44 49.52 79.91 C 51.48 81.06 53.01 82.72 54.37 84.51 C 55.13 84.54 56.66 84.60 57.42 84.63 L 58.33 85.39 C 57.65 86.67 56.51 87.54 55.45 88.47 C 56.62 91.26 56.48 94.30 56.33 97.26 C 55.06 99.91 51.98 97.89 50.04 97.20 C 50.01 99.25 50.04 101.29 50.00 103.34 C 49.95 105.33 49.95 107.32 49.96 109.32 C 49.29 112.74 48.05 116.24 49.13 119.74 C 49.53 121.87 50.11 123.97 50.37 126.13 L 49.17 126.77 C 48.06 122.95 46.98 119.02 47.20 115.00 C 47.01 111.92 48.69 109.11 48.62 106.03 C 48.63 102.00 48.81 97.93 48.03 93.95 L 50.07 94.28 L 50.27 95.88 L 50.93 95.91 C 50.97 93.73 49.43 93.54 47.68 93.71 C 47.12 91.09 47.26 88.32 45.78 85.97 C 45.56 82.34 45.92 78.70 45.38 75.09 C 44.90 71.35 45.67 67.63 45.71 63.89 C 45.89 63.58 46.27 62.97 46.46 62.66 C 47.31 63.41 47.64 64.46 47.45 65.80 C 48.17 65.06 48.87 64.31 49.57 63.56 C 46.96 63.72 46.12 60.68 45.32 58.75 M 47.20 71.26 L 47.20 71.78 L 47.72 71.78 L 47.72 71.26 L 47.20 71.26 Z" />
<path fill="#1a1a1a" opacity="1.00" d=" M 88.41 84.47 C 88.79 84.36 89.56 84.14 89.94 84.04 C 88.99 86.93 87.86 89.80 86.16 92.34 C 83.74 95.91 82.52 100.14 80.05 103.67 C 79.64 103.64 78.82 103.57 78.41 103.53 C 78.96 101.91 80.33 100.75 81.05 99.21 C 82.55 96.04 83.87 92.77 85.86 89.86 C 87.06 88.23 87.05 85.96 88.41 84.47 Z" />
</g>
<g id="#e0e0e0ff">
<path fill="#e0e0e0" opacity="1.00" d=" M 43.97 61.03 C 43.95 59.94 44.40 59.18 45.32 58.75 C 46.12 60.68 46.96 63.72 49.57 63.56 C 48.87 64.31 48.17 65.06 47.45 65.80 C 47.64 64.46 47.31 63.41 46.46 62.66 C 45.62 62.12 44.79 61.58 43.97 61.03 Z" />
<path fill="#e0e0e0" opacity="1.00" d=" M 135.22 130.13 C 135.80 131.05 136.36 132.03 137.21 132.75 C 141.09 132.45 144.95 131.78 148.80 131.14 C 149.18 132.10 149.54 133.07 149.88 134.05 C 147.57 134.75 145.18 135.15 142.87 135.88 C 140.77 136.53 138.68 137.34 136.88 138.63 C 134.10 140.77 130.54 141.34 127.37 142.69 C 125.44 142.62 123.46 142.66 121.82 143.83 C 118.81 145.76 115.04 145.44 111.99 147.28 C 108.67 147.42 105.76 148.99 102.94 150.60 C 102.27 150.85 100.93 151.34 100.26 151.59 C 99.95 146.71 100.36 141.83 100.69 136.97 C 101.30 134.50 103.95 133.19 104.18 130.52 C 105.78 130.08 105.86 131.84 106.65 132.63 C 107.17 132.83 108.22 133.22 108.74 133.41 C 110.40 134.70 110.65 136.81 111.37 138.63 C 112.56 139.75 114.28 140.72 115.96 140.16 C 119.72 139.10 123.20 137.24 126.94 136.11 C 130.15 135.73 123.24 133.59 126.48 133.07 L 127.02 133.22 C 129.10 133.99 131.41 133.87 133.55 133.39 C 134.61 132.67 134.67 131.19 135.22 130.13 Z" />
<path fill="#e0e0e0" opacity="1.00" d=" M 171.77 132.71 C 174.89 132.53 177.20 134.78 179.99 135.70 C 181.70 137.46 182.51 139.95 184.44 141.54 C 189.10 145.89 194.48 150.26 195.95 156.80 C 192.27 156.08 188.81 154.43 185.77 152.25 C 184.07 151.03 183.79 148.82 183.15 146.98 C 179.42 144.31 177.92 139.53 175.03 136.05 C 174.08 134.79 172.35 134.24 171.77 132.71 Z" />
<path fill="#e0e0e0" opacity="1.00" d=" M 221.35 181.60 C 225.32 183.25 227.92 186.95 230.88 189.90 C 231.47 193.02 232.41 196.08 232.67 199.26 C 231.62 201.40 229.71 203.52 227.09 202.94 C 224.11 202.11 220.09 202.94 218.26 199.89 C 219.77 197.94 222.10 196.67 223.09 194.33 C 223.43 190.40 223.64 186.13 221.43 182.65 L 221.35 181.60 Z" />
</g>
<g id="#edededff">
<path fill="#ededed" opacity="1.00" d=" M 55.53 60.47 C 56.63 59.87 57.82 59.46 58.98 58.97 C 58.92 64.17 58.38 69.36 57.71 74.51 C 56.17 72.68 55.34 70.35 53.14 69.12 C 52.95 66.12 53.11 62.61 55.53 60.47 Z" />
</g>
<g id="#747474ff">
<path fill="#747474" opacity="1.00" d=" M 86.13 61.11 L 86.95 60.81 L 87.79 61.21 L 88.18 62.05 L 87.88 62.87 L 87.06 63.16 C 86.75 62.85 86.14 62.23 85.83 61.92 L 86.13 61.11 Z" />
<path fill="#747474" opacity="1.00" d=" M 101.38 72.10 C 102.77 71.94 103.29 72.53 102.93 73.86 C 101.52 74.04 101.00 73.45 101.38 72.10 Z" />
<path fill="#747474" opacity="1.00" d=" M 71.12 161.14 C 71.16 159.44 72.81 159.36 74.04 158.98 L 74.79 158.84 C 75.35 160.23 75.91 161.62 76.52 162.99 C 76.67 162.49 76.96 161.49 77.11 161.00 C 78.06 167.23 79.12 173.44 78.95 179.78 C 78.99 183.66 76.97 187.92 79.12 191.48 C 79.21 194.60 79.39 197.76 78.67 200.82 C 78.09 203.00 77.66 205.21 77.19 207.42 C 75.92 204.06 76.68 200.46 76.66 196.98 C 76.66 193.97 76.93 190.98 77.25 187.99 C 77.72 184.29 76.40 180.71 76.41 177.02 C 76.25 174.33 76.57 171.30 75.04 168.96 C 72.99 167.37 70.43 166.67 68.29 165.22 C 68.56 164.71 69.09 163.67 69.36 163.15 C 71.09 164.96 73.17 167.45 75.96 167.07 C 75.67 164.42 74.58 160.37 71.12 161.14 Z" />
<path fill="#747474" opacity="1.00" d=" M 238.43 184.35 C 239.64 184.45 240.62 185.22 240.65 186.50 C 239.99 186.65 238.68 186.97 238.02 187.12 C 238.13 186.43 238.33 185.05 238.43 184.35 Z" />
</g>
<g id="#545454ff">
<path fill="#545454" opacity="1.00" d=" M 75.10 70.15 L 75.88 70.15 L 76.26 70.93 L 75.87 71.69 L 75.10 71.69 L 74.72 70.93 L 75.10 70.15 Z" />
</g>
<g id="#050505ff">
<path fill="#050505" opacity="1.00" d=" M 81.91 76.03 C 84.21 74.93 85.62 72.31 88.32 72.04 C 88.83 74.58 89.33 77.13 89.86 79.66 C 89.34 79.50 88.29 79.16 87.77 78.99 C 87.72 79.41 87.61 80.26 87.56 80.68 C 87.10 80.47 86.18 80.04 85.73 79.83 C 85.71 80.52 85.67 81.90 85.65 82.59 C 85.27 82.25 84.52 81.57 84.14 81.23 C 84.00 81.96 83.72 83.43 83.59 84.17 C 83.16 83.85 82.32 83.21 81.90 82.89 C 80.31 81.82 83.33 80.27 81.85 79.16 C 81.15 78.34 80.22 76.37 81.91 76.03 Z" />
<path fill="#050505" opacity="1.00" d=" M 176.64 85.23 C 177.31 85.38 178.65 85.66 179.32 85.81 L 179.89 87.12 C 179.09 88.71 178.01 92.60 175.48 90.08 L 175.03 88.73 L 176.87 88.63 C 174.52 88.54 175.14 86.03 176.64 85.23 Z" />
<path fill="#050505" opacity="1.00" d=" M 62.41 103.40 C 63.13 103.35 64.61 103.43 64.48 104.46 C 63.87 105.72 65.42 106.89 64.50 108.09 C 64.15 109.58 62.81 110.28 61.52 110.86 C 60.37 110.58 59.34 109.97 58.28 109.48 C 58.34 108.75 58.44 107.29 58.49 106.56 C 59.14 106.66 60.44 106.86 61.09 106.96 C 61.49 105.77 61.18 104.16 62.41 103.40 Z" />
<path fill="#050505" opacity="1.00" d=" M 127.06 118.95 C 122.31 120.90 125.89 118.13 126.99 117.97 C 128.46 118.85 129.86 119.85 131.16 120.96 C 132.28 123.10 132.14 125.97 134.52 127.30 C 134.30 128.75 134.21 130.27 133.55 131.60 C 131.59 132.70 129.17 132.66 127.02 133.22 L 126.48 133.07 C 126.42 132.67 126.29 131.86 126.23 131.46 L 125.24 131.00 C 124.21 129.59 123.42 128.05 122.66 126.50 C 123.22 126.12 124.33 125.38 124.89 125.01 C 126.39 123.28 125.18 120.57 127.06 118.95 M 130.27 127.26 L 130.27 127.78 L 130.79 127.78 L 130.79 127.26 L 130.27 127.26 Z" />
<path fill="#050505" opacity="1.00" d=" M 194.38 119.18 C 197.30 118.68 199.36 124.09 196.04 124.62 C 194.41 125.38 193.38 123.39 192.25 122.59 C 193.75 121.90 192.68 119.79 194.38 119.18 Z" />
<path fill="#050505" opacity="1.00" d=" M 208.33 120.51 C 209.64 119.97 210.82 120.06 211.85 120.78 C 213.59 121.81 210.29 126.06 213.41 124.68 C 215.26 124.50 214.88 125.62 214.15 126.73 C 212.40 126.38 210.72 127.05 209.06 127.48 C 207.50 125.43 206.50 122.77 208.33 120.51 Z" />
<path fill="#050505" opacity="1.00" d=" M 201.65 134.96 C 202.96 135.00 204.16 135.40 205.25 136.15 C 206.27 136.51 204.30 137.83 205.58 138.42 C 204.52 139.54 207.36 141.91 204.76 141.66 C 204.42 144.32 201.85 141.66 200.78 141.12 C 200.63 139.32 198.31 136.23 201.02 135.29 C 201.18 135.71 201.50 136.53 201.65 136.95 C 201.65 136.45 201.65 135.46 201.65 134.96 Z" />
<path fill="#050505" opacity="1.00" d=" M 98.70 148.03 C 99.95 144.46 100.18 140.68 100.69 136.97 C 100.36 141.83 99.95 146.71 100.26 151.59 C 100.93 151.34 102.27 150.85 102.94 150.60 C 103.42 150.92 104.38 151.56 104.85 151.87 C 103.60 153.51 100.28 151.23 99.74 153.81 C 99.87 157.94 99.07 161.96 98.97 166.07 C 98.46 168.09 96.98 169.89 97.20 172.07 C 97.52 175.47 95.78 178.61 95.94 182.01 C 94.93 189.36 93.81 196.70 92.17 203.94 C 91.45 208.26 91.34 212.65 91.31 217.02 C 90.52 218.03 89.60 218.92 88.82 219.94 C 87.72 223.79 86.00 227.45 85.26 231.41 C 83.51 233.94 81.65 236.46 79.22 238.40 C 76.88 238.30 74.39 238.81 72.14 238.07 C 70.50 236.95 68.63 237.73 66.92 238.07 C 65.57 237.66 63.85 237.39 63.05 236.10 C 63.14 235.40 63.32 234.00 63.41 233.30 L 64.09 233.22 C 64.39 233.47 64.98 233.97 65.28 234.22 C 65.35 234.61 65.48 235.39 65.54 235.78 L 65.91 235.85 C 66.41 235.38 67.41 234.44 67.92 233.98 C 68.05 236.58 70.39 236.06 72.21 235.97 C 72.59 234.04 73.43 231.93 75.61 231.47 C 74.94 233.16 74.46 234.89 74.19 236.68 C 77.26 235.52 81.03 234.78 82.90 231.78 C 85.48 226.66 85.59 220.25 89.71 215.95 C 89.04 209.88 90.12 203.76 91.64 197.88 C 92.04 195.09 91.39 192.16 92.58 189.51 C 94.46 185.54 92.90 181.07 94.05 176.97 C 95.89 170.39 95.84 163.41 98.27 156.99 C 98.31 153.99 99.01 151.02 98.70 148.03 Z" />
<path fill="#050505" opacity="1.00" d=" M 63.32 167.33 C 63.49 165.63 63.92 163.98 64.36 162.35 C 64.47 164.94 64.63 167.54 64.99 170.11 C 66.15 171.89 66.31 173.99 66.92 175.97 C 68.45 178.35 70.92 179.92 73.37 181.24 C 73.50 183.66 71.69 186.12 69.20 186.24 C 67.86 184.42 68.86 181.91 67.40 180.08 C 67.00 184.10 66.10 188.64 68.45 192.24 C 68.64 193.43 68.80 194.62 68.93 195.82 C 68.15 202.07 68.94 208.38 68.47 214.64 C 68.30 216.13 67.10 217.25 65.92 218.03 C 64.03 219.36 62.62 221.22 61.12 222.95 C 60.56 223.82 59.51 224.66 59.81 225.82 C 61.26 225.85 62.71 225.89 64.16 225.94 C 65.22 226.63 65.68 227.86 66.47 228.80 C 67.84 229.06 68.96 228.04 70.06 227.39 C 71.99 225.95 74.37 224.56 74.91 222.01 C 75.89 219.12 77.33 216.20 76.81 213.06 C 76.68 211.16 76.81 209.27 77.19 207.42 C 77.66 205.21 78.09 203.00 78.67 200.82 C 78.08 206.17 78.68 211.57 78.33 216.93 C 77.42 220.00 76.52 223.13 75.05 225.99 C 72.90 227.58 70.38 228.71 68.70 230.88 C 67.72 230.37 66.76 230.38 65.82 230.91 C 65.43 231.24 64.65 231.91 64.26 232.24 C 66.66 230.24 62.31 230.23 62.08 228.40 C 60.66 228.01 58.56 229.00 57.76 227.37 C 57.80 224.99 59.18 222.91 60.61 221.11 C 62.17 219.20 63.40 216.80 65.86 215.93 C 66.26 214.60 67.64 213.64 67.44 212.13 C 67.56 206.05 68.04 199.93 67.26 193.87 C 64.65 188.94 66.64 183.15 65.85 177.91 C 64.52 174.52 63.22 171.04 63.32 167.33 Z" />
<path fill="#050505" opacity="1.00" d=" M 79.12 191.48 C 76.97 187.92 78.99 183.66 78.95 179.78 C 79.66 183.64 79.50 187.60 79.12 191.48 Z" />
<path fill="#050505" opacity="1.00" d=" M 233.28 181.24 C 235.77 181.43 232.06 184.77 231.99 182.30 C 232.31 182.04 232.95 181.50 233.28 181.24 Z" />
<path fill="#050505" opacity="1.00" d=" M 66.41 231.82 C 66.92 231.79 67.94 231.73 68.45 231.70 C 69.71 234.04 66.24 234.07 66.41 231.82 Z" />
<path fill="#050505" opacity="1.00" d=" M 65.28 234.22 C 65.42 233.97 65.69 233.46 65.83 233.21 C 65.69 233.46 65.42 233.97 65.28 234.22 Z" />
</g>
<g id="#828282ff">
<path fill="#828282" opacity="1.00" d=" M 47.13 74.16 C 48.89 75.60 50.48 77.87 53.09 77.26 L 52.94 77.76 C 52.80 78.19 52.53 79.07 52.39 79.51 C 53.90 81.38 55.63 83.04 57.42 84.63 C 56.66 84.60 55.13 84.54 54.37 84.51 C 53.01 82.72 51.48 81.06 49.52 79.91 C 49.65 78.86 49.96 77.61 48.95 76.84 C 48.41 77.07 47.34 77.51 46.80 77.74 C 46.71 76.53 46.82 75.33 47.13 74.16 Z" />
</g>
<g id="#bdbdbdff">
<path fill="#bdbdbd" opacity="1.00" d=" M 46.80 77.74 C 47.34 77.51 48.41 77.07 48.95 76.84 C 49.96 77.61 49.65 78.86 49.52 79.91 C 49.15 80.44 48.41 81.50 48.04 82.03 C 50.05 84.44 51.82 87.12 52.49 90.24 C 51.32 90.53 50.14 90.77 48.94 90.96 C 47.78 86.61 46.60 82.30 46.80 77.74 Z" />
<path fill="#bdbdbd" opacity="1.00" d=" M 213.87 119.68 C 213.69 117.84 214.09 116.17 216.00 115.46 L 216.85 116.13 C 216.85 119.50 217.35 123.08 215.91 126.25 C 216.01 124.16 216.12 122.07 216.07 119.99 C 215.52 119.91 214.42 119.76 213.87 119.68 Z" />
</g>
<g id="#949494ff">
<path fill="#949494" opacity="1.00" d=" M 124.50 79.14 C 126.69 78.36 128.98 79.18 131.18 79.53 C 129.44 79.57 127.69 79.63 125.98 79.93 C 125.78 80.55 125.37 81.79 125.17 82.41 C 122.78 83.97 119.77 84.49 116.97 84.04 C 117.18 83.69 117.62 82.99 117.83 82.64 C 119.68 82.48 121.94 83.00 123.46 81.66 C 123.72 81.03 124.24 79.77 124.50 79.14 Z" />
</g>
<g id="#5f5f5fff">
<path fill="#5f5f5f" opacity="1.00" d=" M 114.69 79.78 C 115.19 82.73 114.43 85.80 113.67 88.65 C 112.63 88.80 111.61 88.73 110.60 88.46 C 110.37 87.37 110.19 86.27 110.05 85.17 C 111.30 84.35 112.80 83.90 113.89 82.87 C 114.09 82.09 114.49 80.55 114.69 79.78 Z" />
</g>
<g id="#252525ff">
<path fill="#252525" opacity="1.00" d=" M 67.14 81.14 L 67.99 80.81 L 68.82 81.15 L 69.15 81.98 L 68.79 82.81 L 67.97 83.17 L 67.15 82.84 L 66.82 82.00 L 67.14 81.14 Z" />
<path fill="#252525" opacity="1.00" d=" M 156.16 92.14 L 157.01 91.79 L 157.85 92.13 L 158.14 92.96 L 157.76 93.78 L 156.94 94.16 L 156.13 93.85 L 155.81 93.01 L 156.16 92.14 Z" />
</g>
<g id="#040404ff">
<path fill="#040404" opacity="1.00" d=" M 152.52 84.26 C 154.09 84.07 155.54 85.32 157.15 85.39 C 159.27 87.01 156.28 90.50 154.42 88.45 C 153.93 86.93 152.86 87.53 152.22 88.59 C 150.34 89.22 150.90 86.49 150.23 85.50 C 151.61 86.39 152.22 85.76 152.52 84.26 Z" />
<path fill="#040404" opacity="1.00" d=" M 142.18 86.19 C 143.02 86.96 143.81 86.83 144.73 86.48 C 145.29 87.56 145.92 88.94 145.25 90.12 C 144.18 90.53 143.08 90.89 142.21 91.68 C 140.99 90.28 140.55 87.43 142.18 86.19 Z" />
<path fill="#040404" opacity="1.00" d=" M 144.85 99.85 C 146.15 99.93 146.56 101.58 147.77 101.84 C 146.65 104.42 143.20 101.75 144.85 99.85 Z" />
<path fill="#040404" opacity="1.00" d=" M 88.68 102.18 C 89.74 102.54 90.78 102.99 91.80 103.47 C 91.25 104.78 90.65 106.08 90.69 107.55 C 88.02 106.95 90.88 108.98 90.60 110.06 C 90.13 112.58 90.56 115.12 90.74 117.65 L 89.22 117.28 C 89.43 117.76 89.84 118.73 90.05 119.21 C 89.22 119.61 85.40 121.29 90.09 120.14 C 86.42 122.38 90.45 123.79 91.86 125.24 C 88.80 125.08 93.25 128.61 90.49 127.46 C 89.11 126.97 87.49 128.04 86.28 126.92 C 86.31 126.24 86.36 124.89 86.39 124.22 C 83.25 124.10 83.22 120.01 83.00 117.72 C 83.78 117.73 85.34 117.76 86.12 117.78 C 85.74 117.44 84.98 116.75 84.60 116.41 C 84.11 117.44 82.03 117.42 82.39 115.97 C 81.51 114.19 83.74 114.42 84.05 113.23 C 83.65 113.09 82.85 112.81 82.45 112.67 C 83.29 110.64 83.28 108.41 83.32 106.26 C 84.11 104.97 85.21 104.79 86.61 105.73 C 87.57 104.73 88.02 103.38 88.68 102.18 M 86.12 111.39 L 85.74 112.14 L 86.12 112.92 L 86.90 112.91 L 87.27 112.13 L 86.88 111.39 L 86.12 111.39 Z" />
<path fill="#040404" opacity="1.00" d=" M 137.97 105.03 C 139.26 104.56 140.48 108.97 138.04 108.80 C 136.39 108.41 136.85 105.84 137.97 105.03 Z" />
<path fill="#040404" opacity="1.00" d=" M 67.21 109.16 L 68.07 108.77 L 68.93 109.10 L 69.26 109.95 L 68.84 110.74 C 68.43 110.74 67.62 110.74 67.21 110.74 L 66.86 109.98 L 67.21 109.16 Z" />
<path fill="#040404" opacity="1.00" d=" M 134.53 108.60 C 136.63 107.93 137.48 108.75 137.09 111.07 C 137.52 110.79 138.38 110.22 138.81 109.93 C 139.29 110.93 139.61 111.97 139.77 113.06 C 138.37 114.19 137.57 115.87 138.01 117.68 C 134.87 120.86 136.23 117.16 136.81 116.08 C 135.23 115.57 133.19 120.16 133.55 116.13 C 133.07 116.24 132.10 116.45 131.62 116.55 C 131.88 115.65 133.15 114.67 132.24 113.74 C 131.21 112.52 131.29 111.34 132.48 110.19 C 133.38 110.37 135.18 110.75 136.09 110.94 L 135.97 110.11 L 134.34 109.82 L 134.53 108.60 Z" />
<path fill="#040404" opacity="1.00" d=" M 161.26 109.46 C 162.24 110.27 161.84 112.57 162.62 113.83 C 162.21 111.28 160.80 113.90 159.72 114.46 C 158.51 114.27 157.30 114.02 156.11 113.73 C 155.06 111.80 158.79 111.98 157.00 110.11 C 158.46 110.54 159.95 110.13 161.26 109.46 Z" />
<path fill="#040404" opacity="1.00" d=" M 79.25 154.52 C 80.59 154.72 81.87 155.35 83.27 155.31 C 83.61 155.95 84.30 157.23 84.64 157.87 C 83.82 158.50 80.39 158.27 81.25 159.86 C 82.42 160.97 79.88 161.75 79.32 160.81 C 77.05 159.62 78.54 156.93 79.79 155.58 C 77.82 155.76 77.64 155.41 79.25 154.52 Z" />
<path fill="#040404" opacity="1.00" d=" M 224.47 169.36 C 225.50 168.21 228.21 169.26 226.94 170.88 C 226.02 171.83 223.92 170.51 224.47 169.36 Z" />
<path fill="#040404" opacity="1.00" d=" M 91.10 175.17 L 91.72 175.04 C 92.07 175.36 92.77 176.00 93.11 176.32 C 93.19 178.24 90.42 176.30 91.10 175.17 Z" />
</g>
<g id="#ccccccff">
<path fill="#cccccc" opacity="1.00" d=" M 243.48 87.72 C 245.96 86.77 248.81 84.44 251.48 86.02 C 251.19 86.59 250.61 87.71 250.32 88.27 C 246.05 89.12 242.46 91.69 238.55 93.43 C 235.80 94.58 233.22 96.07 230.60 97.49 C 227.55 99.12 223.96 98.51 220.73 99.51 C 221.32 98.33 221.98 97.19 222.84 96.18 C 224.85 95.98 226.89 95.99 228.89 95.61 C 230.82 94.25 232.36 92.31 234.66 91.49 C 237.63 90.31 240.78 89.52 243.48 87.72 Z" />
</g>
<g id="#1e1e1eff">
<path fill="#1e1e1e" opacity="1.00" d=" M 73.01 94.38 C 71.66 93.51 71.67 92.59 73.04 91.62 C 74.44 92.55 74.43 93.47 73.01 94.38 Z" />
</g>
<g id="#dfdfdfff">
<path fill="#dfdfdf" opacity="1.00" d=" M 212.53 98.47 C 215.54 96.48 219.39 96.71 222.84 96.18 C 221.98 97.19 221.32 98.33 220.73 99.51 C 218.74 100.08 216.47 99.53 214.68 100.74 C 214.22 101.80 213.78 102.87 213.37 103.96 C 212.31 103.70 211.25 103.42 210.18 103.23 C 210.05 104.30 209.97 105.39 209.94 106.48 C 208.27 105.29 206.41 104.39 204.81 103.12 C 203.98 102.34 204.16 100.90 205.29 100.51 C 207.76 100.46 210.21 100.86 212.69 100.78 C 212.63 100.01 212.58 99.24 212.53 98.47 Z" />
<path fill="#dfdfdf" opacity="1.00" d=" M 59.60 122.04 C 59.98 123.79 60.22 125.70 59.25 127.31 C 58.14 128.99 59.02 131.02 59.58 132.73 C 61.26 134.02 63.27 134.82 64.96 136.11 C 65.15 137.87 65.05 139.65 65.15 141.42 C 67.81 140.98 69.42 143.17 70.91 145.00 C 70.54 145.18 69.81 145.54 69.44 145.72 C 69.31 150.56 72.23 154.69 74.04 158.98 C 72.81 159.36 71.16 159.44 71.12 161.14 C 70.68 161.64 69.80 162.65 69.36 163.15 C 69.09 163.67 68.56 164.71 68.29 165.22 C 67.27 163.79 66.58 161.77 64.36 162.35 C 64.37 160.17 62.17 157.54 64.32 155.92 C 64.45 153.60 63.72 151.25 62.96 149.09 C 60.45 147.15 58.87 144.41 58.17 141.34 C 59.99 141.33 61.81 141.52 63.63 141.47 C 63.51 139.49 62.99 137.56 62.26 135.73 C 59.89 134.24 57.34 134.95 54.88 135.65 C 53.32 132.94 52.83 129.81 51.74 126.91 C 51.72 126.08 51.69 124.43 51.67 123.60 C 54.37 123.36 57.60 124.46 59.60 122.04 Z" />
</g>
<g id="#e2e2e2ff">
<path fill="#e2e2e2" opacity="1.00" d=" M 110.21 100.13 C 112.17 99.38 113.90 97.94 116.01 97.62 C 118.15 98.58 117.83 102.08 116.04 103.24 C 115.15 103.84 116.04 105.12 115.33 105.88 C 111.01 104.85 110.79 110.21 110.59 113.16 C 111.06 113.61 112.01 114.51 112.48 114.95 L 111.93 115.62 C 111.58 115.61 110.90 115.59 110.56 115.58 C 109.85 118.08 108.11 120.03 105.96 121.42 C 102.93 118.66 105.82 114.17 107.43 111.31 C 109.79 108.53 108.36 104.89 107.07 101.99 C 107.63 100.83 109.20 100.78 110.21 100.13 Z" />
</g>
<g id="#7d7d7dff">
<path fill="#7d7d7d" opacity="1.00" d=" M 50.00 103.34 C 51.22 101.77 52.88 101.00 54.84 101.47 C 55.36 104.07 56.19 106.59 56.83 109.16 C 57.26 111.37 55.37 113.94 53.00 113.24 C 52.08 111.86 51.62 110.05 49.96 109.32 C 49.95 107.32 49.95 105.33 50.00 103.34 M 51.77 102.75 C 51.07 105.61 51.88 108.51 53.10 111.09 C 54.51 112.77 56.53 109.84 55.39 108.61 C 53.59 106.85 55.57 101.90 51.77 102.75 Z" />
</g>
<g id="#212121ff">
<path fill="#212121" opacity="1.00" d=" M 51.77 102.75 C 55.57 101.90 53.59 106.85 55.39 108.61 C 56.53 109.84 54.51 112.77 53.10 111.09 C 51.88 108.51 51.07 105.61 51.77 102.75 Z" />
</g>
<g id="#8a8a8aff">
<path fill="#8a8a8a" opacity="1.00" d=" M 210.18 103.23 C 211.25 103.42 212.31 103.70 213.37 103.96 C 213.06 104.63 212.74 105.30 212.40 105.96 C 213.90 107.34 215.56 108.53 217.15 109.81 C 214.52 109.23 212.31 107.65 209.94 106.48 C 209.97 105.39 210.05 104.30 210.18 103.23 Z" />
</g>
<g id="#282828ff">
<path fill="#282828" opacity="1.00" d=" M 154.20 105.04 C 155.47 103.85 157.26 106.81 155.31 106.82 C 154.99 106.54 154.36 105.97 154.04 105.69 L 154.20 105.04 Z" />
</g>
<g id="#090909ff">
<path fill="#090909" opacity="1.00" d=" M 198.49 105.49 C 201.90 103.51 205.02 108.53 203.48 111.41 C 200.27 113.28 196.92 108.18 198.49 105.49 Z" />
<path fill="#090909" opacity="1.00" d=" M 105.60 126.98 C 106.39 126.12 107.23 125.31 108.12 124.55 C 108.79 125.46 109.42 126.41 110.10 127.32 C 111.27 127.49 112.88 126.76 113.73 127.89 C 113.82 129.27 113.86 130.65 113.83 132.04 C 112.25 132.98 110.26 132.31 108.74 133.41 C 108.22 133.22 107.17 132.83 106.65 132.63 C 106.77 131.50 106.99 130.38 107.13 129.25 C 106.66 128.47 106.09 127.75 105.60 126.98 Z" />
<path fill="#090909" opacity="1.00" d=" M 127.37 142.69 C 130.54 141.34 134.10 140.77 136.88 138.63 C 137.16 138.94 137.73 139.56 138.02 139.87 C 137.16 140.64 136.30 141.49 135.15 141.80 C 130.40 143.54 125.48 144.80 120.75 146.59 C 122.37 144.46 125.08 143.81 127.37 142.69 Z" />
</g>
<g id="#e9e9e9ff">
<path fill="#e9e9e9" opacity="1.00" d=" M 209.94 106.48 C 212.31 107.65 214.52 109.23 217.15 109.81 C 217.44 110.03 218.04 110.48 218.34 110.70 C 215.65 110.74 216.82 113.82 216.00 115.46 C 214.09 116.17 213.69 117.84 213.87 119.68 C 213.81 121.35 213.66 123.02 213.41 124.68 C 210.29 126.06 213.59 121.81 211.85 120.78 C 210.82 120.06 209.64 119.97 208.33 120.51 C 209.36 119.57 210.65 118.57 210.08 116.96 C 209.57 113.48 209.85 109.97 209.94 106.48 Z" />
</g>
<g id="#616161ff">
<path fill="#616161" opacity="1.00" d=" M 138.01 117.68 C 137.57 115.87 138.37 114.19 139.77 113.06 C 140.73 114.46 140.07 117.98 138.01 117.68 Z" />
</g>
<g id="#878787ff">
<path fill="#878787" opacity="1.00" d=" M 49.13 119.74 C 50.47 118.08 51.09 115.81 52.93 114.61 C 54.94 114.96 56.65 116.24 58.23 117.45 C 56.73 119.29 54.34 117.25 52.44 117.27 C 52.20 118.93 51.98 120.66 52.46 122.30 C 54.01 122.52 55.58 122.52 57.14 122.34 C 58.25 121.48 58.18 119.89 58.62 118.67 C 58.87 119.51 59.36 121.20 59.60 122.04 C 57.60 124.46 54.37 123.36 51.67 123.60 C 51.69 124.43 51.72 126.08 51.74 126.91 C 51.20 127.35 50.66 127.80 50.13 128.25 L 49.59 128.67 C 49.49 128.19 49.28 127.25 49.17 126.77 L 50.37 126.13 C 50.11 123.97 49.53 121.87 49.13 119.74 Z" />
<path fill="#878787" opacity="1.00" d=" M 213.87 119.68 C 214.42 119.76 215.52 119.91 216.07 119.99 C 216.12 122.07 216.01 124.16 215.91 126.25 C 215.59 127.02 215.22 127.77 214.78 128.48 C 213.47 128.42 212.17 128.21 210.88 128.06 C 210.42 127.91 209.52 127.62 209.06 127.48 C 210.72 127.05 212.40 126.38 214.15 126.73 C 214.88 125.62 215.26 124.50 213.41 124.68 C 213.66 123.02 213.81 121.35 213.87 119.68 Z" />
</g>
<g id="#181818ff">
<path fill="#181818" opacity="1.00" d=" M 143.24 115.23 L 144.06 114.85 L 144.88 115.14 L 145.20 115.98 L 144.85 116.85 L 143.99 117.19 L 143.15 116.87 L 142.86 116.05 L 143.24 115.23 Z" />
<path fill="#181818" opacity="1.00" d=" M 85.14 194.15 L 85.96 193.84 L 86.79 194.19 L 87.15 195.02 L 86.83 195.85 L 85.99 196.19 L 85.14 195.85 L 84.81 195.00 L 85.14 194.15 Z" />
</g>
<g id="#4d4d4dff">
<path fill="#4d4d4d" opacity="1.00" d=" M 121.18 129.66 C 120.46 128.38 121.94 127.38 122.66 126.50 C 123.42 128.05 124.21 129.59 125.24 131.00 C 123.83 130.73 122.40 130.43 121.18 129.66 Z" />
</g>
<g id="#323232ff">
<path fill="#323232" opacity="1.00" d=" M 50.13 128.25 C 50.66 127.80 51.20 127.35 51.74 126.91 C 52.83 129.81 53.32 132.94 54.88 135.65 C 57.34 134.95 59.89 134.24 62.26 135.73 C 62.99 137.56 63.51 139.49 63.63 141.47 C 61.81 141.52 59.99 141.33 58.17 141.34 C 58.87 144.41 60.45 147.15 62.96 149.09 C 63.72 151.25 64.45 153.60 64.32 155.92 C 62.17 157.54 64.37 160.17 64.36 162.35 C 63.92 163.98 63.49 165.63 63.32 167.33 C 62.82 164.93 63.05 162.42 62.14 160.11 C 61.28 158.13 61.65 155.94 61.49 153.85 C 60.28 151.94 58.29 150.41 58.08 148.00 C 57.46 144.77 56.08 141.73 54.30 138.98 C 52.06 135.79 51.29 131.89 50.13 128.25 Z" />
<path fill="#323232" opacity="1.00" d=" M 237.06 178.02 C 237.55 177.99 238.52 177.94 239.01 177.91 C 239.01 178.40 239.02 179.37 239.02 179.86 C 235.40 178.61 238.00 181.84 238.93 182.79 C 238.38 182.70 237.28 182.53 236.73 182.45 C 236.72 180.96 236.76 179.47 237.06 178.02 Z" />
</g>
<g id="#474747ff">
<path fill="#474747" opacity="1.00" d=" M 130.27 127.26 L 130.79 127.26 L 130.79 127.78 L 130.27 127.78 L 130.27 127.26 Z" />
</g>
<g id="#797979ff">
<path fill="#797979" opacity="1.00" d=" M 134.52 127.30 C 134.79 128.23 135.03 129.17 135.22 130.13 C 134.67 131.19 134.61 132.67 133.55 133.39 C 131.41 133.87 129.10 133.99 127.02 133.22 C 129.17 132.66 131.59 132.70 133.55 131.60 C 134.21 130.27 134.30 128.75 134.52 127.30 Z" />
</g>
<g id="#a5a5a5ff">
<path fill="#a5a5a5" opacity="1.00" d=" M 148.80 131.14 C 150.72 128.51 154.26 129.64 157.03 129.22 C 162.20 129.24 167.41 128.91 172.55 129.64 C 172.99 130.07 173.88 130.93 174.32 131.36 C 170.77 131.94 167.45 130.55 163.96 130.34 C 159.57 129.80 155.15 130.28 150.80 130.96 L 150.66 132.09 C 152.75 132.29 154.86 132.34 156.96 132.52 C 152.76 135.14 147.72 135.73 142.87 135.88 C 145.18 135.15 147.57 134.75 149.88 134.05 C 149.54 133.07 149.18 132.10 148.80 131.14 Z" />
</g>
<g id="#555555ff">
<path fill="#555555" opacity="1.00" d=" M 159.34 131.27 C 160.85 130.85 162.41 130.62 163.96 130.34 C 164.18 130.95 164.61 132.17 164.82 132.78 C 162.63 133.20 160.45 133.69 158.24 133.95 C 158.54 133.03 158.91 132.14 159.34 131.27 Z" />
</g>
<g id="#1d1d1dff">
<path fill="#1d1d1d" opacity="1.00" d=" M 187.99 130.94 C 188.45 130.99 189.37 131.10 189.83 131.16 L 190.17 131.96 C 189.90 132.32 189.35 133.04 189.08 133.40 C 188.80 132.79 188.26 131.55 187.99 130.94 Z" />
</g>
<g id="#646464ff">
<path fill="#646464" opacity="1.00" d=" M 121.82 143.83 C 123.46 142.66 125.44 142.62 127.37 142.69 C 125.08 143.81 122.37 144.46 120.75 146.59 C 119.91 147.81 118.35 147.92 117.09 148.42 C 115.10 149.12 113.11 149.89 110.98 150.03 C 108.77 150.06 107.00 151.60 104.85 151.87 C 104.38 151.56 103.42 150.92 102.94 150.60 C 105.76 148.99 108.67 147.42 111.99 147.28 C 115.04 145.44 118.81 145.76 121.82 143.83 Z" />
</g>
<g id="#aeaeaeff">
<path fill="#aeaeae" opacity="1.00" d=" M 215.77 145.76 C 216.40 144.54 217.73 144.19 218.90 143.71 C 220.34 144.98 221.86 146.15 223.40 147.29 C 224.23 148.82 224.46 150.54 224.66 152.25 C 223.75 151.50 222.84 148.44 221.37 150.00 C 220.56 151.04 220.06 152.33 219.04 153.20 C 217.61 153.83 215.96 153.59 214.44 153.58 C 214.42 152.99 214.39 151.82 214.37 151.23 C 215.95 151.51 217.64 152.10 219.19 151.38 C 219.66 149.93 220.93 148.41 220.32 146.85 C 219.15 145.53 217.35 145.61 215.77 145.76 Z" />
</g>
<g id="#e4e4e4ff">
<path fill="#e4e4e4" opacity="1.00" d=" M 64.36 162.35 C 66.58 161.77 67.27 163.79 68.29 165.22 C 70.43 166.67 72.99 167.37 75.04 168.96 C 76.57 171.30 76.25 174.33 76.41 177.02 C 76.40 180.71 77.72 184.29 77.25 187.99 C 76.93 190.98 76.66 193.97 76.66 196.98 C 76.68 200.46 75.92 204.06 77.19 207.42 C 76.81 209.27 76.68 211.16 76.81 213.06 C 75.61 212.81 74.40 212.65 73.24 212.30 C 72.99 209.22 72.98 206.08 71.76 203.18 C 72.42 198.54 72.75 193.80 74.38 189.37 C 73.59 188.89 72.79 188.45 71.97 188.04 C 72.43 187.95 73.33 187.79 73.79 187.71 C 73.96 185.54 73.91 183.34 73.37 181.24 C 70.92 179.92 68.45 178.35 66.92 175.97 C 66.31 173.99 66.15 171.89 64.99 170.11 C 64.63 167.54 64.47 164.94 64.36 162.35 M 69.16 172.21 L 68.79 173.03 L 69.14 173.85 L 69.98 174.18 L 70.83 173.83 L 71.19 173.01 L 70.84 172.19 L 70.01 171.86 L 69.16 172.21 M 71.08 176.09 L 70.69 176.96 L 71.05 177.82 C 71.52 177.88 72.46 178.02 72.93 178.08 C 75.20 177.22 72.42 174.45 71.08 176.09 Z" />
</g>
<g id="#969696ff">
<path fill="#969696" opacity="1.00" d=" M 69.16 172.21 L 70.01 171.86 L 70.84 172.19 L 71.19 173.01 L 70.83 173.83 L 69.98 174.18 L 69.14 173.85 L 68.79 173.03 L 69.16 172.21 Z" />
</g>
<g id="#7a7a7aff">
<path fill="#7a7a7a" opacity="1.00" d=" M 67.40 180.08 C 68.86 181.91 67.86 184.42 69.20 186.24 C 71.69 186.12 73.50 183.66 73.37 181.24 C 73.91 183.34 73.96 185.54 73.79 187.71 C 73.33 187.79 72.43 187.95 71.97 188.04 C 70.54 187.59 69.10 187.18 67.63 186.86 C 67.86 188.66 68.18 190.45 68.45 192.24 C 66.10 188.64 67.00 184.10 67.40 180.08 Z" />
</g>
<g id="#363636ff">
<path fill="#363636" opacity="1.00" d=" M 90.20 184.16 L 91.04 183.81 L 91.88 184.13 L 92.20 184.98 L 91.84 185.82 L 91.01 186.16 L 90.19 185.81 L 89.86 184.99 L 90.20 184.16 Z" />
</g>
<g id="#fbfbfbff">
<path fill="#fbfbfb" opacity="1.00" d=" M 67.63 186.86 C 69.10 187.18 70.54 187.59 71.97 188.04 C 72.79 188.45 73.59 188.89 74.38 189.37 C 72.75 193.80 72.42 198.54 71.76 203.18 C 70.84 200.70 71.08 197.69 68.93 195.82 C 68.80 194.62 68.64 193.43 68.45 192.24 C 68.18 190.45 67.86 188.66 67.63 186.86 Z" />
</g>
<g id="#2f2f2fff">
<path fill="#2f2f2f" opacity="1.00" d=" M 85.30 187.16 C 87.81 187.42 84.31 190.81 84.11 188.31 C 84.41 188.02 85.01 187.45 85.30 187.16 Z" />
</g>
<g id="#232323ff">
<path fill="#232323" opacity="1.00" d=" M 240.15 192.20 L 240.99 191.90 C 241.30 192.19 241.91 192.77 242.22 193.06 L 241.89 193.85 L 241.01 194.19 L 240.14 193.87 L 239.81 193.02 L 240.15 192.20 Z" />
</g>
<g id="#ecececff">
<path fill="#ececec" opacity="1.00" d=" M 68.93 195.82 C 71.08 197.69 70.84 200.70 71.76 203.18 C 72.98 206.08 72.99 209.22 73.24 212.30 C 74.40 212.65 75.61 212.81 76.81 213.06 C 77.33 216.20 75.89 219.12 74.91 222.01 C 74.37 224.56 71.99 225.95 70.06 227.39 C 69.33 227.38 67.89 227.34 67.17 227.33 C 67.29 225.71 67.42 224.09 67.54 222.48 C 65.17 222.44 62.85 226.07 61.12 222.95 C 62.62 221.22 64.03 219.36 65.92 218.03 C 67.10 217.25 68.30 216.13 68.47 214.64 C 68.94 208.38 68.15 202.07 68.93 195.82 Z" />
</g>
<g id="#9e9e9eff">
<path fill="#9e9e9e" opacity="1.00" d=" M 246.30 228.42 C 246.64 227.58 247.21 226.99 248.02 226.65 C 249.79 226.80 249.53 228.68 250.04 229.88 C 251.04 229.61 252.03 229.29 253.01 228.95 C 252.02 229.80 251.58 231.79 250.00 231.56 C 247.66 232.20 247.92 229.19 246.30 228.42 Z" />
</g>
</svg>
